<svg width="60" height="60" viewBox="0 0 60 60" fill="none" xmlns="http://www.w3.org/2000/svg">
<path d="M36.0701 8.24092C39.7995 11.9703 39.7995 18.0169 36.0701 21.7463C32.3406 25.4758 26.2941 25.4758 22.5646 21.7463C18.8352 18.0169 18.8352 11.9703 22.5646 8.24092C26.2941 4.51149 32.3406 4.51149 36.0701 8.24092" stroke="#1B74E3" stroke-width="2.5" stroke-linecap="round" stroke-linejoin="round"/>
<path d="M44.4139 29.9117C44.463 29.9607 44.463 30.0402 44.4139 30.0892C44.3649 30.1382 44.2855 30.1382 44.2364 30.0892C44.1874 30.0402 44.1874 29.9607 44.2364 29.9117C44.2855 29.8627 44.3649 29.8627 44.4139 29.9117" stroke="#1B74E3" stroke-width="2.5" stroke-linecap="round" stroke-linejoin="round"/>
<path d="M38.8125 15.9732C39.702 15.744 40.556 15.4084 41.3282 14.9118C42.586 14.1014 44.0785 13.6294 45.6883 13.6294H48.4168V20.598C50.3759 22.3661 51.9311 24.5707 52.8534 27.0946H55.2381C56.7442 27.0946 57.9666 28.3169 57.9666 29.8231V38.1859C57.9666 39.6921 56.7442 40.9144 55.2381 40.9144H51.661C50.2285 43.3919 48.1603 45.4547 45.6883 46.8926V51.8284C45.6883 53.3346 44.4659 54.557 42.9598 54.557H37.5028C35.9967 54.557 34.7743 53.3346 34.7743 51.8284V49.0999H25.2245V51.4683C25.2245 52.9744 24.0022 54.1968 22.496 54.1968H17.039C15.5329 54.1968 14.3105 52.9744 14.3105 51.4683V44.9062C10.9681 41.9103 8.85352 37.572 8.85352 32.7289C8.85352 25.5038 13.5411 19.3838 20.0349 17.2119" stroke="#1B74E3" stroke-width="2.5" stroke-linecap="round" stroke-linejoin="round"/>
<path d="M4.18326 24.5435C2.9036 25.2883 2.0332 26.6608 2.0332 28.2488C2.0332 30.6253 3.95953 32.5516 6.33605 32.5516H8.85446" stroke="#1B74E3" stroke-width="2.5" stroke-linecap="round" stroke-linejoin="round"/>
<path d="M21.1327 24.5435H37.5037" stroke="#1B74E3" stroke-width="2.5" stroke-linecap="round" stroke-linejoin="round"/>
<path d="M27.2383 19.7997V10.1865H31.2737C32.6922 10.1865 33.8426 11.2621 33.8426 12.5898C33.8426 13.9175 32.6922 14.9931 31.2737 14.9931" stroke="#1B74E3" stroke-width="1.8" stroke-linecap="round" stroke-linejoin="round"/>
<path d="M31.2698 14.9935H25.3203" stroke="#1B74E3" stroke-width="1.8" stroke-linecap="round" stroke-linejoin="round"/>
<path d="M30.661 17.9306H25.3203" stroke="#1B74E3" stroke-width="1.8" stroke-linecap="round" stroke-linejoin="round"/>
</svg>
