<svg width="11" height="10" viewBox="0 0 11 10" fill="none" xmlns="http://www.w3.org/2000/svg">
<path d="M4.09558 6.98114L2.07518 4.94728L2.0752 4.94725L2.07209 4.94422C1.92513 4.80134 1.72797 4.722 1.52298 4.72379C1.318 4.72559 1.12225 4.80837 0.977805 4.95377C0.833411 5.09913 0.751798 5.29542 0.750029 5.50027C0.748261 5.70513 0.826472 5.9028 0.968317 6.05064L0.96829 6.05066L0.971352 6.05375L3.62014 8.72017C3.62017 8.7202 3.62019 8.72023 3.62022 8.72026C3.69854 8.79914 3.79277 8.8604 3.89669 8.89986C4.00064 8.93932 4.11183 8.95602 4.22279 8.9488C4.33375 8.94158 4.44183 8.91061 4.53981 8.85802C4.63778 8.80544 4.72335 8.73249 4.79087 8.64415L4.79089 8.64413L10.0886 1.7113C10.1509 1.62973 10.1967 1.53667 10.2232 1.43747C10.2498 1.33826 10.2567 1.23479 10.2435 1.13295C10.2303 1.0311 10.1973 0.932803 10.1463 0.843673C10.0953 0.754537 10.0272 0.676285 9.94601 0.61345M9.94601 0.61345C9.94607 0.613498 9.94613 0.613547 9.94619 0.613595L9.79304 0.811188L9.94601 0.61345Z" fill="white" stroke="white" stroke-width="0.5"/>
</svg>
