<svg width="40" height="40" viewBox="0 0 40 40" fill="none" xmlns="http://www.w3.org/2000/svg">
<path d="M23.182 16.818C24.9394 18.5754 24.9394 21.4246 23.182 23.182C21.4246 24.9394 18.5754 24.9394 16.818 23.182C15.0607 21.4246 15.0607 18.5754 16.818 16.818C18.5754 15.0607 21.4246 15.0607 23.182 16.818" stroke="currentColor" stroke-width="2" stroke-linecap="round" stroke-linejoin="round"/>
<path fill-rule="evenodd" clip-rule="evenodd" d="M8.7506 20C8.7506 20.495 8.7956 20.99 8.8556 21.47L6.20893 23.54C5.62226 24 5.46226 24.8217 5.8356 25.4667L8.18893 29.5383C8.5606 30.1833 9.3506 30.455 10.0423 30.1783L12.4123 29.2267C12.8806 29.0383 13.4023 29.1133 13.8223 29.3917C14.1889 29.635 14.5689 29.8583 14.9623 30.0583C15.4123 30.2867 15.7389 30.695 15.8106 31.195L16.1723 33.7167C16.2773 34.4533 16.9089 35 17.6523 35H22.3473C23.0906 35 23.7223 34.4533 23.8273 33.7167L24.1889 31.1967C24.2606 30.6967 24.5906 30.285 25.0423 30.0583C25.4339 29.8617 25.8123 29.64 26.1773 29.3983C26.6006 29.1183 27.1239 29.0383 27.5939 29.2283L29.9589 30.1783C30.6489 30.455 31.4389 30.1833 31.8123 29.5383L34.1656 25.4667C34.5389 24.8217 34.3789 23.9983 33.7923 23.54L31.1456 21.47C31.2056 20.99 31.2506 20.495 31.2506 20C31.2506 19.505 31.2056 19.01 31.1456 18.53L33.7923 16.46C34.3789 16 34.5389 15.1783 34.1656 14.5333L31.8123 10.4617C31.4406 9.81667 30.6506 9.545 29.9589 9.82167L27.5939 10.7717C27.1239 10.96 26.6006 10.8817 26.1773 10.6017C25.8123 10.36 25.4339 10.1383 25.0423 9.94167C24.5906 9.715 24.2606 9.30333 24.1889 8.80333L23.8289 6.28333C23.7239 5.54667 23.0923 5 22.3489 5H17.6539C16.9106 5 16.2789 5.54667 16.1739 6.28333L15.8106 8.80667C15.7389 9.305 15.4106 9.715 14.9623 9.94333C14.5689 10.1433 14.1889 10.3683 13.8223 10.61C13.4006 10.8867 12.8789 10.9617 12.4106 10.7733L10.0423 9.82167C9.3506 9.545 8.5606 9.81667 8.18893 10.4617L5.8356 14.5333C5.46226 15.1783 5.62226 16.0017 6.20893 16.46L8.8556 18.53C8.7956 19.01 8.7506 19.505 8.7506 20V20Z" stroke="currentColor" stroke-width="2" stroke-linecap="round" stroke-linejoin="round"/>
</svg>
