<svg class="isuzuCar" width="1129" height="368" viewBox="0 0 1129 368" fill="none" xmlns="http://www.w3.org/2000/svg">
<g data-option="Емкость для воды 2,0 куб. м." class="hide">
    <rect x="113" y="43" width="488" height="197" fill="#3F89E4" stroke="white" stroke-width="2"/>
    <rect x="98" y="17" width="492" height="211" rx="33" fill="#3F89E4" stroke="white" stroke-width="2"/>
    <path d="M155.7 17L159.588 10H260.412L264.3 17H155.7Z" fill="#3F89E4" stroke="white" stroke-width="2"/>
    <path fill-rule="evenodd" clip-rule="evenodd" d="M78 198C78 197.448 78.4477 197 79 197H596C596.552 197 597 197.448 597 198V203C597 203.552 596.552 204 596 204H541C540.448 204 540 204.448 540 205V234C540 234.552 539.552 235 539 235H534C533.448 235 533 234.552 533 234V205C533 204.448 532.552 204 532 204H121C120.448 204 120 204.448 120 205V234C120 234.552 119.552 235 119 235H114C113.448 235 113 234.552 113 234V205C113 204.448 112.552 204 112 204H79C78.4477 204 78 203.552 78 203V198Z" fill="#3F89E4"/>
    <path d="M596 196H79V198H596V196ZM598 203V198H596V203H598ZM541 205H596V203H541V205ZM539 205V234H541V205H539ZM539 234H534V236H539V234ZM534 234V205H532V234H534ZM121 205H532V203H121V205ZM121 234V205H119V234H121ZM114 236H119V234H114V236ZM112 205V234H114V205H112ZM79 205H112V203H79V205ZM77 198V203H79V198H77ZM79 203H77C77 204.105 77.8954 205 79 205V203ZM114 205C114 203.895 113.105 203 112 203V205H114ZM114 234H112C112 235.105 112.895 236 114 236V234ZM119 234V236C120.105 236 121 235.105 121 234H119ZM121 203C119.895 203 119 203.895 119 205H121V205V203ZM534 205C534 203.895 533.105 203 532 203V205V205H534ZM534 234H532C532 235.105 532.895 236 534 236V234ZM539 234V236C540.105 236 541 235.105 541 234H539ZM541 203C539.895 203 539 203.895 539 205H541V203ZM596 203V205C597.105 205 598 204.105 598 203H596ZM79 196C77.8954 196 77 196.895 77 198H79H79V196ZM596 198V198H598C598 196.895 597.105 196 596 196V198Z" fill="white"/>
</g>
<g data-option="Ледозаливочное оборудование «Умка»" class="hide">
    <path d="M70 232L13.5 277L82 289L123 271L99.5 239.5H602.5V41H612.5V27H588.5L59 128L70 232Z" fill="#3F89E4"/>
    <path d="M64 236.5L59.5 134L84.5 172.929V181.5L87 243.5L64 236.5Z" fill="#3F89E4"/>
    <path d="M153 264.942L110.608 289.825L138.434 309.434C142.622 313.671 145.704 321.781 124.521 320.328C103.337 318.876 40.5953 313.671 11.8721 311.25C7.83293 309.918 0.0238183 305.73 1.10094 299.629C2.17806 293.529 2.74652 284.741 2.89611 281.109C2.74651 279.173 5.22987 275.517 16.3601 276.389C23.5035 276.948 41.8869 278.177 58.9961 279.585L105.978 258.5L153 264.942Z" fill="#3F89E4"/>
    <path d="M564 217H211.5C157.167 186.667 46 124.7 36 119.5C26 114.3 29.1667 108.667 32 106.5L145 28.5L589 23V26.5V200L564 217Z" fill="#3F89E4"/>
    <path d="M104 195C104 199.142 100.642 202.5 96.5 202.5C92.3579 202.5 89 199.142 89 195C89 190.858 92.3579 187.5 96.5 187.5C100.642 187.5 104 190.858 104 195Z" fill="#3F89E4"/>
    <path d="M77 228.5H68.5V209.5L67.5 190.5H76L77 209.5V228.5Z" fill="#3F89E4"/>
    <path d="M87 243.5L64 236.5L59.5 134L84.5 172.929M87 243.5L84.5 181.5V172.929M87 243.5L99 256.5M84.5 172.929L94.5 188.5M110.608 289.825L153 264.942L105.978 258.5L58.9961 279.585M110.608 289.825L138.434 309.434C142.622 313.671 145.704 321.781 124.521 320.328C103.337 318.876 40.5953 313.671 11.8721 311.25C7.83293 309.918 0.0238182 305.73 1.10094 299.629C2.17806 293.529 2.74652 284.741 2.89611 281.109C2.74651 279.173 5.22987 275.517 16.3601 276.389C23.5035 276.948 41.8869 278.177 58.9961 279.585M110.608 289.825C107.167 288.614 98.9392 285.685 93.5536 283.651C90.2781 282.415 75.2092 280.92 58.9961 279.585M589 26.5V200L564 217H211.5C157.167 186.667 46 124.7 36 119.5C26 114.3 29.1667 108.667 32 106.5L145 28.5L589 23V26.5ZM589 26.5H612M96 202L99.5 239.5M247 235L101.5 200L104 193.5L200 210.5M14 276L63.5 237M68.5 209.5L67.5 190.5H76L77 209.5M68.5 209.5V228.5H77V209.5M68.5 209.5H77M104 195C104 199.142 100.642 202.5 96.5 202.5C92.3579 202.5 89 199.142 89 195C89 190.858 92.3579 187.5 96.5 187.5C100.642 187.5 104 190.858 104 195Z" stroke="white" stroke-width="2"/>
    <path d="M94.5 188.5L84.5 172.929M84.5 172.929L59.5 134L64 236.5L87 243.5L84.5 181.5V172.929Z" stroke="white" stroke-width="2"/>
    <path d="M110.608 289.825L153 264.942L105.978 258.5L58.9961 279.585M110.608 289.825L138.434 309.434C142.622 313.671 145.704 321.781 124.521 320.328C103.337 318.876 40.5953 313.671 11.8721 311.25C7.83293 309.918 0.0238182 305.73 1.10094 299.629C2.17806 293.529 2.74652 284.741 2.89611 281.109C2.74651 279.173 5.22987 275.517 16.3601 276.389C23.5035 276.948 41.8869 278.177 58.9961 279.585M110.608 289.825C107.167 288.614 98.9392 285.685 93.5536 283.651C90.2781 282.415 75.2092 280.92 58.9961 279.585" stroke="white" stroke-width="2"/>
    <path d="M589 26.5V200L564 217H211.5C157.167 186.667 46.0002 124.7 36.0002 119.5C26.0002 114.3 29.1669 108.667 32.0002 106.5L145 28.5L589 23V26.5ZM589 26.5H612" stroke="white" stroke-width="2"/>
    <circle cx="96.5" cy="195" r="6.5" stroke="white" stroke-width="2"/>
    <path d="M96 202L99.5 239.5" stroke="white" stroke-width="2"/>
    <path d="M247 235L101.5 200L104 193.5L200 210.5" stroke="white" stroke-width="2"/>
    <path d="M99 256.5L87 243.5" stroke="white" stroke-width="2"/>
    <path d="M14 276L63.5 237" stroke="white" stroke-width="2"/>
    <path d="M68.5 209.5L67.5 190.5H76L77 209.5M68.5 209.5V228.5H77V209.5M68.5 209.5H77" stroke="white" stroke-width="2"/>
</g>
<path d="M232 268.471L313 306L408 296.941H687V240H159V256.824L232 268.471Z" fill="#3F89E4" stroke="white" stroke-width="2"/>
<path d="M888 65.5L886 118C887.167 118 890.9 117.7 896.5 116.5C902.1 115.3 903.5 109.667 903.5 107C903.667 97.5 903.9 77.2 903.5 72C903.1 66.8 897.667 65.5 895 65.5H888Z" fill="#3F89E4" stroke="#3F89E4" stroke-width="2"/>
<path d="M872 95L874 69.5C876.667 68.6667 883 67 887 67M886 116.5L881 118M890.5 118V144.5M895 116.5L894 154.5" stroke="#3F89E4" stroke-width="2"/>
<path d="M895 292.5H861V279H769H663.5L663 236V41.5H672.5V22.5C672.5 16.9 683.5 7.5 689 3.5L731.5 1C742.5 1 769.4 1.5 789 3.5C813.5 6 823.5 16.5 830 25C836.5 33.5 859.5 72 867 85.5C874.5 99 897 159 897 170.5V247.5H905C909.4 247.5 911.5 252.5 912 255V281C912 289 906 292 903 292.5H895Z" fill="#3F89E4"/>
<path d="M861 278V279M663 236V41.5H672.5C672.5 37.5 672.5 28.1 672.5 22.5C672.5 16.9 683.5 7.5 689 3.5L731.5 1C742.5 1 769.4 1.5 789 3.5C813.5 6 823.5 16.5 830 25C836.5 33.5 859.5 72 867 85.5C874.5 99 897 159 897 170.5C897 179.7 897 225.667 897 247.5C897.833 247.5 900.6 247.5 905 247.5C909.4 247.5 911.5 252.5 912 255C912 260.333 912 273 912 281C912 289 906 292 903 292.5H895H861V279M663 236L673 226V41.5M663 236L663.5 279H769H861" stroke="#3F89E4" stroke-width="2"/>
<path d="M699.324 234.445L692.479 232.259L664.266 270.335L662.649 318.953L669.581 320.068L674.724 276.337L699.324 234.445Z" fill="#3F89E4" stroke="#3F89E4" stroke-width="2"/>
<circle cx="741" cy="305" r="59" fill="#3F89E4" stroke="#3F89E4" stroke-width="2"/>
<circle cx="342" cy="305" r="59" fill="#3F89E4" stroke="#3F89E4" stroke-width="2"/>
<circle cx="627.5" cy="280.5" r="25.5" fill="#3F89E4" stroke="#3F89E4" stroke-width="2"/>
<path d="M874 69.5L872 95L886.5 155.5L894 154.5L895 116.5L889 67H887C883 67 876.667 68.6667 874 69.5Z" fill="#3F89E4"/>
<path d="M886 116.5L881 118M890.5 118V144.5M872 95L874 69.5C876.667 68.6667 883 67 887 67H889L895 116.5L894 154.5L886.5 155.5L872 95Z" stroke="#3F89E4" stroke-width="2"/>
<path d="M896.967 287.6L893.9 285.3C892.406 284.179 893.127 281.804 894.992 281.703L903.33 281.252C905.087 281.157 906.102 283.215 904.956 284.551L902.599 287.302C902.219 287.745 901.664 288 901.08 288H898.167C897.734 288 897.313 287.86 896.967 287.6Z" stroke="white" stroke-width="2"/>
<path d="M888 65.5L886 118C887.167 118 890.9 117.7 896.5 116.5C902.1 115.3 903.5 109.667 903.5 107C903.667 97.5 903.9 77.2 903.5 72C903.1 66.8 897.667 65.5 895 65.5H888Z" stroke="white" stroke-width="2"/>
<path d="M888 65.5L886 118C887.167 118 890.9 117.7 896.5 116.5C902.1 115.3 903.5 109.667 903.5 107C903.667 97.5 903.9 77.2 903.5 72C903.1 66.8 897.667 65.5 895 65.5H888Z" stroke="white" stroke-width="2"/>
<path d="M872 95L874 69.5C876.667 68.6667 883 67 887 67M886 116.5L881 118M890.5 118V144.5M895 116.5L894 154.5" stroke="white" stroke-width="2"/>
<path d="M872 95L874 69.5C876.667 68.6667 883 67 887 67M886 116.5L881 118M890.5 118V144.5M895 116.5L894 154.5" stroke="white" stroke-width="2"/>
<path d="M855.5 260.5C850.7 260.5 849.5 262.833 849.5 264C848.7 266.8 851.167 268.833 852.5 269.5H861.5C866 269.5 865 266.5 865 263C865 259.5 861.5 260.5 855.5 260.5Z" stroke="white" stroke-width="2"/>
<path d="M690.5 19V207C698.667 207 719.3 207.2 736.5 208C758 209 765.5 215 778.5 225C788.9 233 800.5 264.667 805 279.5H869V123.5C865.333 115.333 856.7 96.3 851.5 85.5C845 72 829.5 48 819.5 33.5C811.5 21.9 796.833 19 790.5 19H690.5Z" stroke="white" stroke-width="2"/>
<path d="M805 279.5H794.5" stroke="white" stroke-width="2"/>
<path d="M704.5 35.9997L706 101.5C706.247 112.3 712.436 114.666 715.5 114.5H751.5C762.3 114.5 770 120.833 772.5 124C778.667 130 793.2 144 802 152C810.8 160 817.333 161.333 819.5 161H837C846.6 161 850.333 152.333 851 148V120.5C851 109 846 103.5 842.5 90.5C839 77.5 820 47.4997 813.5 35.9997C808.3 26.7997 794 25.8331 787.5 26.4997H721C706.6 26.4997 704 32.8331 704.5 35.9997Z" stroke="white" stroke-width="2"/>
<path d="M734.5 169.5C734.5 165.1 731.5 163 730 162.5C728 162.5 722.4 162.5 716 162.5C709.6 162.5 707.667 167.167 707.5 169.5C707.5 175.1 713.167 176.833 716 177C719.667 177 727.6 177 730 177C733 177 734.5 175 734.5 169.5ZM734.5 169.5H708" stroke="white" stroke-width="2"/>
<circle cx="705.5" cy="182.5" r="3.5" stroke="white" stroke-width="2"/>
<path d="M707.5 208.5V218C720.667 217.333 749.4 217.2 759 222C771 228 788 237.5 795.5 254" stroke="white" stroke-width="2"/>
<path d="M861 280V292.5H895H903C906 292 912 289 912 281C912 273 912 260.333 912 255C911.5 252.5 909.4 247.5 905 247.5C900.6 247.5 897.833 247.5 897 247.5C897 225.667 897 179.7 897 170.5C897 159 874.5 99 867 85.5C859.5 72 836.5 33.5 830 25C823.5 16.5 813.5 6 789 3.5C769.4 1.5 742.5 1 731.5 1L689 3.5C683.5 7.5 672.5 16.9 672.5 22.5C672.5 28.1 672.5 37.5 672.5 41.5H663V239L673 229V41.5" stroke="white" stroke-width="2"/>
<path d="M851.5 127.5H874.5L877 124.5L886 133.5" stroke="white" stroke-width="2"/>
<path d="M877 124.5C871.833 113 860.7 88.5 857.5 82.5C853.5 75 840 50.5 836 45C832 39.5 823 26 821.5 25" stroke="white" stroke-width="2"/>
<path d="M811 25H829" stroke="white" stroke-width="2"/>
<path d="M812 10H681.5M685.5 6H801.5" stroke="white" stroke-width="2"/>
<path d="M792 247.5H897" stroke="white" stroke-width="2"/>
<path d="M801 267H849" stroke="white" stroke-width="2"/>
<path d="M865 267H868.5" stroke="white" stroke-width="2"/>
<path d="M896 244H884.5L875.5 229.5V197C878.833 197.333 886.4 198.4 890 200C893.6 201.6 896.167 203 897 203.5V221.5C893.333 220.167 883.2 217.6 876 218" stroke="white" stroke-width="2"/>
<path d="M874.5 201.5H677.5V13.5" stroke="white" stroke-width="2"/>
<path d="M774.5 127H678.5" stroke="white" stroke-width="2"/>
<path d="M869.5 267H879.5C884.333 264.667 894 257.6 894 248" stroke="white" stroke-width="2"/>
<path d="M892.5 255.5L911 254.5" stroke="white" stroke-width="2"/>
<path d="M878 268V282.5L894 292.5" stroke="white" stroke-width="2"/>
<path d="M699.324 234.445L692.479 232.259L664.266 270.335L662.649 318.953L669.581 320.068L674.724 276.337L699.324 234.445Z" stroke="white" stroke-width="2"/>
<path d="M699.324 234.445L692.479 232.259L664.266 270.335L662.649 318.953L669.581 320.068L674.724 276.337L699.324 234.445Z" stroke="white" stroke-width="2"/>
<circle cx="741" cy="305" r="59" stroke="white" stroke-width="2"/>
<circle cx="741" cy="305" r="59" stroke="white" stroke-width="2"/>
<circle cx="741" cy="305" r="45" stroke="white" stroke-width="2"/>
<path d="M735.105 329.12C738.985 328.795 742.886 328.828 746.76 329.219C747.571 329.56 746.118 333.967 745.483 334.628C742.621 335.112 739.7 335.124 736.834 334.663C736.184 334.016 734.576 329.646 735.105 329.12" stroke="white" stroke-width="2"/>
<path d="M718.459 314.662C721.271 317.68 723.792 320.953 725.992 324.437C726.224 325.331 721.611 326.978 720.668 326.858C718.402 324.787 716.488 322.364 715 319.684C715.09 318.753 717.688 314.58 718.459 314.662" stroke="white" stroke-width="2"/>
<path d="M719 292.611C718.359 296.619 717.352 300.557 715.993 304.376C715.442 305.058 711.413 302.534 711 301.712C711.212 298.706 711.93 295.76 713.123 293C713.884 292.457 718.601 291.929 719 292.611" stroke="white" stroke-width="2"/>
<path d="M736.98 279.948C733.499 282.053 729.854 283.801 726.091 285.169C725.244 285.169 724.742 279.965 725.137 278.962C727.574 277.178 730.25 275.84 733.064 275C734.011 275.361 737.282 279.13 736.98 279.948" stroke="white" stroke-width="2"/>
<path d="M757.826 286.187C754.069 284.565 750.468 282.609 747.065 280.342C746.479 279.604 750.011 276.29 750.924 276.017C753.814 276.966 756.518 278.404 758.917 280.268C759.236 281.139 758.59 285.943 757.826 286.187" stroke="white" stroke-width="2"/>
<path d="M765.897 306.462C764.895 302.615 764.26 298.679 764 294.709C764.198 293.888 768.792 294.543 769.528 295.12C770.466 297.907 770.963 300.828 771 303.774C770.547 304.567 766.513 306.944 765.897 306.462" stroke="white" stroke-width="2"/>
<path d="M755 325.429C757.392 322.299 760.045 319.383 762.929 316.714C763.734 316.384 766 320.473 766 321.361C764.442 323.833 762.502 326.034 760.253 327.878C759.314 327.964 755.028 326.195 755 325.429" stroke="white" stroke-width="2"/>
<path d="M741.908 313.108C740.24 313.107 738.611 312.603 737.224 311.661C735.838 310.719 734.758 309.38 734.12 307.814C733.481 306.247 733.314 304.524 733.638 302.861C733.962 301.197 734.763 299.669 735.941 298.469C737.119 297.269 738.62 296.45 740.255 296.117C741.89 295.784 743.585 295.951 745.126 296.597C746.668 297.243 747.986 298.34 748.915 299.748C749.845 301.155 750.343 302.811 750.347 304.507C750.352 305.636 750.136 306.755 749.714 307.8C749.292 308.844 748.671 309.793 747.886 310.593C747.102 311.392 746.17 312.026 745.144 312.457C744.118 312.889 743.018 313.11 741.908 313.108" stroke="white" stroke-width="2"/>
<circle cx="342" cy="305" r="59" stroke="white" stroke-width="2"/>
<circle cx="342" cy="305" r="59" stroke="white" stroke-width="2"/>
<circle cx="342" cy="305" r="45" stroke="white" stroke-width="2"/>
<path d="M336.105 329.12C339.985 328.795 343.886 328.828 347.76 329.219C348.571 329.56 347.118 333.967 346.483 334.628C343.621 335.112 340.7 335.124 337.834 334.663C337.184 334.016 335.576 329.646 336.105 329.12" stroke="white" stroke-width="2"/>
<path d="M319.459 314.662C322.271 317.68 324.792 320.953 326.992 324.437C327.224 325.331 322.611 326.978 321.668 326.858C319.402 324.787 317.488 322.364 316 319.684C316.09 318.753 318.688 314.58 319.459 314.662" stroke="white" stroke-width="2"/>
<path d="M320 292.611C319.359 296.619 318.352 300.557 316.993 304.376C316.442 305.058 312.413 302.534 312 301.712C312.212 298.706 312.93 295.76 314.123 293C314.884 292.457 319.601 291.929 320 292.611" stroke="white" stroke-width="2"/>
<path d="M337.98 279.948C334.499 282.053 330.854 283.801 327.091 285.169C326.244 285.169 325.742 279.965 326.137 278.962C328.574 277.178 331.25 275.84 334.064 275C335.011 275.361 338.282 279.13 337.98 279.948" stroke="white" stroke-width="2"/>
<path d="M358.826 286.187C355.069 284.565 351.468 282.609 348.065 280.342C347.479 279.604 351.011 276.29 351.924 276.017C354.814 276.966 357.518 278.404 359.917 280.268C360.236 281.139 359.59 285.943 358.826 286.187" stroke="white" stroke-width="2"/>
<path d="M366.897 306.462C365.895 302.615 365.26 298.679 365 294.709C365.198 293.888 369.792 294.543 370.528 295.12C371.466 297.907 371.963 300.828 372 303.774C371.547 304.567 367.513 306.944 366.897 306.462" stroke="white" stroke-width="2"/>
<path d="M356 325.429C358.392 322.299 361.045 319.383 363.929 316.714C364.734 316.384 367 320.473 367 321.361C365.442 323.833 363.502 326.034 361.253 327.878C360.314 327.964 356.028 326.195 356 325.429" stroke="white" stroke-width="2"/>
<path d="M342.908 313.108C341.24 313.107 339.611 312.603 338.224 311.661C336.838 310.719 335.758 309.38 335.12 307.814C334.481 306.247 334.314 304.524 334.638 302.861C334.962 301.197 335.763 299.669 336.941 298.469C338.119 297.269 339.62 296.45 341.255 296.117C342.89 295.784 344.585 295.951 346.126 296.597C347.668 297.243 348.986 298.34 349.915 299.748C350.845 301.155 351.343 302.811 351.347 304.507C351.352 305.636 351.136 306.755 350.714 307.8C350.292 308.844 349.671 309.793 348.886 310.593C348.102 311.392 347.17 312.026 346.144 312.457C345.118 312.889 344.018 313.11 342.908 313.108" stroke="white" stroke-width="2"/>
<path d="M411 260.262L372.999 232.206C372.999 232.206 312.929 230.712 311.926 232.228C310.902 233.715 269.387 260.236 269.387 260.236L273.848 261.759L313.42 239.713H371.442L405.009 261.23L411 260.262Z" fill="#3F89E4" stroke="white" stroke-width="2"/>
<circle cx="627.5" cy="280.5" r="25.5" stroke="white" stroke-width="2"/>
<circle cx="627.5" cy="280.5" r="25.5" stroke="white" stroke-width="2"/>
<circle cx="627.5" cy="280.5" r="15.5" stroke="white" stroke-width="2"/>
<circle cx="627.5" cy="280.5" r="7.5" stroke="white" stroke-width="2"/>
<path d="M627.5 265V272.5M627.5 288.5V295M620 280.5H612M635 280.5H643" stroke="white" stroke-width="2"/>
<path d="M635 267.01L631.25 273.505M623.25 287.361L620 292.991M620.755 276.683L613.827 272.683M633.745 284.183L640.673 288.183" stroke="white" stroke-width="2"/>
<path d="M640.49 272.5L633.995 276.25M620.139 284.25L614.509 287.5M623.317 273.755L619.317 266.827M630.817 286.745L634.817 293.673" stroke="white" stroke-width="2"/>
<path d="M451.5 276V256.5C451.5 253.739 453.739 251.5 456.5 251.5H463C465.761 251.5 468 253.739 468 256.5V276C468 278.761 465.761 281 463 281H456.5C453.739 281 451.5 278.761 451.5 276Z" stroke="white" stroke-width="2"/>
<path d="M215 276V256.5C215 253.739 217.239 251.5 220 251.5H226.5C229.261 251.5 231.5 253.739 231.5 256.5V276C231.5 278.761 229.261 281 226.5 281H220C217.239 281 215 278.761 215 276Z" fill="#3F89E4" stroke="white" stroke-width="2"/>
<g data-option="Средняя щетка" class="hide">
    <path d="M476.637 303.554C477.013 302.877 477.987 302.877 478.363 303.554C478.712 304.183 479.596 304.239 480.021 303.658C480.479 303.034 481.445 303.156 481.733 303.874C482.001 304.542 482.871 304.708 483.366 304.186C483.898 303.624 484.841 303.866 485.037 304.615C485.219 305.311 486.061 305.585 486.617 305.128C487.216 304.637 488.121 304.996 488.222 305.764C488.315 306.477 489.116 306.854 489.725 306.471C490.381 306.059 491.234 306.528 491.237 307.302C491.241 308.022 491.988 308.497 492.641 308.193C493.343 307.866 494.13 308.438 494.037 309.207C493.949 309.922 494.632 310.486 495.317 310.266C496.055 310.03 496.764 310.697 496.575 311.448C496.399 312.145 497.005 312.791 497.713 312.659C498.474 312.517 499.094 313.267 498.812 313.989C498.55 314.659 499.071 315.375 499.789 315.333C500.562 315.288 501.084 316.11 500.714 316.79C500.37 317.422 500.796 318.198 501.514 318.246C502.287 318.298 502.702 319.179 502.249 319.807C501.828 320.392 502.154 321.215 502.861 321.353C503.621 321.501 503.922 322.427 503.394 322.994C502.904 323.52 503.124 324.378 503.807 324.603C504.543 324.846 504.725 325.802 504.131 326.298C503.578 326.759 503.689 327.638 504.339 327.947C505.038 328.28 505.099 329.251 504.447 329.669C503.841 330.057 503.841 330.943 504.447 331.331C505.099 331.749 505.038 332.72 504.339 333.053C503.689 333.362 503.578 334.241 504.131 334.702C504.725 335.198 504.543 336.154 503.807 336.397C503.124 336.622 502.904 337.48 503.394 338.006C503.922 338.573 503.621 339.499 502.861 339.647C502.154 339.785 501.828 340.608 502.249 341.193C502.702 341.821 502.287 342.702 501.514 342.754C500.796 342.802 500.37 343.578 500.714 344.21C501.084 344.89 500.562 345.712 499.789 345.667C499.071 345.625 498.55 346.341 498.812 347.011C499.094 347.733 498.474 348.483 497.713 348.341C497.005 348.209 496.399 348.855 496.575 349.552C496.764 350.303 496.055 350.97 495.317 350.734C494.632 350.514 493.949 351.078 494.037 351.793C494.13 352.562 493.343 353.134 492.641 352.807C491.988 352.503 491.241 352.978 491.237 353.698C491.234 354.472 490.381 354.941 489.725 354.529C489.116 354.146 488.315 354.523 488.222 355.236C488.121 356.004 487.216 356.363 486.617 355.872C486.061 355.415 485.219 355.689 485.037 356.385C484.841 357.134 483.898 357.376 483.366 356.814C482.871 356.292 482.001 356.458 481.733 357.126C481.445 357.844 480.479 357.966 480.021 357.342C479.596 356.761 478.712 356.817 478.363 357.446C477.987 358.123 477.013 358.123 476.637 357.446C476.288 356.817 475.404 356.761 474.979 357.342C474.521 357.966 473.555 357.844 473.267 357.126C472.999 356.458 472.129 356.292 471.634 356.814C471.102 357.376 470.159 357.134 469.963 356.385C469.781 355.689 468.939 355.415 468.383 355.872C467.784 356.363 466.879 356.004 466.778 355.236C466.685 354.523 465.884 354.146 465.275 354.529C464.619 354.941 463.766 354.472 463.763 353.698C463.76 352.978 463.012 352.503 462.359 352.807C461.657 353.134 460.87 352.562 460.963 351.793C461.051 351.078 460.368 350.514 459.683 350.734C458.945 350.97 458.236 350.303 458.425 349.552C458.601 348.855 457.995 348.209 457.287 348.341C456.526 348.483 455.906 347.733 456.188 347.011C456.45 346.341 455.929 345.625 455.211 345.667C454.438 345.712 453.916 344.89 454.286 344.21C454.63 343.578 454.204 342.802 453.486 342.754C452.713 342.702 452.298 341.821 452.751 341.193C453.172 340.608 452.846 339.785 452.139 339.647C451.379 339.499 451.078 338.573 451.606 338.006C452.096 337.48 451.876 336.622 451.193 336.397C450.457 336.154 450.275 335.198 450.869 334.702C451.422 334.241 451.311 333.362 450.661 333.053C449.962 332.72 449.901 331.749 450.553 331.331C451.159 330.943 451.159 330.057 450.553 329.669C449.901 329.251 449.962 328.28 450.661 327.947C451.311 327.638 451.422 326.759 450.869 326.298C450.275 325.802 450.457 324.846 451.193 324.603C451.876 324.378 452.096 323.52 451.606 322.994C451.078 322.427 451.379 321.501 452.139 321.353C452.846 321.215 453.172 320.392 452.751 319.807C452.298 319.179 452.713 318.298 453.486 318.246C454.204 318.198 454.63 317.422 454.286 316.79C453.916 316.11 454.438 315.288 455.211 315.333C455.929 315.375 456.45 314.659 456.188 313.989C455.906 313.267 456.526 312.517 457.287 312.659C457.995 312.791 458.601 312.145 458.425 311.448C458.236 310.697 458.945 310.03 459.683 310.266C460.368 310.486 461.051 309.922 460.963 309.207C460.87 308.438 461.657 307.866 462.359 308.193C463.012 308.497 463.76 308.022 463.763 307.302C463.766 306.528 464.619 306.059 465.275 306.471C465.884 306.854 466.685 306.477 466.778 305.764C466.879 304.996 467.784 304.637 468.383 305.128C468.939 305.585 469.781 305.311 469.963 304.615C470.159 303.866 471.102 303.624 471.634 304.186C472.129 304.708 472.999 304.542 473.267 303.874C473.555 303.156 474.521 303.034 474.979 303.658C475.404 304.239 476.288 304.183 476.637 303.554Z" fill="#3F89E4" stroke="white" stroke-width="2"/>
    <path d="M495.898 330.8C495.898 331.2 495.572 331.525 495.169 331.525C494.767 331.525 494.441 331.2 494.441 330.8C494.441 330.4 494.767 330.075 495.169 330.075C495.572 330.075 495.898 330.4 495.898 330.8Z" fill="white"/>
    <path d="M489.339 337.325C489.339 337.725 489.013 338.05 488.61 338.05C488.208 338.05 487.881 337.725 487.881 337.325C487.881 336.925 488.208 336.6 488.61 336.6C489.013 336.6 489.339 336.925 489.339 337.325Z" fill="white"/>
    <path d="M482.051 335.15C482.051 335.55 481.725 335.875 481.322 335.875C480.92 335.875 480.593 335.55 480.593 335.15C480.593 334.75 480.92 334.425 481.322 334.425C481.725 334.425 482.051 334.75 482.051 335.15Z" fill="white"/>
    <path d="M467.475 340.225C467.475 340.625 467.148 340.95 466.746 340.95C466.343 340.95 466.017 340.625 466.017 340.225C466.017 339.825 466.343 339.5 466.746 339.5C467.148 339.5 467.475 339.825 467.475 340.225Z" fill="white"/>
    <path d="M459.458 330.075C459.458 330.475 459.131 330.8 458.729 330.8C458.326 330.8 458 330.475 458 330.075C458 329.675 458.326 329.35 458.729 329.35C459.131 329.35 459.458 329.675 459.458 330.075Z" fill="white"/>
    <path d="M466.017 325.725C466.017 326.125 465.691 326.45 465.288 326.45C464.886 326.45 464.559 326.125 464.559 325.725C464.559 325.325 464.886 325 465.288 325C465.691 325 466.017 325.325 466.017 325.725Z" fill="white"/>
    <path d="M479.864 343.125C479.864 343.525 479.538 343.85 479.136 343.85C478.733 343.85 478.407 343.525 478.407 343.125C478.407 342.725 478.733 342.4 479.136 342.4C479.538 342.4 479.864 342.725 479.864 343.125Z" fill="white"/>
    <path d="M470.39 346.025C470.39 346.425 470.064 346.75 469.661 346.75C469.259 346.75 468.932 346.425 468.932 346.025C468.932 345.625 469.259 345.3 469.661 345.3C470.064 345.3 470.39 345.625 470.39 346.025Z" fill="white"/>
    <path d="M459.458 320.65C459.458 321.05 459.131 321.375 458.729 321.375C458.326 321.375 458 321.05 458 320.65C458 320.25 458.326 319.925 458.729 319.925C459.131 319.925 459.458 320.25 459.458 320.65Z" fill="white"/>
    <path d="M501 324.275C501 324.675 500.674 325 500.271 325C499.869 325 499.542 324.675 499.542 324.275C499.542 323.875 499.869 323.55 500.271 323.55C500.674 323.55 501 323.875 501 324.275Z" fill="white"/>
    <path d="M492.254 324.275C492.254 324.675 491.928 325 491.525 325C491.123 325 490.797 324.675 490.797 324.275C490.797 323.875 491.123 323.55 491.525 323.55C491.928 323.55 492.254 323.875 492.254 324.275Z" fill="white"/>
    <path d="M485.695 348.2C485.695 348.6 485.369 348.925 484.966 348.925C484.564 348.925 484.237 348.6 484.237 348.2C484.237 347.8 484.564 347.475 484.966 347.475C485.369 347.475 485.695 347.8 485.695 348.2Z" fill="white"/>
    <path d="M494.441 341.675C494.441 342.075 494.114 342.4 493.712 342.4C493.309 342.4 492.983 342.075 492.983 341.675C492.983 341.275 493.309 340.95 493.712 340.95C494.114 340.95 494.441 341.275 494.441 341.675Z" fill="white"/>
    <path d="M466.746 335.15C466.746 335.55 466.419 335.875 466.017 335.875C465.614 335.875 465.288 335.55 465.288 335.15C465.288 334.75 465.614 334.425 466.017 334.425C466.419 334.425 466.746 334.75 466.746 335.15Z" fill="white"/>
    <path d="M469.017 315.725C469.017 316.125 468.691 316.45 468.288 316.45C467.886 316.45 467.559 316.125 467.559 315.725C467.559 315.325 467.886 315 468.288 315C468.691 315 469.017 315.325 469.017 315.725Z" fill="white"/>
    <path d="M472.017 321.725C472.017 322.125 471.691 322.45 471.288 322.45C470.886 322.45 470.559 322.125 470.559 321.725C470.559 321.325 470.886 321 471.288 321C471.691 321 472.017 321.325 472.017 321.725Z" fill="white"/>
    <path d="M482.017 321.725C482.017 322.125 481.691 322.45 481.288 322.45C480.886 322.45 480.559 322.125 480.559 321.725C480.559 321.325 480.886 321 481.288 321C481.691 321 482.017 321.325 482.017 321.725Z" fill="white"/>
    <path d="M482.017 312.725C482.017 313.125 481.691 313.45 481.288 313.45C480.886 313.45 480.559 313.125 480.559 312.725C480.559 312.325 480.886 312 481.288 312C481.691 312 482.017 312.325 482.017 312.725Z" fill="white"/>
    <rect x="505" y="268" width="24" height="49" rx="5" fill="#3F89E4" stroke="white" stroke-width="2"/>
    <path d="M509.446 300.941C511.989 299.099 515.58 300.029 516.909 302.874L520.272 310.074C521.441 312.576 520.36 315.552 517.858 316.72L479.74 334.524C477.273 335.676 474.34 334.611 473.188 332.144C472.188 330.003 472.848 327.454 474.762 326.067L509.446 300.941Z" fill="#3F89E4" stroke="white" stroke-width="2"/>
</g>
<g data-option="Навеска (для отвала и передней щетки)" class="hide">
    <path d="M969.303 261.722L917.542 278.169C916.982 278.347 916.39 278.006 916.263 277.433L914.72 270.49C914.599 269.946 914.947 269.407 915.493 269.294L968.797 258.249C969.418 258.121 970 258.595 970 259.228V260.768C970 261.204 969.718 261.59 969.303 261.722Z" fill="#3F89E4" stroke="white" stroke-width="2"/>
    <path d="M969.184 236.653L917.45 246.322C916.92 246.421 916.407 246.083 916.29 245.556L914.74 238.581C914.612 238.003 915.012 237.44 915.6 237.371L968.884 231.131C969.478 231.061 970 231.526 970 232.124V235.67C970 236.151 969.657 236.564 969.184 236.653Z" fill="#3F89E4" stroke="white" stroke-width="2"/>
    <path d="M917.232 232.615C917.03 230.011 914.858 228 912.246 228H908.754C906.142 228 903.97 230.011 903.768 232.615L902.03 255.115C902.01 255.371 902.01 255.629 902.03 255.885L903.768 278.385C903.97 280.989 906.142 283 908.754 283H912.246C914.858 283 917.03 280.989 917.232 278.385L918.97 255.885C918.99 255.629 918.99 255.371 918.97 255.115L917.232 232.615Z" fill="#3F89E4" stroke="white" stroke-width="2"/>
    <path fill-rule="evenodd" clip-rule="evenodd" d="M982.38 230.018C983.994 230.007 985.514 230.775 986.462 232.081L994.633 243.341C996.015 245.245 995.883 247.854 994.316 249.608L983.848 261.33C982.899 262.393 981.543 263 980.119 263L961 263C958.239 263 956 260.761 956 258L956 235.17C956 232.422 958.217 230.189 960.965 230.17L982.38 230.018ZM970 252C972.761 252 975 249.761 975 247C975 244.239 972.761 242 970 242C967.239 242 965 244.239 965 247C965 249.761 967.239 252 970 252Z" fill="#3F89E4"/>
    <path d="M986.462 232.081L985.653 232.669V232.669L986.462 232.081ZM982.38 230.018L982.387 231.018L982.38 230.018ZM994.633 243.341L993.824 243.928L993.824 243.928L994.633 243.341ZM994.316 249.608L995.062 250.274L994.316 249.608ZM983.848 261.33L984.594 261.996L983.848 261.33ZM980.119 263V264V263ZM961 263V262V263ZM956 258H955H956ZM956 235.17H957H956ZM960.965 230.17L960.958 229.17L960.965 230.17ZM987.272 231.494C986.134 229.927 984.31 229.005 982.373 229.018L982.387 231.018C983.679 231.009 984.895 231.624 985.653 232.669L987.272 231.494ZM995.443 242.754L987.272 231.494L985.653 232.669L993.824 243.928L995.443 242.754ZM995.062 250.274C996.942 248.169 997.1 245.038 995.443 242.754L993.824 243.928C994.929 245.451 994.823 247.539 993.57 248.942L995.062 250.274ZM984.594 261.996L995.062 250.274L993.57 248.942L983.102 260.664L984.594 261.996ZM980.119 264C981.828 264 983.456 263.271 984.594 261.996L983.102 260.664C982.343 261.514 981.258 262 980.119 262V264ZM961 264L980.119 264V262L961 262V264ZM955 258C955 261.314 957.686 264 961 264V262C958.791 262 957 260.209 957 258H955ZM955 235.17L955 258H957L957 235.17L955 235.17ZM960.958 229.17C957.66 229.193 955 231.873 955 235.17L957 235.17C957 232.972 958.774 231.185 960.972 231.17L960.958 229.17ZM982.373 229.018L960.958 229.17L960.972 231.17L982.387 231.018L982.373 229.018ZM974 247C974 249.209 972.209 251 970 251V253C973.314 253 976 250.314 976 247H974ZM970 243C972.209 243 974 244.791 974 247H976C976 243.686 973.314 241 970 241V243ZM966 247C966 244.791 967.791 243 970 243V241C966.686 241 964 243.686 964 247H966ZM970 251C967.791 251 966 249.209 966 247H964C964 250.314 966.686 253 970 253V251Z" fill="white"/>
</g>
<g data-importantElem="true" data-option="Передняя щетка со смачиванием (необходима навеска)" class="hide">
    <path d="M993 286L991.116 290.049L988.819 286.219L987.368 290.443L984.684 286.874L983.683 291.227L980.639 287.958L980.099 292.391L976.731 289.458L976.656 293.924L973 291.359L973.393 295.808L969.489 293.639L970.344 298.023L966.235 296.274L967.544 300.544L963.274 299.235L965.023 303.344L960.639 302.489L962.808 306.393L958.359 306L960.924 309.656L956.458 309.731L959.391 313.099L954.958 313.639L958.227 316.683L953.874 317.684L957.443 320.368L953.219 321.819L957.049 324.116L953 326L957.049 327.884L953.219 330.181L957.443 331.632L953.874 334.316L958.227 335.317L954.958 338.361L959.391 338.901L956.458 342.269L960.924 342.344L958.359 346L962.808 345.607L960.639 349.511L965.023 348.656L963.274 352.765L967.544 351.456L966.235 355.726L970.344 353.977L969.489 358.361L973.393 356.192L973 360.641L976.656 358.076L976.731 362.542L980.099 359.609L980.639 364.042L983.683 360.773L984.684 365.126L987.368 361.557L988.819 365.781L991.116 361.951L993 366L994.884 361.951L997.181 365.781L998.632 361.557L1001.32 365.126L1002.32 360.773L1005.36 364.042L1005.9 359.609L1009.27 362.542L1009.34 358.076L1013 360.641L1012.61 356.192L1016.51 358.361L1015.66 353.977L1019.77 355.726L1018.46 351.456L1022.73 352.765L1020.98 348.656L1025.36 349.511L1023.19 345.607L1027.64 346L1025.08 342.344L1029.54 342.269L1026.61 338.901L1031.04 338.361L1027.77 335.317L1032.13 334.316L1028.56 331.632L1032.78 330.181L1028.95 327.884L1033 326L1028.95 324.116L1032.78 321.819L1028.56 320.368L1032.13 317.684L1027.77 316.683L1031.04 313.639L1026.61 313.099L1029.54 309.731L1025.08 309.656L1027.64 306L1023.19 306.393L1025.36 302.489L1020.98 303.344L1022.73 299.235L1018.46 300.544L1019.77 296.274L1015.66 298.023L1016.51 293.639L1012.61 295.808L1013 291.359L1009.34 293.924L1009.27 289.458L1005.9 292.391L1005.36 287.958L1002.32 291.227L1001.32 286.874L998.632 290.443L997.181 286.219L994.884 290.049L993 286Z" stroke="white"/>
    <path d="M994.211 288.181C993.683 287.231 992.317 287.231 991.789 288.181C991.299 289.064 990.058 289.142 989.461 288.327C988.819 287.451 987.463 287.622 987.059 288.631C986.683 289.568 985.462 289.801 984.768 289.068C984.02 288.279 982.697 288.618 982.422 289.67C982.167 290.647 980.985 291.031 980.204 290.391C979.363 289.702 978.093 290.205 977.952 291.282C977.821 292.284 976.697 292.813 975.841 292.275C974.921 291.697 973.724 292.355 973.719 293.442C973.715 294.452 972.666 295.118 971.75 294.692C970.765 294.233 969.659 295.036 969.791 296.115C969.913 297.118 968.956 297.91 967.994 297.602C966.959 297.271 965.962 298.206 966.228 299.26C966.475 300.239 965.625 301.145 964.632 300.96C963.563 300.761 962.692 301.814 963.088 302.826C963.456 303.767 962.725 304.772 961.717 304.713C960.632 304.649 959.9 305.803 960.419 306.758C960.902 307.645 960.303 308.734 959.296 308.802C958.211 308.875 957.629 310.111 958.265 310.993C958.855 311.813 958.397 312.968 957.406 313.162C956.339 313.37 955.917 314.669 956.658 315.465C957.346 316.204 957.037 317.408 956.077 317.724C955.045 318.064 954.789 319.406 955.624 320.103C956.399 320.75 956.244 321.983 955.331 322.417C954.35 322.884 954.264 324.248 955.179 324.834C956.03 325.379 956.03 326.621 955.179 327.166C954.264 327.752 954.35 329.116 955.331 329.583C956.244 330.017 956.399 331.25 955.624 331.897C954.789 332.594 955.045 333.936 956.077 334.276C957.037 334.592 957.346 335.796 956.658 336.535C955.917 337.331 956.339 338.63 957.406 338.838C958.397 339.032 958.855 340.187 958.265 341.007C957.629 341.889 958.211 343.125 959.296 343.198C960.303 343.266 960.902 344.355 960.419 345.242C959.9 346.197 960.632 347.351 961.717 347.287C962.725 347.228 963.456 348.233 963.088 349.174C962.692 350.186 963.563 351.239 964.632 351.04C965.625 350.855 966.475 351.761 966.228 352.74C965.962 353.794 966.959 354.729 967.994 354.398C968.956 354.09 969.913 354.882 969.791 355.885C969.659 356.964 970.765 357.767 971.75 357.308C972.666 356.882 973.715 357.548 973.719 358.558C973.724 359.645 974.921 360.303 975.841 359.725C976.697 359.187 977.821 359.716 977.952 360.718C978.093 361.795 979.363 362.298 980.204 361.609C980.985 360.969 982.167 361.353 982.422 362.33C982.697 363.382 984.02 363.721 984.768 362.932C985.462 362.199 986.683 362.432 987.059 363.369C987.463 364.378 988.819 364.549 989.461 363.673C990.058 362.858 991.299 362.936 991.789 363.819C992.317 364.77 993.683 364.77 994.211 363.819C994.701 362.936 995.942 362.858 996.539 363.673C997.181 364.549 998.537 364.378 998.941 363.369C999.317 362.432 1000.54 362.199 1001.23 362.932C1001.98 363.721 1003.3 363.382 1003.58 362.33C1003.83 361.353 1005.02 360.969 1005.8 361.609C1006.64 362.298 1007.91 361.795 1008.05 360.718C1008.18 359.716 1009.3 359.187 1010.16 359.725C1011.08 360.303 1012.28 359.645 1012.28 358.558C1012.28 357.548 1013.33 356.882 1014.25 357.308C1015.24 357.767 1016.34 356.964 1016.21 355.885C1016.09 354.882 1017.04 354.09 1018.01 354.398C1019.04 354.729 1020.04 353.794 1019.77 352.74C1019.52 351.761 1020.38 350.855 1021.37 351.04C1022.44 351.239 1023.31 350.186 1022.91 349.174C1022.54 348.233 1023.27 347.228 1024.28 347.287C1025.37 347.351 1026.1 346.197 1025.58 345.242C1025.1 344.355 1025.7 343.266 1026.7 343.198C1027.79 343.125 1028.37 341.889 1027.74 341.007C1027.15 340.187 1027.6 339.032 1028.59 338.838C1029.66 338.63 1030.08 337.331 1029.34 336.535C1028.65 335.796 1028.96 334.592 1029.92 334.276C1030.95 333.936 1031.21 332.594 1030.38 331.897C1029.6 331.25 1029.76 330.017 1030.67 329.583C1031.65 329.116 1031.74 327.752 1030.82 327.166C1029.97 326.621 1029.97 325.379 1030.82 324.834C1031.74 324.248 1031.65 322.884 1030.67 322.417C1029.76 321.983 1029.6 320.75 1030.38 320.103C1031.21 319.406 1030.95 318.064 1029.92 317.724C1028.96 317.408 1028.65 316.204 1029.34 315.465C1030.08 314.669 1029.66 313.37 1028.59 313.162C1027.6 312.968 1027.15 311.813 1027.74 310.993C1028.37 310.111 1027.79 308.875 1026.7 308.802C1025.7 308.734 1025.1 307.645 1025.58 306.758C1026.1 305.803 1025.37 304.649 1024.28 304.713C1023.27 304.772 1022.54 303.767 1022.91 302.826C1023.31 301.814 1022.44 300.761 1021.37 300.96C1020.38 301.145 1019.52 300.239 1019.77 299.26C1020.04 298.206 1019.04 297.271 1018.01 297.602C1017.04 297.91 1016.09 297.118 1016.21 296.115C1016.34 295.036 1015.24 294.233 1014.25 294.692C1013.33 295.118 1012.28 294.452 1012.28 293.442C1012.28 292.355 1011.08 291.697 1010.16 292.275C1009.3 292.813 1008.18 292.284 1008.05 291.282C1007.91 290.205 1006.64 289.702 1005.8 290.391C1005.02 291.031 1003.83 290.647 1003.58 289.67C1003.3 288.618 1001.98 288.279 1001.23 289.068C1000.54 289.801 999.317 289.568 998.941 288.631C998.537 287.622 997.181 287.451 996.539 288.327C995.942 289.142 994.701 289.064 994.211 288.181Z" fill="#3F89E4" stroke="white" stroke-width="2"/>
    <path d="M948.544 295.006C946.094 295.502 944.387 297.731 944.546 300.225L945.202 310.516C945.374 313.212 947.657 315.285 950.358 315.195L1035.82 312.364C1038.58 312.272 1040.74 309.961 1040.65 307.201L1040.36 298.511C1040.28 296.142 1038.55 294.153 1036.22 293.75L993.172 286.317C992.561 286.211 991.936 286.22 991.329 286.343L948.544 295.006Z" fill="#3F89E4" stroke="white" stroke-width="2"/>
    <path d="M1001.42 247.691C1001.25 245.055 999.066 243 996.425 243H988.575C985.934 243 983.748 245.055 983.585 247.691L981 289.5L983.585 331.309C983.748 333.945 985.934 336 988.575 336H996.425C999.066 336 1001.25 333.945 1001.42 331.309L1004 289.5L1001.42 247.691Z" fill="#3F89E4" stroke="white" stroke-width="2"/>
    <path d="M1017 333C1017 333.552 1016.55 334 1016 334C1015.45 334 1015 333.552 1015 333C1015 332.448 1015.45 332 1016 332C1016.55 332 1017 332.448 1017 333Z" fill="white"/>
    <path d="M1008 342C1008 342.552 1007.55 343 1007 343C1006.45 343 1006 342.552 1006 342C1006 341.448 1006.45 341 1007 341C1007.55 341 1008 341.448 1008 342Z" fill="white"/>
    <path d="M998 339C998 339.552 997.552 340 997 340C996.448 340 996 339.552 996 339C996 338.448 996.448 338 997 338C997.552 338 998 338.448 998 339Z" fill="white"/>
    <path d="M978 346C978 346.552 977.552 347 977 347C976.448 347 976 346.552 976 346C976 345.448 976.448 345 977 345C977.552 345 978 345.448 978 346Z" fill="white"/>
    <path d="M967 332C967 332.552 966.552 333 966 333C965.448 333 965 332.552 965 332C965 331.448 965.448 331 966 331C966.552 331 967 331.448 967 332Z" fill="white"/>
    <path d="M976 326C976 326.552 975.552 327 975 327C974.448 327 974 326.552 974 326C974 325.448 974.448 325 975 325C975.552 325 976 325.448 976 326Z" fill="white"/>
    <path d="M995 350C995 350.552 994.552 351 994 351C993.448 351 993 350.552 993 350C993 349.448 993.448 349 994 349C994.552 349 995 349.448 995 350Z" fill="white"/>
    <path d="M982 354C982 354.552 981.552 355 981 355C980.448 355 980 354.552 980 354C980 353.448 980.448 353 981 353C981.552 353 982 353.448 982 354Z" fill="white"/>
    <path d="M967 319C967 319.552 966.552 320 966 320C965.448 320 965 319.552 965 319C965 318.448 965.448 318 966 318C966.552 318 967 318.448 967 319Z" fill="white"/>
    <path d="M1024 324C1024 324.552 1023.55 325 1023 325C1022.45 325 1022 324.552 1022 324C1022 323.448 1022.45 323 1023 323C1023.55 323 1024 323.448 1024 324Z" fill="white"/>
    <path d="M1012 324C1012 324.552 1011.55 325 1011 325C1010.45 325 1010 324.552 1010 324C1010 323.448 1010.45 323 1011 323C1011.55 323 1012 323.448 1012 324Z" fill="white"/>
    <path d="M1003 357C1003 357.552 1002.55 358 1002 358C1001.45 358 1001 357.552 1001 357C1001 356.448 1001.45 356 1002 356C1002.55 356 1003 356.448 1003 357Z" fill="white"/>
    <path d="M1015 348C1015 348.552 1014.55 349 1014 349C1013.45 349 1013 348.552 1013 348C1013 347.448 1013.45 347 1014 347C1014.55 347 1015 347.448 1015 348Z" fill="white"/>
    <path d="M977 339C977 339.552 976.552 340 976 340C975.448 340 975 339.552 975 339C975 338.448 975.448 338 976 338C976.552 338 977 338.448 977 339Z" fill="white"/>
    <path d="M969.303 261.722L917.542 278.169C916.982 278.347 916.39 278.006 916.263 277.433L914.72 270.49C914.599 269.946 914.947 269.407 915.493 269.294L968.797 258.249C969.418 258.121 970 258.595 970 259.228V260.768C970 261.204 969.718 261.59 969.303 261.722Z" fill="#3F89E4" stroke="white" stroke-width="2"/>
    <path d="M969.184 236.653L917.45 246.322C916.92 246.421 916.407 246.083 916.29 245.556L914.74 238.581C914.612 238.003 915.012 237.44 915.6 237.371L968.884 231.131C969.478 231.061 970 231.526 970 232.124V235.67C970 236.151 969.657 236.564 969.184 236.653Z" fill="#3F89E4" stroke="white" stroke-width="2"/>
    <path d="M917.232 232.615C917.03 230.011 914.858 228 912.246 228H908.754C906.142 228 903.97 230.011 903.768 232.615L902.03 255.115C902.01 255.371 902.01 255.629 902.03 255.885L903.768 278.385C903.97 280.989 906.142 283 908.754 283H912.246C914.858 283 917.03 280.989 917.232 278.385L918.97 255.885C918.99 255.629 918.99 255.371 918.97 255.115L917.232 232.615Z" fill="#3F89E4" stroke="white" stroke-width="2"/>
    <path fill-rule="evenodd" clip-rule="evenodd" d="M982.38 230.018C983.994 230.007 985.514 230.775 986.462 232.081L994.633 243.341C996.015 245.245 995.883 247.854 994.316 249.608L983.848 261.33C982.899 262.393 981.543 263 980.119 263L961 263C958.239 263 956 260.761 956 258L956 235.17C956 232.422 958.217 230.189 960.965 230.17L982.38 230.018ZM970 252C972.761 252 975 249.761 975 247C975 244.239 972.761 242 970 242C967.239 242 965 244.239 965 247C965 249.761 967.239 252 970 252Z" fill="#3F89E4"/>
    <path d="M986.462 232.081L985.653 232.669V232.669L986.462 232.081ZM982.38 230.018L982.387 231.018L982.38 230.018ZM994.633 243.341L993.824 243.928L993.824 243.928L994.633 243.341ZM994.316 249.608L995.062 250.274L994.316 249.608ZM983.848 261.33L984.594 261.996L983.848 261.33ZM980.119 263V264V263ZM961 263V262V263ZM956 258H955H956ZM956 235.17H957H956ZM960.965 230.17L960.958 229.17L960.965 230.17ZM987.272 231.494C986.134 229.927 984.31 229.005 982.373 229.018L982.387 231.018C983.679 231.009 984.895 231.624 985.653 232.669L987.272 231.494ZM995.443 242.754L987.272 231.494L985.653 232.669L993.824 243.928L995.443 242.754ZM995.062 250.274C996.942 248.169 997.1 245.038 995.443 242.754L993.824 243.928C994.929 245.451 994.823 247.539 993.57 248.942L995.062 250.274ZM984.594 261.996L995.062 250.274L993.57 248.942L983.102 260.664L984.594 261.996ZM980.119 264C981.828 264 983.456 263.271 984.594 261.996L983.102 260.664C982.343 261.514 981.258 262 980.119 262V264ZM961 264L980.119 264V262L961 262V264ZM955 258C955 261.314 957.686 264 961 264V262C958.791 262 957 260.209 957 258H955ZM955 235.17L955 258H957L957 235.17L955 235.17ZM960.958 229.17C957.66 229.193 955 231.873 955 235.17L957 235.17C957 232.972 958.774 231.185 960.972 231.17L960.958 229.17ZM982.373 229.018L960.958 229.17L960.972 231.17L982.387 231.018L982.373 229.018ZM974 247C974 249.209 972.209 251 970 251V253C973.314 253 976 250.314 976 247H974ZM970 243C972.209 243 974 244.791 974 247H976C976 243.686 973.314 241 970 241V243ZM966 247C966 244.791 967.791 243 970 243V241C966.686 241 964 243.686 964 247H966ZM970 251C967.791 251 966 249.209 966 247H964C964 250.314 966.686 253 970 253V251Z" fill="white"/>
    <path d="M969.303 261.722L917.542 278.169C916.982 278.347 916.39 278.006 916.263 277.433L914.72 270.49C914.599 269.946 914.947 269.407 915.493 269.294L968.797 258.249C969.418 258.121 970 258.595 970 259.228V260.768C970 261.204 969.718 261.59 969.303 261.722Z" fill="#3F89E4" stroke="white" stroke-width="2"/>
    <path d="M969.184 236.653L917.45 246.322C916.92 246.421 916.407 246.083 916.29 245.556L914.74 238.581C914.612 238.003 915.012 237.44 915.6 237.371L968.884 231.131C969.478 231.061 970 231.526 970 232.124V235.67C970 236.151 969.657 236.564 969.184 236.653Z" fill="#3F89E4" stroke="white" stroke-width="2"/>
    <path d="M917.232 232.615C917.03 230.011 914.858 228 912.246 228H908.754C906.142 228 903.97 230.011 903.768 232.615L902.03 255.115C902.01 255.371 902.01 255.629 902.03 255.885L903.768 278.385C903.97 280.989 906.142 283 908.754 283H912.246C914.858 283 917.03 280.989 917.232 278.385L918.97 255.885C918.99 255.629 918.99 255.371 918.97 255.115L917.232 232.615Z" fill="#3F89E4" stroke="white" stroke-width="2"/>
    <path fill-rule="evenodd" clip-rule="evenodd" d="M982.38 230.018C983.994 230.007 985.514 230.775 986.462 232.081L994.633 243.341C996.015 245.245 995.883 247.854 994.316 249.608L983.848 261.33C982.899 262.393 981.543 263 980.119 263L961 263C958.239 263 956 260.761 956 258L956 235.17C956 232.422 958.217 230.189 960.965 230.17L982.38 230.018ZM970 252C972.761 252 975 249.761 975 247C975 244.239 972.761 242 970 242C967.239 242 965 244.239 965 247C965 249.761 967.239 252 970 252Z" fill="#3F89E4"/>
    <path d="M986.462 232.081L985.653 232.669V232.669L986.462 232.081ZM982.38 230.018L982.387 231.018L982.38 230.018ZM994.633 243.341L993.824 243.928L993.824 243.928L994.633 243.341ZM994.316 249.608L995.062 250.274L994.316 249.608ZM983.848 261.33L984.594 261.996L983.848 261.33ZM980.119 263V264V263ZM961 263V262V263ZM956 258H955H956ZM956 235.17H957H956ZM960.965 230.17L960.958 229.17L960.965 230.17ZM987.272 231.494C986.134 229.927 984.31 229.005 982.373 229.018L982.387 231.018C983.679 231.009 984.895 231.624 985.653 232.669L987.272 231.494ZM995.443 242.754L987.272 231.494L985.653 232.669L993.824 243.928L995.443 242.754ZM995.062 250.274C996.942 248.169 997.1 245.038 995.443 242.754L993.824 243.928C994.929 245.451 994.823 247.539 993.57 248.942L995.062 250.274ZM984.594 261.996L995.062 250.274L993.57 248.942L983.102 260.664L984.594 261.996ZM980.119 264C981.828 264 983.456 263.271 984.594 261.996L983.102 260.664C982.343 261.514 981.258 262 980.119 262V264ZM961 264L980.119 264V262L961 262V264ZM955 258C955 261.314 957.686 264 961 264V262C958.791 262 957 260.209 957 258H955ZM955 235.17L955 258H957L957 235.17L955 235.17ZM960.958 229.17C957.66 229.193 955 231.873 955 235.17L957 235.17C957 232.972 958.774 231.185 960.972 231.17L960.958 229.17ZM982.373 229.018L960.958 229.17L960.972 231.17L982.387 231.018L982.373 229.018ZM974 247C974 249.209 972.209 251 970 251V253C973.314 253 976 250.314 976 247H974ZM970 243C972.209 243 974 244.791 974 247H976C976 243.686 973.314 241 970 241V243ZM966 247C966 244.791 967.791 243 970 243V241C966.686 241 964 243.686 964 247H966ZM970 251C967.791 251 966 249.209 966 247H964C964 250.314 966.686 253 970 253V251Z" fill="white"/>
</g>
<g data-importantElem="true" data-option="Отвал коммунальный (необходима навеска)" class="hide">
    <path d="M985.01 247.798C984.987 247.277 985.368 246.826 985.886 246.762L994.722 245.664C995.332 245.589 995.866 246.077 995.844 246.692L994.116 295.965C994.113 296.071 994.126 296.177 994.155 296.278L1007.89 343.631C1008.06 344.222 1007.66 344.826 1007.05 344.902L998.214 345.999C997.696 346.064 997.217 345.72 997.111 345.209L987.18 297.066C987.17 297.014 987.163 296.961 987.161 296.908L985.01 247.798Z" fill="#3F89E4" stroke="white" stroke-width="2"/>
    <path d="M1002.58 361.219L998.373 345.756C998.252 345.311 998.451 344.841 998.855 344.618L1001.59 343.11C1002.21 342.768 1002.98 343.16 1003.06 343.862L1005.16 360.755C1005.23 361.303 1004.84 361.803 1004.29 361.871L1003.67 361.949C1003.17 362.01 1002.71 361.699 1002.58 361.219Z" fill="#3F89E4" stroke="white" stroke-width="2"/>
</g>
<g data-importantElem="true" data-option="Отвал «бабочка» (необходима навеска)" class="hide">
    <path fill-rule="evenodd" clip-rule="evenodd" d="M981.192 262.042C979.586 262.038 978.076 262.805 977.133 264.105L968.953 275.376C967.572 277.28 967.704 279.889 969.27 281.643L979.738 293.366C980.687 294.428 982.044 295.035 983.468 295.035L1057.59 295.035C1060.35 295.035 1062.59 292.797 1062.59 290.035L1062.59 267.228C1062.59 264.471 1060.36 262.235 1057.6 262.228L981.192 262.042ZM983.586 284.035C980.825 284.035 978.586 281.797 978.586 279.035C978.586 276.274 980.825 274.035 983.586 274.035C986.348 274.035 988.586 276.274 988.586 279.035C988.586 281.797 986.348 284.035 983.586 284.035Z" fill="#3F89E4"/>
    <path d="M977.133 264.105L977.942 264.692L977.133 264.105ZM981.192 262.042L981.189 263.042L981.192 262.042ZM968.953 275.376L968.144 274.789L968.953 275.376ZM969.27 281.643L970.016 280.977L969.27 281.643ZM979.738 293.366L980.484 292.7V292.7L979.738 293.366ZM983.468 295.035V296.035V295.035ZM1057.59 295.035V294.035V295.035ZM1062.59 290.035H1063.59H1062.59ZM1062.59 267.228H1061.59H1062.59ZM1057.6 262.228L1057.6 263.228L1057.6 262.228ZM976.323 263.518C977.455 261.958 979.267 261.037 981.194 261.042L981.189 263.042C979.904 263.038 978.696 263.652 977.942 264.692L976.323 263.518ZM968.144 274.789L976.323 263.518L977.942 264.692L969.762 275.964L968.144 274.789ZM968.525 282.309C966.645 280.204 966.486 277.073 968.144 274.789L969.762 275.964C968.657 277.487 968.763 279.574 970.016 280.977L968.525 282.309ZM978.992 294.032L968.525 282.309L970.016 280.977L980.484 292.7L978.992 294.032ZM983.468 296.035C981.759 296.035 980.131 295.306 978.992 294.032L980.484 292.7C981.243 293.549 982.328 294.035 983.468 294.035V296.035ZM1057.59 296.035L983.468 296.035V294.035L1057.59 294.035V296.035ZM1063.59 290.035C1063.59 293.349 1060.9 296.035 1057.59 296.035V294.035C1059.8 294.035 1061.59 292.244 1061.59 290.035H1063.59ZM1063.59 267.228L1063.59 290.035H1061.59L1061.59 267.228H1063.59ZM1057.6 261.228C1060.91 261.236 1063.59 263.92 1063.59 267.228H1061.59C1061.59 265.023 1059.8 263.233 1057.6 263.228L1057.6 261.228ZM981.194 261.042L1057.6 261.228L1057.6 263.228L981.189 263.042L981.194 261.042ZM979.586 279.035C979.586 281.244 981.377 283.035 983.586 283.035V285.035C980.273 285.035 977.586 282.349 977.586 279.035H979.586ZM983.586 275.035C981.377 275.035 979.586 276.826 979.586 279.035H977.586C977.586 275.722 980.273 273.035 983.586 273.035V275.035ZM987.586 279.035C987.586 276.826 985.796 275.035 983.586 275.035V273.035C986.9 273.035 989.586 275.722 989.586 279.035H987.586ZM983.586 283.035C985.796 283.035 987.586 281.244 987.586 279.035H989.586C989.586 282.349 986.9 285.035 983.586 285.035V283.035Z" fill="white"/>
    <path d="M1081.16 320.391L1073.27 322.527L1086.91 341.625L1094.73 340.543L1081.16 320.391Z" fill="#3F89E4" stroke="white" stroke-width="2"/>
    <path d="M1074 332.535L1087.5 336.535C1079.67 324.702 1066.46 296.063 1069 275.035C1072.5 246.035 1083 217.352 1128.5 197.035C1088 195.535 1057.5 242.535 1056.5 275.035C1055.7 301.035 1067.83 324.202 1074 332.535Z" fill="#3F89E4" stroke="white" stroke-width="2"/>
    <path fill-rule="evenodd" clip-rule="evenodd" d="M963.906 255.036L977.139 265.462C978.02 266.157 979.11 266.535 980.233 266.535H1008.15C1012.04 266.535 1014.44 262.293 1012.44 258.959C1003.86 244.704 991.336 223.874 987 216.535C982.052 208.161 975.201 210.593 971.965 213.146C971.648 213.396 971.319 213.63 970.962 213.818L964.671 217.129C963.029 217.994 962 219.697 962 221.554V251.109C962 252.641 962.702 254.088 963.906 255.036ZM974 248.535C974 250.468 972.433 252.035 970.5 252.035C968.567 252.035 967 250.468 967 248.535C967 246.602 968.567 245.035 970.5 245.035C972.433 245.035 974 246.602 974 248.535ZM1000.5 261.035C1002.43 261.035 1004 259.468 1004 257.535C1004 255.602 1002.43 254.035 1000.5 254.035C998.567 254.035 997 255.602 997 257.535C997 259.468 998.567 261.035 1000.5 261.035Z" fill="#3F89E4"/>
    <path d="M977.139 265.462L976.52 266.248L976.52 266.248L977.139 265.462ZM963.906 255.036L964.525 254.251H964.525L963.906 255.036ZM1012.44 258.959L1011.58 259.475L1012.44 258.959ZM987 216.535L987.861 216.026L987 216.535ZM971.965 213.146L972.584 213.931L972.584 213.931L971.965 213.146ZM970.962 213.818L970.496 212.933L970.496 212.933L970.962 213.818ZM964.671 217.129L965.137 218.014L965.137 218.014L964.671 217.129ZM977.758 264.677L964.525 254.251L963.287 255.822L976.52 266.248L977.758 264.677ZM980.233 265.535C979.335 265.535 978.463 265.233 977.758 264.677L976.52 266.248C977.578 267.082 978.886 267.535 980.233 267.535V265.535ZM1008.15 265.535H980.233V267.535H1008.15V265.535ZM1011.58 259.475C1013.19 262.14 1011.26 265.535 1008.15 265.535V267.535C1012.82 267.535 1015.7 262.445 1013.29 258.444L1011.58 259.475ZM986.139 217.044C990.478 224.387 1003 245.221 1011.58 259.475L1013.29 258.444C1004.71 244.186 992.195 223.36 987.861 216.026L986.139 217.044ZM972.584 213.931C974.085 212.748 976.377 211.636 978.797 211.742C981.137 211.844 983.805 213.094 986.139 217.044L987.861 216.026C985.246 211.602 982.015 209.881 978.884 209.744C975.833 209.61 973.082 210.991 971.346 212.361L972.584 213.931ZM971.427 214.703C971.861 214.475 972.244 214.2 972.584 213.931L971.346 212.361C971.051 212.593 970.777 212.785 970.496 212.933L971.427 214.703ZM965.137 218.014L971.427 214.703L970.496 212.933L964.206 216.244L965.137 218.014ZM963 221.554C963 220.069 963.823 218.706 965.137 218.014L964.206 216.244C962.234 217.282 961 219.326 961 221.554H963ZM963 251.109V221.554H961V251.109H963ZM964.525 254.251C963.562 253.492 963 252.335 963 251.109H961C961 252.947 961.843 254.684 963.287 255.822L964.525 254.251ZM970.5 253.035C972.985 253.035 975 251.02 975 248.535H973C973 249.916 971.881 251.035 970.5 251.035V253.035ZM966 248.535C966 251.02 968.015 253.035 970.5 253.035V251.035C969.119 251.035 968 249.916 968 248.535H966ZM970.5 244.035C968.015 244.035 966 246.05 966 248.535H968C968 247.154 969.119 246.035 970.5 246.035V244.035ZM975 248.535C975 246.05 972.985 244.035 970.5 244.035V246.035C971.881 246.035 973 247.154 973 248.535H975ZM1003 257.535C1003 258.916 1001.88 260.035 1000.5 260.035V262.035C1002.99 262.035 1005 260.02 1005 257.535H1003ZM1000.5 255.035C1001.88 255.035 1003 256.154 1003 257.535H1005C1005 255.05 1002.99 253.035 1000.5 253.035V255.035ZM998 257.535C998 256.154 999.119 255.035 1000.5 255.035V253.035C998.015 253.035 996 255.05 996 257.535H998ZM1000.5 260.035C999.119 260.035 998 258.916 998 257.535H996C996 260.02 998.015 262.035 1000.5 262.035V260.035Z" fill="white"/>
</g>
<g data-importantElem="true" data-option="Агрегат фронтальной мойки (АФМ)" class="hide">
    <path d="M1012 262C1024.67 260 1048.6 261.4 1043 283C1037.4 304.6 1006.67 292 992 283" stroke="white" stroke-width="2"/>
    <path d="M1023 269C1023.67 274.333 1022 286 1010 290C995 295 999 313 1029 319" stroke="white" stroke-width="2"/>
    <circle cx="1094.5" cy="337.5" r="4.5" fill="#3F89E4" stroke="white" stroke-width="2"/>
    <rect x="1083" y="341" width="1" height="4" fill="white"/>
    <rect x="1087" y="340.5" width="1" height="4" fill="white"/>
    <rect x="1091" y="340" width="1" height="4" fill="white"/>
    <path d="M1082.26 334H1090.57C1092.13 334 1093.54 334.953 1094.12 336.406C1095.06 338.764 1093.49 341.369 1090.97 341.635L1082.71 342.504C1080.19 342.769 1078 340.795 1078 338.264C1078 335.909 1079.91 334 1082.26 334Z" fill="#3F89E4" stroke="white" stroke-width="2"/>
    <circle cx="1078.5" cy="338.5" r="5.5" fill="#3F89E4" stroke="white" stroke-width="2"/>
    <path d="M989 268.734V317C989 319.761 991.239 322 994 322H1002C1002.42 322.314 1002.94 322.5 1003.5 322.5H1079C1081.76 322.5 1084 324.739 1084 327.5V332.25C1084 333.769 1085.23 335 1086.75 335C1088.27 335 1089.5 333.769 1089.5 332.25V322.5C1089.5 319.739 1087.26 317.5 1084.5 317.5H1075.28C1075.1 317.453 1074.91 317.429 1074.71 317.429H999.469C996.708 317.429 994.469 315.19 994.469 312.429V268.734C994.469 267.224 993.245 266 991.734 266C990.224 266 989 267.224 989 268.734Z" fill="#3F89E4" stroke="white" stroke-width="2"/>
    <rect x="977" y="237" width="53" height="33" rx="5" fill="#3F89E4" stroke="white" stroke-width="2"/>
    <path d="M979.232 234.615C979.03 232.011 976.858 230 974.246 230H970.754C968.142 230 965.97 232.011 965.768 234.615L964.03 257.115C964.01 257.371 964.01 257.629 964.03 257.885L965.768 280.385C965.97 282.989 968.142 285 970.754 285H974.246C976.858 285 979.03 282.989 979.232 280.385L980.97 257.885C980.99 257.629 980.99 257.371 980.97 257.115L979.232 234.615Z" fill="#3F89E4" stroke="white" stroke-width="2"/>
    <path d="M1016 217.5C1016 229.926 1005.93 240 993.5 240C981.074 240 971 229.926 971 217.5C971 205.074 981.074 195 993.5 195C1005.93 195 1016 205.074 1016 217.5Z" fill="#3F89E4" stroke="white" stroke-width="2"/>
    <path d="M1013 217.5C1013 228.27 1004.27 237 993.5 237C982.73 237 974 228.27 974 217.5C974 206.73 982.73 198 993.5 198C1004.27 198 1013 206.73 1013 217.5Z" fill="#3F89E4" stroke="white"/>
    <path d="M1011 217.5C1011 227.165 1003.16 235 993.5 235C983.835 235 976 227.165 976 217.5C976 207.835 983.835 200 993.5 200C1003.16 200 1011 207.835 1011 217.5Z" fill="#3F89E4" stroke="white"/>
    <path d="M1009 217.5C1009 226.06 1002.06 233 993.5 233C984.94 233 978 226.06 978 217.5C978 208.94 984.94 202 993.5 202C1002.06 202 1009 208.94 1009 217.5Z" fill="#3F89E4" stroke="white"/>
    <path d="M1007 217.5C1007 224.956 1000.96 231 993.5 231C986.044 231 980 224.956 980 217.5C980 210.044 986.044 204 993.5 204C1000.96 204 1007 210.044 1007 217.5Z" fill="#3F89E4" stroke="white"/>
    <path d="M1005 217.5C1005 223.851 999.851 229 993.5 229C987.149 229 982 223.851 982 217.5C982 211.149 987.149 206 993.5 206C999.851 206 1005 211.149 1005 217.5Z" fill="#3F89E4" stroke="white"/>
</g>
<g data-importantElem="true" data-option="Шнекороторное снегоуборочное оборудование" class="hide">
    <path d="M941.906 116.903C941.959 115.285 943.286 114 944.905 114H981.095C982.714 114 984.041 115.285 984.094 116.903L987.9 234.903C987.955 236.597 986.596 238 984.902 238H941.098C939.404 238 938.045 236.597 938.1 234.903L941.906 116.903Z" fill="#3F89E4" stroke="white" stroke-width="2"/>
    <path d="M949.202 140.308C949.36 141.838 950.649 143 952.186 143H972.814C974.351 143 975.64 141.838 975.798 140.308L977.658 122.308C977.841 120.539 976.453 119 974.674 119H950.326C948.547 119 947.159 120.539 947.342 122.308L949.202 140.308Z" fill="#3F89E4" stroke="white" stroke-width="2"/>
    <path d="M931.537 284.291L907.327 268.863C906.703 268.465 905.878 268.86 905.796 269.596L905.083 276.035C905.034 276.477 905.282 276.898 905.693 277.068L930.616 287.425C931.275 287.699 932 287.215 932 286.502V285.134C932 284.792 931.826 284.474 931.537 284.291Z" fill="#3F89E4" stroke="white" stroke-width="2"/>
    <path d="M931.349 235.565L907.173 244.554C906.563 244.78 905.903 244.374 905.831 243.727L905.099 237.174C905.042 236.67 905.372 236.204 905.866 236.089L930.773 230.286C931.4 230.14 932 230.616 932 231.26V234.628C932 235.045 931.74 235.419 931.349 235.565Z" fill="#3F89E4" stroke="white" stroke-width="2"/>
    <path d="M917.232 232.615C917.03 230.011 914.858 228 912.246 228H908.754C906.142 228 903.97 230.011 903.768 232.615L902.03 255.115C902.01 255.371 902.01 255.629 902.03 255.885L903.768 278.385C903.97 280.989 906.142 283 908.754 283H912.246C914.858 283 917.03 280.989 917.232 278.385L918.97 255.885C918.99 255.629 918.99 255.371 918.97 255.115L917.232 232.615Z" fill="#3F89E4" stroke="white" stroke-width="2"/>
    <path fill-rule="evenodd" clip-rule="evenodd" d="M957.042 228.027C960.795 227.993 963.246 231.952 961.542 235.296L950.993 256.002C950.298 257.366 950.267 258.974 950.908 260.365L960.376 280.907C961.903 284.22 959.483 288 955.835 288H929C926.239 288 924 285.761 924 283V233.28C924 230.536 926.211 228.305 928.955 228.28L957.042 228.027ZM936.283 245.072C934.075 245.03 932.123 246.496 931.548 248.628L929.391 256.631C929.136 257.577 929.164 258.576 929.473 259.506L932.267 267.93C932.875 269.763 934.589 271 936.52 271C938.994 271 941 268.994 941 266.52V249.879C941 247.259 938.902 245.122 936.283 245.072Z" fill="#3F89E4"/>
    <path d="M961.542 235.296L962.433 235.75V235.75L961.542 235.296ZM957.042 228.027L957.051 229.027L957.042 228.027ZM950.993 256.002L950.102 255.548L950.993 256.002ZM950.908 260.365L951.816 259.946L950.908 260.365ZM960.376 280.907L959.468 281.325L960.376 280.907ZM928.955 228.28L928.964 229.28L928.955 228.28ZM931.548 248.628L930.583 248.368V248.368L931.548 248.628ZM936.283 245.072L936.264 246.071L936.283 245.072ZM929.391 256.631L930.356 256.891L929.391 256.631ZM929.473 259.506L930.422 259.191L929.473 259.506ZM932.267 267.93L931.318 268.245L932.267 267.93ZM962.433 235.75C964.478 231.737 961.537 226.986 957.033 227.027L957.051 229.027C960.054 228.999 962.014 232.167 960.651 234.842L962.433 235.75ZM951.884 256.456L962.433 235.75L960.651 234.842L950.102 255.548L951.884 256.456ZM951.816 259.946C951.303 258.833 951.328 257.547 951.884 256.456L950.102 255.548C949.268 257.185 949.23 259.114 949.999 260.783L951.816 259.946ZM961.284 280.488L951.816 259.946L949.999 260.783L959.468 281.325L961.284 280.488ZM955.835 289C960.213 289 963.117 284.464 961.284 280.488L959.468 281.325C960.689 283.976 958.753 287 955.835 287V289ZM929 289H955.835V287H929V289ZM923 283C923 286.313 925.686 289 929 289V287C926.791 287 925 285.209 925 283H923ZM923 233.28V283H925V233.28H923ZM928.946 227.28C925.653 227.31 923 229.988 923 233.28H925C925 231.085 926.769 229.3 928.964 229.28L928.946 227.28ZM957.033 227.027L928.946 227.28L928.964 229.28L957.051 229.027L957.033 227.027ZM932.514 248.888C932.969 247.2 934.515 246.038 936.264 246.071L936.302 244.072C933.635 244.021 931.277 245.792 930.583 248.368L932.514 248.888ZM930.356 256.891L932.514 248.888L930.583 248.368L928.425 256.37L930.356 256.891ZM930.422 259.191C930.175 258.448 930.152 257.648 930.356 256.891L928.425 256.37C928.119 257.505 928.154 258.705 928.524 259.821L930.422 259.191ZM933.217 267.616L930.422 259.191L928.524 259.821L931.318 268.245L933.217 267.616ZM936.52 270C935.02 270 933.689 269.039 933.217 267.616L931.318 268.245C932.062 270.487 934.158 272 936.52 272V270ZM940 266.52C940 268.442 938.442 270 936.52 270V272C939.546 272 942 269.546 942 266.52H940ZM940 249.879V266.52H942V249.879H940ZM936.264 246.071C938.339 246.111 940 247.804 940 249.879H942C942 246.715 939.466 244.132 936.302 244.072L936.264 246.071Z" fill="white"/>
    <ellipse cx="1003" cy="324.5" rx="27" ry="26.5" fill="#3F89E4" stroke="white" stroke-width="2"/>
    <circle cx="1006.5" cy="336.5" r="26.5" fill="#3F89E4" stroke="white" stroke-width="2"/>
    <path d="M958 360V234C958 232.343 959.343 231 961 231H979.224C979.822 231 980.405 231.178 980.901 231.512L1017.68 256.288C1018.5 256.845 1019 257.778 1019 258.776V360C1019 361.657 1017.66 363 1016 363H961C959.343 363 958 361.657 958 360Z" fill="#3F89E4" stroke="white" stroke-width="2"/>
</g>
</svg>
