<svg width="51" height="40" viewBox="0 0 51 40" xmlns="http://www.w3.org/2000/svg">
<path opacity="0.7" d="M31.7199 34.4044H50.9993V39.8055H24.8711V0.875H31.7199V34.4044Z" />
<path d="M22.6037 29.4385C22.6037 27.7273 21.9901 26.4082 20.7629 25.4813C19.5538 24.5544 17.3611 23.6185 14.1848 22.6738C11.0086 21.7291 8.48202 20.6774 6.60515 19.5187C3.01383 17.2906 1.21816 14.385 1.21816 10.8021C1.21816 7.66488 2.50851 5.08021 5.08921 3.04813C7.68796 1.01604 11.0537 0 15.1864 0C17.9296 0 20.3749 0.499109 22.5225 1.49733C24.6701 2.49554 26.3574 3.92157 27.5846 5.7754C28.8118 7.61141 29.4254 9.65241 29.4254 11.8984H22.6037C22.6037 9.86631 21.954 8.27986 20.6546 7.13904C19.3733 5.98039 17.5325 5.40107 15.1323 5.40107C12.8945 5.40107 11.153 5.87344 9.90773 6.81818C8.68054 7.76292 8.06695 9.082 8.06695 10.7754C8.06695 12.2014 8.73468 13.3957 10.0701 14.3583C11.4056 15.303 13.6073 16.2299 16.6753 17.139C19.7433 18.0303 22.2067 19.0553 24.0655 20.2139C25.9243 21.3547 27.2869 22.6738 28.1531 24.1711C29.0194 25.6506 29.4525 27.3886 29.4525 29.385C29.4525 32.6292 28.1892 35.2139 25.6626 37.139C23.1541 39.0463 19.7433 40 15.4301 40C12.5787 40 9.95284 39.4831 7.55261 38.4492C5.17043 37.3975 3.3116 35.9537 1.97613 34.1176C0.65871 32.2816 0 30.1426 0 27.7005H6.84878C6.84878 29.9109 7.5887 31.6221 9.06855 32.8342C10.5484 34.0463 12.6689 34.6524 15.4301 34.6524C17.8123 34.6524 19.5989 34.18 20.79 33.2353C21.9991 32.2727 22.6037 31.0071 22.6037 29.4385Z"/>
</svg>
