<svg class="uazCar" width="1092" height="426" viewBox="0 0 1092 426" fill="none" xmlns="http://www.w3.org/2000/svg">
<g data-option="Емкость для воды 2,0 куб. м." class="hide">
    <rect x="108" y="92" width="488" height="197" fill="#3F89E4" stroke="white" stroke-width="2"/>
    <rect x="93" y="66" width="492" height="211" rx="33" fill="#3F89E4" stroke="white" stroke-width="2"/>
    <path d="M150.7 66L154.588 59H255.412L259.3 66H150.7Z" fill="#3F89E4" stroke="white" stroke-width="2"/>
    <path fill-rule="evenodd" clip-rule="evenodd" d="M73 247C73 246.448 73.4477 246 74 246H591C591.552 246 592 246.448 592 247V252C592 252.552 591.552 253 591 253H536C535.448 253 535 253.448 535 254V283C535 283.552 534.552 284 534 284H529C528.448 284 528 283.552 528 283V254C528 253.448 527.552 253 527 253H116C115.448 253 115 253.448 115 254V283C115 283.552 114.552 284 114 284H109C108.448 284 108 283.552 108 283V254C108 253.448 107.552 253 107 253H74C73.4477 253 73 252.552 73 252V247Z" fill="#3F89E4"/>
    <path d="M591 245H74V247H591V245ZM593 252V247H591V252H593ZM536 254H591V252H536V254ZM534 254V283H536V254H534ZM534 283H529V285H534V283ZM529 283V254H527V283H529ZM116 254H527V252H116V254ZM116 283V254H114V283H116ZM109 285H114V283H109V285ZM107 254V283H109V254H107ZM74 254H107V252H74V254ZM72 247V252H74V247H72ZM74 252H72C72 253.105 72.8954 254 74 254V252ZM109 254C109 252.895 108.105 252 107 252V254H109ZM109 283H107C107 284.105 107.895 285 109 285V283ZM114 283V285C115.105 285 116 284.105 116 283H114ZM116 252C114.895 252 114 252.895 114 254H116V254V252ZM529 254C529 252.895 528.105 252 527 252V254V254H529ZM529 283H527C527 284.105 527.895 285 529 285V283ZM534 283V285C535.105 285 536 284.105 536 283H534ZM536 252C534.895 252 534 252.895 534 254H536V252ZM591 252V254C592.105 254 593 253.105 593 252H591ZM74 245C72.8954 245 72 245.895 72 247H74H74V245ZM591 247V247H593C593 245.895 592.105 245 591 245V247Z" fill="white"/>
</g>
<g data-option="Ледозаливочное оборудование «Умка»" class="hide">
<path d="M64 296L59.5 193.5L84.5 232.429V241L87 303L64 296Z" fill="#3F89E4"/>
<path d="M151 328.442L110.608 349.325L138.434 368.934C142.622 373.171 145.704 381.281 124.521 379.828C103.337 378.376 40.5953 373.171 11.8721 370.75C7.83293 369.418 0.0238183 365.23 1.10094 359.129C2.17806 353.029 2.74652 344.241 2.89611 340.609C2.74651 338.673 5.22987 335.017 16.3601 335.889C23.5035 336.448 41.8869 337.677 58.9961 339.085L105.978 318L151 328.442Z" fill="#3F89E4"/>
<path d="M564 276.5H211.5C157.167 246.167 46 184.2 36 179C26 173.8 29.1667 168.167 32 166L145 88L589 82.5V86V259.5L564 276.5Z" fill="#3F89E4"/>
<path d="M104 254.5C104 258.642 100.642 262 96.5 262C92.3579 262 89 258.642 89 254.5C89 250.358 92.3579 247 96.5 247C100.642 247 104 250.358 104 254.5Z" fill="#3F89E4"/>
<path d="M77 288H68.5V269L67.5 250H76L77 269V288Z" fill="#3F89E4"/>
<path d="M87 303L64 296L59.5 193.5L84.5 232.429M87 303L84.5 241V232.429M87 303L99 316M84.5 232.429L94.5 248M110.608 349.325L151 328.442L105.978 318L58.9961 339.085M110.608 349.325L138.434 368.934C142.622 373.171 145.704 381.281 124.521 379.828C103.337 378.376 40.5953 373.171 11.8721 370.75C7.83293 369.418 0.0238182 365.23 1.10094 359.129C2.17806 353.029 2.74652 344.241 2.89611 340.609C2.74651 338.673 5.22987 335.017 16.3601 335.889C23.5035 336.448 41.8869 337.677 58.9961 339.085M110.608 349.325C107.167 348.114 98.9392 345.185 93.5536 343.151C90.2781 341.915 75.2092 340.42 58.9961 339.085M589 86V259.5L564 276.5H211.5C157.167 246.167 46 184.2 36 179C26 173.8 29.1667 168.167 32 166L145 88L589 82.5V86ZM589 86H596M96 261.5L98.5 284M213 284L101.5 259.5L104 253L200 270M14 335.5L63.5 296.5M68.5 269L67.5 250H76L77 269M68.5 269V288H77V269M68.5 269H77M104 254.5C104 258.642 100.642 262 96.5 262C92.3579 262 89 258.642 89 254.5C89 250.358 92.3579 247 96.5 247C100.642 247 104 250.358 104 254.5Z" stroke="white" stroke-width="2"/>
<path d="M15.5 334.5L13.5 340L91 353L136 303H613.5V88L589.5 86L582 88L57 167.5L71.5 290L15.5 334.5Z" fill="#3F89E4"/>
<path d="M94.5 248L84.5 232.429M84.5 232.429L59.5 193.5L64 296L87 303L84.5 241V232.429Z" stroke="white" stroke-width="2"/>
<path d="M110.608 349.325L151 328.442L105.978 318L58.9961 339.085M110.608 349.325L138.434 368.934C142.622 373.171 145.704 381.281 124.521 379.828C103.337 378.376 40.5953 373.171 11.8721 370.75C7.83293 369.418 0.0238182 365.23 1.10094 359.129C2.17806 353.029 2.74652 344.241 2.89611 340.609C2.74651 338.673 5.22987 335.017 16.3601 335.889C23.5035 336.448 41.8869 337.677 58.9961 339.085M110.608 349.325C107.167 348.114 98.9392 345.185 93.5536 343.151C90.2781 341.915 75.2092 340.42 58.9961 339.085" stroke="white" stroke-width="2"/>
<path d="M589 86V259.5L564 276.5H211.5C157.167 246.167 46.0002 184.2 36.0002 179C26.0002 173.8 29.1669 168.167 32.0002 166L145 88L589 82.5V86ZM589 86H596" stroke="white" stroke-width="2"/>
<circle cx="96.5" cy="254.5" r="6.5" stroke="white" stroke-width="2"/>
<path d="M96 261.5L98.5 284" stroke="white" stroke-width="2"/>
<path d="M213 284L101.5 259.5L104 253L200 270" stroke="white" stroke-width="2"/>
<path d="M99 316L87 303" stroke="white" stroke-width="2"/>
<path d="M14 335.5L63.5 296.5" stroke="white" stroke-width="2"/>
<path d="M68.5 269L67.5 250H76L77 269M68.5 269V288H77V269M68.5 269H77" stroke="white" stroke-width="2"/>
</g>
<path d="M595.5 63.4998V344.5L596.5 351L601 353.5H613.5L616.5 351L618 346L619.5 333.5L626 315.5L639 298.5L657 283C680 272 702 274.5 717 279.5C732 284.5 746.5 297.5 753.5 304.5L759 314.5L763.5 327L768.5 342L772.5 343L829.5 323L833 324.5H837L856.5 317.5H866.5L873.5 314.5L877 305L875.5 293.5L872 291L862.5 290V258.5V207.5L859 196L848.5 180L837 167.5H833.5L830.5 160.5L826.5 157L783.5 75V69H790.5L789.5 63.5L786 58.5L776 53.5L764 49V15.5H761.5V47L739 43L716.5 40.5L687 39.4998V28H696V23.5L693.5 19.5L690.5 1H678L675 19.5H673.5L672 28H681V39.4998C668 39.9998 637.6 40.6998 620 39.4998C602.4 38.2998 596.333 54.9998 595.5 63.4998Z" fill="#3F89E4"/>
<path d="M758 41.5L760.5 49.5L767 51L768 47.5L768.5 41.5V37L767 30.5L764.5 28L759.5 29.5L757.5 35.5L758 41.5Z" fill="#3F89E4"/>
<path d="M759 344L776.5 340.5L788.5 335L747.5 269.5L656 266L610 301.5L617.5 340.5L627 347L759 344Z" fill="#3F89E4"/>
<path d="M277.5 331H595.5V284H99V316L161.5 331H277.5Z" fill="#3F89E4" stroke="white" stroke-width="2"/>
<path d="M596 341V63C596.333 55.1667 601.3 39.5 618.5 39.5C635.7 39.5 667 39.5 680.5 39.5M681.5 67V28H672L673.5 19.5H675L677.5 1H690.5L693 19.5H694.5L696.5 28H687V51H761.5V15.5H764V54.5H687V67" stroke="white" stroke-width="2"/>
<path d="M675.5 19.5H692" stroke="white" stroke-width="2"/>
<path d="M687.5 28H681" stroke="white" stroke-width="2"/>
<path d="M688 39.5C695.667 39.6667 713.7 40.2 724.5 41C735.3 41.8 753 45.3333 760.5 47" stroke="white" stroke-width="2"/>
<path d="M764.5 49C770.833 51.5 784.1 57 786.5 59C788.9 61 790.167 66.5 790.5 69H783.5V74.5L827 158L829.5 159L833.5 167H837C845.5 174.667 862.5 194 862.5 210C862.5 226 862.5 270 862.5 290M862.5 290H831.5C829.167 289.667 824.5 290.1 824.5 294.5C824.5 300 825 302 826 305C826.8 307.4 828 311 828.5 312.5H829.5M862.5 290C865 290 870.7 290.2 873.5 291C877 292 876.5 298.5 876.5 302.5C876.5 305.7 875.5 310.5 875 312.5H829.5M829.5 312.5C829.5 315 829.7 320.4 830.5 322C831.5 324 831.5 326 838.5 323.5C845.5 321 855.5 317.5 859 317.5C862.5 317.5 873.5 316 873.5 313.5" stroke="white" stroke-width="2"/>
<path d="M829.5 322.5L774 342.5C772 343.333 767.7 343.6 766.5 338C765 331 757.908 314.716 747 303C733.5 288.5 718.43 282.602 702 281C681.5 279 666.5 281 650 293.5C635.625 304.39 626.5 316 622 332C618.4 344.8 617.833 347.333 618 349.5C617.833 351 616.2 354 611 354C605.8 354 601.833 354 600.5 354C598.833 353.833 596 352.4 596 348C596 343.6 596 341.5 596 341" stroke="white" stroke-width="2"/>
<path d="M760 47C758 43.3333 755.3 34.5 760.5 28.5M764.5 27C767.167 30.3333 771.4 39.5 767 49.5" stroke="white" stroke-width="2"/>
<path d="M596.5 68H784.5" stroke="white" stroke-width="2"/>
<path d="M639.5 69V271H711C718.167 271 734.1 273.2 740.5 282C746.9 290.8 750.833 294 752 294.5H799.5V286M799.5 286H791V278H799.5M799.5 286H808V278H799.5M799.5 278L800 239C799.333 232.667 797.5 218.6 795.5 213C793.5 207.4 791 199 790 195.5M790 195.5H779.5V188H795.5V195.5H790ZM788 186C786.871 182.99 785.19 178.62 783.341 174M732 69C744.667 94.6667 770.9 147.6 774.5 154C776.745 157.992 780.275 166.341 783.341 174M596 174H783.341M783.341 174L832.5 166M828 159L797 165.5C793.394 166 785.413 165.2 782.341 158C779.268 150.8 754.833 102.667 743 79.5C741.833 77.3333 741.3 73 748.5 73C755.7 73 774.5 73 783 73" stroke="white" stroke-width="2"/>
<path d="M704.5 166.5C729.396 166.5 752.973 166.5 758.5 166.5C768.1 166.5 767.833 161.833 766.5 159.5C754.833 136.333 730.7 88.2998 727.5 81.4998C724.3 74.6998 719.5 73.3332 717.5 73.4998C713.857 73.4998 709.373 73.4998 704.5 73.4998M704.5 166.5C686.15 166.5 667.083 166.5 654 166.5C652.167 166.5 648.5 164.8 648.5 158V79.9998C648.5 77.8332 650.2 73.4998 657 73.4998C662.371 73.4998 686.186 73.4998 704.5 73.4998M704.5 166.5V73.4998M662 191H679.5M661.5 191C661.667 189.167 662.7 185.5 665.5 185.5C669 185.5 675 186 678 187C681 188 681.5 195.5 678 196C674.5 196.5 667 198 665.5 197.5C664 197 660.917 193.5 661.5 191Z" stroke="white" stroke-width="2"/>
<circle cx="693" cy="356" r="66" fill="#3F89E4"/>
<circle cx="693" cy="356" r="66" stroke="white" stroke-width="2"/>
<circle cx="693" cy="356" r="66" stroke="white" stroke-width="2"/>
<circle cx="693" cy="356" r="50.339" stroke="white" stroke-width="2"/>
<path d="M686.406 382.981C690.746 382.617 695.11 382.654 699.443 383.092C700.351 383.474 698.725 388.403 698.015 389.142C694.813 389.684 691.545 389.698 688.339 389.182C687.613 388.459 685.814 383.569 686.406 382.981" stroke="white" stroke-width="2"/>
<path d="M667.785 366.808C670.93 370.184 673.751 373.845 676.211 377.743C676.471 378.743 671.311 380.585 670.256 380.452C667.721 378.134 665.58 375.424 663.916 372.426C664.016 371.384 666.923 366.717 667.785 366.808" stroke="white" stroke-width="2"/>
<path d="M668.39 342.141C667.673 346.624 666.547 351.03 665.026 355.302C664.41 356.065 659.903 353.241 659.441 352.321C659.678 348.96 660.481 345.664 661.816 342.577C662.667 341.969 667.944 341.378 668.39 342.141" stroke="white" stroke-width="2"/>
<path d="M688.504 327.976C684.61 330.33 680.532 332.285 676.322 333.816C675.375 333.816 674.814 327.994 675.255 326.873C677.981 324.877 680.975 323.38 684.123 322.44C685.182 322.844 688.841 327.061 688.504 327.976" stroke="white" stroke-width="2"/>
<path d="M711.822 334.954C707.62 333.14 703.591 330.952 699.785 328.416C699.129 327.59 703.081 323.884 704.102 323.578C707.335 324.64 710.359 326.249 713.042 328.333C713.399 329.307 712.677 334.682 711.822 334.954" stroke="white" stroke-width="2"/>
<path d="M720.851 357.635C719.731 353.332 719.02 348.929 718.729 344.488C718.951 343.569 724.089 344.302 724.913 344.947C725.962 348.065 726.518 351.333 726.56 354.628C726.053 355.515 721.54 358.175 720.851 357.635" stroke="white" stroke-width="2"/>
<path d="M708.661 378.852C711.337 375.351 714.304 372.089 717.531 369.103C718.431 368.735 720.966 373.309 720.966 374.302C719.224 377.067 717.053 379.529 714.537 381.592C713.487 381.688 708.693 379.71 708.661 378.852" stroke="white" stroke-width="2"/>
<path d="M694.015 365.07C692.15 365.069 690.327 364.505 688.776 363.451C687.226 362.397 686.017 360.9 685.303 359.147C684.589 357.395 684.401 355.467 684.764 353.607C685.127 351.746 686.023 350.037 687.341 348.694C688.658 347.351 690.338 346.436 692.166 346.063C693.995 345.691 695.891 345.878 697.616 346.6C699.34 347.323 700.815 348.55 701.854 350.124C702.894 351.699 703.451 353.552 703.456 355.449C703.461 356.712 703.22 357.964 702.748 359.132C702.276 360.3 701.581 361.362 700.703 362.256C699.826 363.15 698.783 363.859 697.636 364.342C696.488 364.825 695.257 365.072 694.015 365.07" stroke="white" stroke-width="2"/>
<circle cx="219" cy="356" r="66" fill="#3F89E4"/>
<circle cx="219" cy="356" r="66" stroke="white" stroke-width="2"/>
<circle cx="219" cy="356" r="66" stroke="white" stroke-width="2"/>
<circle cx="219" cy="356" r="50.339" stroke="white" stroke-width="2"/>
<path d="M212.406 382.981C216.746 382.617 221.11 382.654 225.443 383.092C226.351 383.474 224.725 388.403 224.015 389.142C220.813 389.684 217.545 389.698 214.339 389.182C213.613 388.459 211.814 383.569 212.406 382.981" stroke="white" stroke-width="2"/>
<path d="M193.785 366.808C196.93 370.184 199.751 373.845 202.211 377.743C202.471 378.743 197.311 380.585 196.256 380.452C193.721 378.134 191.58 375.424 189.916 372.426C190.016 371.384 192.923 366.717 193.785 366.808" stroke="white" stroke-width="2"/>
<path d="M194.39 342.141C193.673 346.624 192.547 351.03 191.026 355.302C190.41 356.065 185.903 353.241 185.441 352.321C185.678 348.96 186.481 345.664 187.816 342.577C188.667 341.969 193.944 341.378 194.39 342.141" stroke="white" stroke-width="2"/>
<path d="M214.504 327.976C210.61 330.33 206.532 332.285 202.322 333.816C201.375 333.816 200.814 327.994 201.255 326.873C203.981 324.877 206.975 323.38 210.123 322.44C211.182 322.844 214.841 327.061 214.504 327.976" stroke="white" stroke-width="2"/>
<path d="M237.822 334.954C233.62 333.14 229.591 330.952 225.785 328.416C225.129 327.59 229.081 323.884 230.102 323.578C233.335 324.64 236.359 326.249 239.042 328.333C239.399 329.307 238.677 334.682 237.822 334.954" stroke="white" stroke-width="2"/>
<path d="M246.851 357.635C245.731 353.332 245.02 348.929 244.729 344.488C244.951 343.569 250.089 344.302 250.913 344.947C251.962 348.065 252.518 351.333 252.56 354.628C252.053 355.515 247.54 358.175 246.851 357.635" stroke="white" stroke-width="2"/>
<path d="M234.661 378.852C237.337 375.351 240.304 372.089 243.531 369.103C244.431 368.735 246.966 373.309 246.966 374.302C245.224 377.067 243.053 379.529 240.537 381.592C239.487 381.688 234.693 379.71 234.661 378.852" stroke="white" stroke-width="2"/>
<path d="M220.015 365.07C218.15 365.069 216.327 364.505 214.776 363.451C213.226 362.397 212.017 360.9 211.303 359.147C210.589 357.395 210.401 355.467 210.764 353.607C211.127 351.746 212.023 350.037 213.341 348.694C214.658 347.351 216.338 346.436 218.166 346.063C219.995 345.691 221.891 345.878 223.616 346.6C225.34 347.323 226.815 348.55 227.854 350.124C228.894 351.699 229.451 353.552 229.456 355.449C229.461 356.712 229.22 357.964 228.748 359.132C228.276 360.3 227.581 361.362 226.703 362.256C225.826 363.15 224.783 363.859 223.636 364.342C222.488 364.825 221.257 365.072 220.015 365.07" stroke="white" stroke-width="2"/>
<path d="M562.437 306H406.101C402.401 306 395 309.3 395 322.501C395 335.702 402.401 338.315 406.101 337.971H562.437C569.375 337.971 574 332.299 574 319.407C574 309.094 566.291 306.172 562.437 306Z" fill="#3F89E4" stroke="white" stroke-width="2"/>
<path d="M845 249.561V208.812C845 207.109 846.936 206.247 848.09 207.499C852.515 212.301 858 220.408 858 229C858 237.573 852.539 245.874 848.119 250.849C846.974 252.138 845 251.284 845 249.561Z" stroke="white" stroke-width="2"/>
<path d="M848.5 208.5V250" stroke="white" stroke-width="2"/>
<path d="M848.5 217C850.167 219.167 853.5 224.7 853.5 229.5C853.5 234.3 850.167 240.167 848.5 242.5" stroke="white" stroke-width="2"/>
<path d="M768 168C768 169.657 769.343 171 771 171C772.657 171 774 169.657 774 168C774 166.343 772.657 165 771 165M768 168C768 166.343 769.343 165 771 165M768 168H766.5C765.948 168 765.5 167.552 765.5 167V118.617C765.5 117.541 766.965 117.224 767.41 118.203L767.91 119.303C767.969 119.433 768 119.574 768 119.717V140C768 140.552 768.448 141 769 141H770C770.552 141 771 141.448 771 142V165" stroke="white" stroke-width="2"/>
<path d="M767.5 118.5V167.5" stroke="white" stroke-width="2"/>
<path d="M758 344L768.5 342" stroke="white" stroke-width="2"/>
<path d="M619.5 341.5L627.5 347" stroke="white" stroke-width="2"/>
<g data-option="Средняя щетка" class="hide">
<path d="M402.637 350.554C403.013 349.877 403.987 349.877 404.363 350.554C404.712 351.183 405.596 351.239 406.021 350.658C406.479 350.034 407.445 350.156 407.733 350.874C408.001 351.542 408.871 351.708 409.366 351.186C409.898 350.624 410.841 350.866 411.037 351.615C411.219 352.311 412.061 352.585 412.617 352.128C413.216 351.637 414.121 351.996 414.222 352.764C414.315 353.477 415.116 353.854 415.725 353.471C416.381 353.059 417.234 353.528 417.237 354.302C417.241 355.022 417.988 355.497 418.641 355.193C419.343 354.866 420.13 355.438 420.037 356.207C419.949 356.922 420.632 357.486 421.317 357.266C422.055 357.03 422.764 357.697 422.575 358.448C422.399 359.145 423.005 359.791 423.713 359.659C424.474 359.517 425.094 360.267 424.812 360.989C424.55 361.659 425.071 362.375 425.789 362.333C426.562 362.288 427.084 363.11 426.714 363.79C426.37 364.422 426.796 365.198 427.514 365.246C428.287 365.298 428.702 366.179 428.249 366.807C427.828 367.392 428.154 368.215 428.861 368.353C429.621 368.501 429.922 369.427 429.394 369.994C428.904 370.52 429.124 371.378 429.807 371.603C430.543 371.846 430.725 372.802 430.131 373.298C429.578 373.759 429.689 374.638 430.339 374.947C431.038 375.28 431.099 376.251 430.447 376.669C429.841 377.057 429.841 377.943 430.447 378.331C431.099 378.749 431.038 379.72 430.339 380.053C429.689 380.362 429.578 381.241 430.131 381.702C430.725 382.198 430.543 383.154 429.807 383.397C429.124 383.622 428.904 384.48 429.394 385.006C429.922 385.573 429.621 386.499 428.861 386.647C428.154 386.785 427.828 387.608 428.249 388.193C428.702 388.821 428.287 389.702 427.514 389.754C426.796 389.802 426.37 390.578 426.714 391.21C427.084 391.89 426.562 392.712 425.789 392.667C425.071 392.625 424.55 393.341 424.812 394.011C425.094 394.733 424.474 395.483 423.713 395.341C423.005 395.209 422.399 395.855 422.575 396.552C422.764 397.303 422.055 397.97 421.317 397.734C420.632 397.514 419.949 398.078 420.037 398.793C420.13 399.562 419.343 400.134 418.641 399.807C417.988 399.503 417.241 399.978 417.237 400.698C417.234 401.472 416.381 401.941 415.725 401.529C415.116 401.146 414.315 401.523 414.222 402.236C414.121 403.004 413.216 403.363 412.617 402.872C412.061 402.415 411.219 402.689 411.037 403.385C410.841 404.134 409.898 404.376 409.366 403.814C408.871 403.292 408.001 403.458 407.733 404.126C407.445 404.844 406.479 404.966 406.021 404.342C405.596 403.761 404.712 403.817 404.363 404.446C403.987 405.123 403.013 405.123 402.637 404.446C402.288 403.817 401.404 403.761 400.979 404.342C400.521 404.966 399.555 404.844 399.267 404.126C398.999 403.458 398.129 403.292 397.634 403.814C397.102 404.376 396.159 404.134 395.963 403.385C395.781 402.689 394.939 402.415 394.383 402.872C393.784 403.363 392.879 403.004 392.778 402.236C392.685 401.523 391.884 401.146 391.275 401.529C390.619 401.941 389.766 401.472 389.763 400.698C389.76 399.978 389.012 399.503 388.359 399.807C387.657 400.134 386.87 399.562 386.963 398.793C387.051 398.078 386.368 397.514 385.683 397.734C384.945 397.97 384.236 397.303 384.425 396.552C384.601 395.855 383.995 395.209 383.287 395.341C382.526 395.483 381.906 394.733 382.188 394.011C382.45 393.341 381.929 392.625 381.211 392.667C380.438 392.712 379.916 391.89 380.286 391.21C380.63 390.578 380.204 389.802 379.486 389.754C378.713 389.702 378.298 388.821 378.751 388.193C379.172 387.608 378.846 386.785 378.139 386.647C377.379 386.499 377.078 385.573 377.606 385.006C378.096 384.48 377.876 383.622 377.193 383.397C376.457 383.154 376.275 382.198 376.869 381.702C377.422 381.241 377.311 380.362 376.661 380.053C375.962 379.72 375.901 378.749 376.553 378.331C377.159 377.943 377.159 377.057 376.553 376.669C375.901 376.251 375.962 375.28 376.661 374.947C377.311 374.638 377.422 373.759 376.869 373.298C376.275 372.802 376.457 371.846 377.193 371.603C377.876 371.378 378.096 370.52 377.606 369.994C377.078 369.427 377.379 368.501 378.139 368.353C378.846 368.215 379.172 367.392 378.751 366.807C378.298 366.179 378.713 365.298 379.486 365.246C380.204 365.198 380.63 364.422 380.286 363.79C379.916 363.11 380.438 362.288 381.211 362.333C381.929 362.375 382.45 361.659 382.188 360.989C381.906 360.267 382.526 359.517 383.287 359.659C383.995 359.791 384.601 359.145 384.425 358.448C384.236 357.697 384.945 357.03 385.683 357.266C386.368 357.486 387.051 356.922 386.963 356.207C386.87 355.438 387.657 354.866 388.359 355.193C389.012 355.497 389.76 355.022 389.763 354.302C389.766 353.528 390.619 353.059 391.275 353.471C391.884 353.854 392.685 353.477 392.778 352.764C392.879 351.996 393.784 351.637 394.383 352.128C394.939 352.585 395.781 352.311 395.963 351.615C396.159 350.866 397.102 350.624 397.634 351.186C398.129 351.708 398.999 351.542 399.267 350.874C399.555 350.156 400.521 350.034 400.979 350.658C401.404 351.239 402.288 351.183 402.637 350.554Z" fill="#3F89E4" stroke="white" stroke-width="2"/>
<path d="M421.898 377.8C421.898 378.2 421.572 378.525 421.169 378.525C420.767 378.525 420.441 378.2 420.441 377.8C420.441 377.4 420.767 377.075 421.169 377.075C421.572 377.075 421.898 377.4 421.898 377.8Z" fill="white"/>
<path d="M415.339 384.325C415.339 384.725 415.013 385.05 414.61 385.05C414.208 385.05 413.881 384.725 413.881 384.325C413.881 383.925 414.208 383.6 414.61 383.6C415.013 383.6 415.339 383.925 415.339 384.325Z" fill="white"/>
<path d="M408.051 382.15C408.051 382.55 407.725 382.875 407.322 382.875C406.92 382.875 406.593 382.55 406.593 382.15C406.593 381.75 406.92 381.425 407.322 381.425C407.725 381.425 408.051 381.75 408.051 382.15Z" fill="white"/>
<path d="M393.475 387.225C393.475 387.625 393.148 387.95 392.746 387.95C392.343 387.95 392.017 387.625 392.017 387.225C392.017 386.825 392.343 386.5 392.746 386.5C393.148 386.5 393.475 386.825 393.475 387.225Z" fill="white"/>
<path d="M385.458 377.075C385.458 377.475 385.131 377.8 384.729 377.8C384.326 377.8 384 377.475 384 377.075C384 376.675 384.326 376.35 384.729 376.35C385.131 376.35 385.458 376.675 385.458 377.075Z" fill="white"/>
<path d="M392.017 372.725C392.017 373.125 391.691 373.45 391.288 373.45C390.886 373.45 390.559 373.125 390.559 372.725C390.559 372.325 390.886 372 391.288 372C391.691 372 392.017 372.325 392.017 372.725Z" fill="white"/>
<path d="M405.864 390.125C405.864 390.525 405.538 390.85 405.136 390.85C404.733 390.85 404.407 390.525 404.407 390.125C404.407 389.725 404.733 389.4 405.136 389.4C405.538 389.4 405.864 389.725 405.864 390.125Z" fill="white"/>
<path d="M396.39 393.025C396.39 393.425 396.064 393.75 395.661 393.75C395.259 393.75 394.932 393.425 394.932 393.025C394.932 392.625 395.259 392.3 395.661 392.3C396.064 392.3 396.39 392.625 396.39 393.025Z" fill="white"/>
<path d="M385.458 367.65C385.458 368.05 385.131 368.375 384.729 368.375C384.326 368.375 384 368.05 384 367.65C384 367.25 384.326 366.925 384.729 366.925C385.131 366.925 385.458 367.25 385.458 367.65Z" fill="white"/>
<path d="M427 371.275C427 371.675 426.674 372 426.271 372C425.869 372 425.542 371.675 425.542 371.275C425.542 370.875 425.869 370.55 426.271 370.55C426.674 370.55 427 370.875 427 371.275Z" fill="white"/>
<path d="M418.254 371.275C418.254 371.675 417.928 372 417.525 372C417.123 372 416.797 371.675 416.797 371.275C416.797 370.875 417.123 370.55 417.525 370.55C417.928 370.55 418.254 370.875 418.254 371.275Z" fill="white"/>
<path d="M411.695 395.2C411.695 395.6 411.369 395.925 410.966 395.925C410.564 395.925 410.237 395.6 410.237 395.2C410.237 394.8 410.564 394.475 410.966 394.475C411.369 394.475 411.695 394.8 411.695 395.2Z" fill="white"/>
<path d="M420.441 388.675C420.441 389.075 420.114 389.4 419.712 389.4C419.309 389.4 418.983 389.075 418.983 388.675C418.983 388.275 419.309 387.95 419.712 387.95C420.114 387.95 420.441 388.275 420.441 388.675Z" fill="white"/>
<path d="M392.746 382.15C392.746 382.55 392.419 382.875 392.017 382.875C391.614 382.875 391.288 382.55 391.288 382.15C391.288 381.75 391.614 381.425 392.017 381.425C392.419 381.425 392.746 381.75 392.746 382.15Z" fill="white"/>
<path d="M395.017 362.725C395.017 363.125 394.691 363.45 394.288 363.45C393.886 363.45 393.559 363.125 393.559 362.725C393.559 362.325 393.886 362 394.288 362C394.691 362 395.017 362.325 395.017 362.725Z" fill="white"/>
<path d="M398.017 368.725C398.017 369.125 397.691 369.45 397.288 369.45C396.886 369.45 396.559 369.125 396.559 368.725C396.559 368.325 396.886 368 397.288 368C397.691 368 398.017 368.325 398.017 368.725Z" fill="white"/>
<path d="M408.017 368.725C408.017 369.125 407.691 369.45 407.288 369.45C406.886 369.45 406.559 369.125 406.559 368.725C406.559 368.325 406.886 368 407.288 368C407.691 368 408.017 368.325 408.017 368.725Z" fill="white"/>
<path d="M408.017 359.725C408.017 360.125 407.691 360.45 407.288 360.45C406.886 360.45 406.559 360.125 406.559 359.725C406.559 359.325 406.886 359 407.288 359C407.691 359 408.017 359.325 408.017 359.725Z" fill="white"/>
<rect x="431" y="315" width="24" height="49" rx="5" fill="#3F89E4" stroke="white" stroke-width="2"/>
<path d="M435.446 347.941C437.989 346.099 441.58 347.029 442.909 349.874L446.272 357.074C447.441 359.576 446.36 362.552 443.858 363.72L405.74 381.524C403.273 382.676 400.34 381.611 399.188 379.144C398.188 377.003 398.848 374.454 400.762 373.067L435.446 347.941Z" fill="#3F89E4" stroke="white" stroke-width="2"/>
</g>
<g data-option="Навеска (для отвала и передней щетки)" class="hide">
<path d="M933.308 319.722L881.547 336.169C880.987 336.347 880.395 336.006 880.268 335.433L878.725 328.49C878.604 327.946 878.952 327.407 879.498 327.294L932.802 316.249C933.423 316.121 934.005 316.595 934.005 317.228V318.768C934.005 319.204 933.723 319.59 933.308 319.722Z" fill="#3F89E4" stroke="white" stroke-width="2"/>
<path d="M933.189 294.653L881.455 304.322C880.925 304.421 880.412 304.083 880.295 303.556L878.745 296.581C878.617 296.003 879.016 295.44 879.605 295.371L932.889 289.131C933.483 289.061 934.005 289.526 934.005 290.124V293.67C934.005 294.151 933.662 294.564 933.189 294.653Z" fill="#3F89E4" stroke="white" stroke-width="2"/>
<path d="M881.236 290.615C881.035 288.011 878.863 286 876.251 286H872.758C870.146 286 867.975 288.011 867.773 290.615L866.035 313.115C866.015 313.371 866.015 313.629 866.035 313.885L867.773 336.385C867.975 338.989 870.146 341 872.758 341H876.251C878.863 341 881.035 338.989 881.236 336.385L882.975 313.885C882.995 313.629 882.995 313.371 882.975 313.115L881.236 290.615Z" fill="#3F89E4" stroke="white" stroke-width="2"/>
<path fill-rule="evenodd" clip-rule="evenodd" d="M946.385 288.018C947.999 288.007 949.519 288.775 950.467 290.081L958.638 301.341C960.02 303.245 959.887 305.854 958.321 307.608L947.853 319.33C946.904 320.393 945.548 321 944.124 321L925.005 321C922.243 321 920.005 318.761 920.005 316L920.005 293.17C920.005 290.422 922.222 288.189 924.969 288.17L946.385 288.018ZM934.005 310C936.766 310 939.005 307.761 939.005 305C939.005 302.239 936.766 300 934.005 300C931.243 300 929.005 302.239 929.005 305C929.005 307.761 931.243 310 934.005 310Z" fill="#3F89E4"/>
<path d="M950.467 290.081L949.658 290.669V290.669L950.467 290.081ZM946.385 288.018L946.392 289.018L946.385 288.018ZM958.638 301.341L957.829 301.928L957.829 301.928L958.638 301.341ZM958.321 307.608L959.067 308.274L958.321 307.608ZM947.853 319.33L948.599 319.996L947.853 319.33ZM944.124 321V322V321ZM925.005 321V320V321ZM920.005 316H919.005H920.005ZM920.005 293.17H921.005H920.005ZM924.969 288.17L924.962 287.17L924.969 288.17ZM951.277 289.494C950.139 287.927 948.315 287.005 946.378 287.018L946.392 289.018C947.683 289.009 948.9 289.624 949.658 290.669L951.277 289.494ZM959.448 300.754L951.277 289.494L949.658 290.669L957.829 301.928L959.448 300.754ZM959.067 308.274C960.947 306.169 961.105 303.038 959.448 300.754L957.829 301.928C958.934 303.451 958.828 305.539 957.575 306.942L959.067 308.274ZM948.599 319.996L959.067 308.274L957.575 306.942L947.107 318.664L948.599 319.996ZM944.124 322C945.833 322 947.461 321.271 948.599 319.996L947.107 318.664C946.348 319.514 945.263 320 944.124 320V322ZM925.005 322L944.124 322V320L925.005 320V322ZM919.005 316C919.005 319.314 921.691 322 925.005 322V320C922.796 320 921.005 318.209 921.005 316H919.005ZM919.005 293.17L919.005 316H921.005L921.005 293.17L919.005 293.17ZM924.962 287.17C921.665 287.193 919.005 289.873 919.005 293.17L921.005 293.17C921.005 290.972 922.779 289.185 924.977 289.17L924.962 287.17ZM946.378 287.018L924.962 287.17L924.977 289.17L946.392 289.018L946.378 287.018ZM938.005 305C938.005 307.209 936.214 309 934.005 309V311C937.319 311 940.005 308.314 940.005 305H938.005ZM934.005 301C936.214 301 938.005 302.791 938.005 305H940.005C940.005 301.686 937.319 299 934.005 299V301ZM930.005 305C930.005 302.791 931.796 301 934.005 301V299C930.691 299 928.005 301.686 928.005 305H930.005ZM934.005 309C931.796 309 930.005 307.209 930.005 305H928.005C928.005 308.314 930.691 311 934.005 311V309Z" fill="white"/>
</g>
<g data-importantElem="true" data-option="Передняя щетка со смачиванием (необходима навеска)" class="hide">
<path d="M957.005 344L955.121 348.049L952.824 344.219L951.373 348.443L948.688 344.874L947.687 349.227L944.644 345.958L944.104 350.391L940.735 347.458L940.661 351.924L937.005 349.359L937.398 353.808L933.493 351.639L934.349 356.023L930.24 354.274L931.549 358.544L927.279 357.235L929.028 361.344L924.644 360.489L926.813 364.393L922.364 364L924.929 367.656L920.463 367.731L923.396 371.099L918.963 371.639L922.232 374.683L917.879 375.684L921.448 378.368L917.224 379.819L921.054 382.116L917.005 384L921.054 385.884L917.224 388.181L921.448 389.632L917.879 392.316L922.232 393.317L918.963 396.361L923.396 396.901L920.463 400.269L924.929 400.344L922.364 404L926.813 403.607L924.644 407.511L929.028 406.656L927.279 410.765L931.549 409.456L930.24 413.726L934.349 411.977L933.493 416.361L937.398 414.192L937.005 418.641L940.661 416.076L940.735 420.542L944.104 417.609L944.644 422.042L947.687 418.773L948.688 423.126L951.373 419.557L952.824 423.781L955.121 419.951L957.005 424L958.889 419.951L961.186 423.781L962.637 419.557L965.321 423.126L966.322 418.773L969.366 422.042L969.906 417.609L973.274 420.542L973.349 416.076L977.005 418.641L976.612 414.192L980.516 416.361L979.66 411.977L983.77 413.726L982.461 409.456L986.731 410.765L984.982 406.656L989.366 407.511L987.197 403.607L991.646 404L989.081 400.344L993.547 400.269L990.614 396.901L995.047 396.361L991.778 393.317L996.131 392.316L992.562 389.632L996.786 388.181L992.956 385.884L997.005 384L992.956 382.116L996.786 379.819L992.562 378.368L996.131 375.684L991.778 374.683L995.047 371.639L990.614 371.099L993.547 367.731L989.081 367.656L991.646 364L987.197 364.393L989.366 360.489L984.982 361.344L986.731 357.235L982.461 358.544L983.77 354.274L979.66 356.023L980.516 351.639L976.612 353.808L977.005 349.359L973.349 351.924L973.274 347.458L969.906 350.391L969.366 345.958L966.322 349.227L965.321 344.874L962.637 348.443L961.186 344.219L958.889 348.049L957.005 344Z" stroke="white"/>
<path d="M958.216 346.181C957.688 345.231 956.322 345.231 955.794 346.181C955.304 347.064 954.063 347.142 953.466 346.327C952.824 345.451 951.468 345.622 951.064 346.631C950.688 347.568 949.467 347.801 948.772 347.068C948.025 346.279 946.702 346.618 946.427 347.67C946.171 348.647 944.99 349.031 944.208 348.391C943.368 347.702 942.098 348.205 941.957 349.282C941.826 350.284 940.702 350.813 939.846 350.275C938.926 349.697 937.729 350.355 937.724 351.442C937.72 352.452 936.671 353.118 935.755 352.692C934.769 352.233 933.664 353.036 933.796 354.115C933.918 355.118 932.96 355.91 931.998 355.602C930.963 355.271 929.967 356.206 930.233 357.26C930.48 358.239 929.629 359.145 928.636 358.96C927.568 358.761 926.697 359.814 927.093 360.826C927.461 361.767 926.73 362.772 925.722 362.713C924.637 362.649 923.905 363.803 924.424 364.758C924.907 365.645 924.308 366.734 923.301 366.802C922.216 366.875 921.634 368.111 922.269 368.993C922.86 369.813 922.402 370.968 921.411 371.162C920.344 371.37 919.922 372.669 920.662 373.465C921.351 374.204 921.042 375.408 920.082 375.724C919.05 376.064 918.794 377.406 919.629 378.103C920.404 378.75 920.248 379.983 919.336 380.417C918.355 380.884 918.269 382.248 919.184 382.834C920.035 383.379 920.035 384.621 919.184 385.166C918.269 385.752 918.355 387.116 919.336 387.583C920.248 388.017 920.404 389.25 919.629 389.897C918.794 390.594 919.05 391.936 920.082 392.276C921.042 392.592 921.351 393.796 920.662 394.535C919.922 395.331 920.344 396.63 921.411 396.838C922.402 397.032 922.86 398.187 922.269 399.007C921.634 399.889 922.216 401.125 923.301 401.198C924.308 401.266 924.907 402.355 924.424 403.242C923.905 404.197 924.637 405.351 925.722 405.287C926.73 405.228 927.461 406.233 927.093 407.174C926.697 408.186 927.568 409.239 928.636 409.04C929.629 408.855 930.48 409.761 930.233 410.74C929.967 411.794 930.963 412.729 931.998 412.398C932.96 412.09 933.918 412.882 933.796 413.885C933.664 414.964 934.769 415.767 935.755 415.308C936.671 414.882 937.72 415.548 937.724 416.558C937.729 417.645 938.926 418.303 939.846 417.725C940.702 417.187 941.826 417.716 941.957 418.718C942.098 419.795 943.368 420.298 944.208 419.609C944.99 418.969 946.171 419.353 946.427 420.33C946.702 421.382 948.025 421.721 948.772 420.932C949.467 420.199 950.688 420.432 951.064 421.369C951.468 422.378 952.824 422.549 953.466 421.673C954.063 420.858 955.304 420.936 955.794 421.819C956.322 422.77 957.688 422.77 958.216 421.819C958.706 420.936 959.946 420.858 960.544 421.673C961.186 422.549 962.542 422.378 962.946 421.369C963.322 420.432 964.543 420.199 965.237 420.932C965.985 421.721 967.308 421.382 967.583 420.33C967.838 419.353 969.02 418.969 969.801 419.609C970.642 420.298 971.912 419.795 972.053 418.718C972.184 417.716 973.308 417.187 974.163 417.725C975.084 418.303 976.281 417.645 976.286 416.558C976.29 415.548 977.339 414.882 978.255 415.308C979.24 415.767 980.346 414.964 980.214 413.885C980.092 412.882 981.049 412.09 982.011 412.398C983.046 412.729 984.042 411.794 983.777 410.74C983.53 409.761 984.38 408.855 985.373 409.04C986.442 409.239 987.313 408.186 986.917 407.174C986.549 406.233 987.28 405.228 988.288 405.287C989.373 405.351 990.105 404.197 989.586 403.242C989.103 402.355 989.701 401.266 990.709 401.198C991.794 401.125 992.375 399.889 991.74 399.007C991.15 398.187 991.608 397.032 992.599 396.838C993.666 396.63 994.088 395.331 993.347 394.535C992.659 393.796 992.968 392.592 993.927 392.276C994.96 391.936 995.216 390.594 994.381 389.897C993.606 389.25 993.761 388.017 994.674 387.583C995.655 387.116 995.741 385.752 994.826 385.166C993.975 384.621 993.975 383.379 994.826 382.834C995.741 382.248 995.655 380.884 994.674 380.417C993.761 379.983 993.606 378.75 994.381 378.103C995.216 377.406 994.96 376.064 993.927 375.724C992.968 375.408 992.659 374.204 993.347 373.465C994.088 372.669 993.666 371.37 992.599 371.162C991.608 370.968 991.15 369.813 991.74 368.993C992.375 368.111 991.794 366.875 990.709 366.802C989.701 366.734 989.103 365.645 989.586 364.758C990.105 363.803 989.373 362.649 988.288 362.713C987.28 362.772 986.549 361.767 986.917 360.826C987.313 359.814 986.442 358.761 985.373 358.96C984.38 359.145 983.53 358.239 983.777 357.26C984.042 356.206 983.046 355.271 982.011 355.602C981.049 355.91 980.092 355.118 980.214 354.115C980.346 353.036 979.24 352.233 978.255 352.692C977.339 353.118 976.29 352.452 976.286 351.442C976.281 350.355 975.084 349.697 974.163 350.275C973.308 350.813 972.184 350.284 972.053 349.282C971.912 348.205 970.642 347.702 969.801 348.391C969.02 349.031 967.838 348.647 967.583 347.67C967.308 346.618 965.985 346.279 965.237 347.068C964.543 347.801 963.322 347.568 962.946 346.631C962.542 345.622 961.186 345.451 960.544 346.327C959.946 347.142 958.706 347.064 958.216 346.181Z" fill="#3F89E4" stroke="white" stroke-width="2"/>
<path d="M912.548 353.006C910.099 353.502 908.392 355.731 908.551 358.225L909.207 368.516C909.379 371.212 911.662 373.285 914.362 373.195L999.823 370.364C1002.58 370.272 1004.75 367.961 1004.65 365.201L1004.37 356.511C1004.29 354.142 1002.56 352.153 1000.22 351.75L957.177 344.317C956.566 344.211 955.941 344.22 955.333 344.343L912.548 353.006Z" fill="#3F89E4" stroke="white" stroke-width="2"/>
<path d="M965.42 305.691C965.257 303.055 963.071 301 960.429 301H952.58C949.939 301 947.753 303.055 947.59 305.691L945.005 347.5L947.59 389.309C947.753 391.945 949.939 394 952.58 394H960.429C963.071 394 965.257 391.945 965.42 389.309L968.005 347.5L965.42 305.691Z" fill="#3F89E4" stroke="white" stroke-width="2"/>
<path d="M981.005 391C981.005 391.552 980.557 392 980.005 392C979.453 392 979.005 391.552 979.005 391C979.005 390.448 979.453 390 980.005 390C980.557 390 981.005 390.448 981.005 391Z" fill="white"/>
<path d="M972.005 400C972.005 400.552 971.557 401 971.005 401C970.453 401 970.005 400.552 970.005 400C970.005 399.448 970.453 399 971.005 399C971.557 399 972.005 399.448 972.005 400Z" fill="white"/>
<path d="M962.005 397C962.005 397.552 961.557 398 961.005 398C960.453 398 960.005 397.552 960.005 397C960.005 396.448 960.453 396 961.005 396C961.557 396 962.005 396.448 962.005 397Z" fill="white"/>
<path d="M942.005 404C942.005 404.552 941.557 405 941.005 405C940.453 405 940.005 404.552 940.005 404C940.005 403.448 940.453 403 941.005 403C941.557 403 942.005 403.448 942.005 404Z" fill="white"/>
<path d="M931.005 390C931.005 390.552 930.557 391 930.005 391C929.453 391 929.005 390.552 929.005 390C929.005 389.448 929.453 389 930.005 389C930.557 389 931.005 389.448 931.005 390Z" fill="white"/>
<path d="M940.005 384C940.005 384.552 939.557 385 939.005 385C938.453 385 938.005 384.552 938.005 384C938.005 383.448 938.453 383 939.005 383C939.557 383 940.005 383.448 940.005 384Z" fill="white"/>
<path d="M959.005 408C959.005 408.552 958.557 409 958.005 409C957.453 409 957.005 408.552 957.005 408C957.005 407.448 957.453 407 958.005 407C958.557 407 959.005 407.448 959.005 408Z" fill="white"/>
<path d="M946.005 412C946.005 412.552 945.557 413 945.005 413C944.453 413 944.005 412.552 944.005 412C944.005 411.448 944.453 411 945.005 411C945.557 411 946.005 411.448 946.005 412Z" fill="white"/>
<path d="M931.005 377C931.005 377.552 930.557 378 930.005 378C929.453 378 929.005 377.552 929.005 377C929.005 376.448 929.453 376 930.005 376C930.557 376 931.005 376.448 931.005 377Z" fill="white"/>
<path d="M988.005 382C988.005 382.552 987.557 383 987.005 383C986.453 383 986.005 382.552 986.005 382C986.005 381.448 986.453 381 987.005 381C987.557 381 988.005 381.448 988.005 382Z" fill="white"/>
<path d="M976.005 382C976.005 382.552 975.557 383 975.005 383C974.453 383 974.005 382.552 974.005 382C974.005 381.448 974.453 381 975.005 381C975.557 381 976.005 381.448 976.005 382Z" fill="white"/>
<path d="M967.005 415C967.005 415.552 966.557 416 966.005 416C965.453 416 965.005 415.552 965.005 415C965.005 414.448 965.453 414 966.005 414C966.557 414 967.005 414.448 967.005 415Z" fill="white"/>
<path d="M979.005 406C979.005 406.552 978.557 407 978.005 407C977.453 407 977.005 406.552 977.005 406C977.005 405.448 977.453 405 978.005 405C978.557 405 979.005 405.448 979.005 406Z" fill="white"/>
<path d="M941.005 397C941.005 397.552 940.557 398 940.005 398C939.453 398 939.005 397.552 939.005 397C939.005 396.448 939.453 396 940.005 396C940.557 396 941.005 396.448 941.005 397Z" fill="white"/>
<path d="M933.307 319.722L881.546 336.169C880.986 336.347 880.395 336.006 880.267 335.433L878.724 328.49C878.603 327.946 878.951 327.407 879.498 327.294L932.801 316.249C933.422 316.121 934.004 316.595 934.004 317.228V318.768C934.004 319.204 933.722 319.59 933.307 319.722Z" fill="#3F89E4" stroke="white" stroke-width="2"/>
<path d="M933.188 294.653L881.455 304.322C880.925 304.421 880.412 304.083 880.295 303.556L878.745 296.581C878.616 296.003 879.016 295.44 879.605 295.371L932.888 289.131C933.482 289.061 934.004 289.526 934.004 290.124V293.67C934.004 294.151 933.661 294.564 933.188 294.653Z" fill="#3F89E4" stroke="white" stroke-width="2"/>
<path d="M881.236 290.615C881.035 288.011 878.863 286 876.251 286H872.758C870.146 286 867.974 288.011 867.773 290.615L866.034 313.115C866.014 313.371 866.014 313.629 866.034 313.885L867.773 336.385C867.974 338.989 870.146 341 872.758 341H876.251C878.863 341 881.035 338.989 881.236 336.385L882.975 313.885C882.994 313.629 882.994 313.371 882.975 313.115L881.236 290.615Z" fill="#3F89E4" stroke="white" stroke-width="2"/>
<path fill-rule="evenodd" clip-rule="evenodd" d="M946.385 288.018C947.999 288.007 949.519 288.775 950.467 290.081L958.638 301.341C960.019 303.245 959.887 305.854 958.32 307.608L947.853 319.33C946.904 320.393 945.547 321 944.123 321L925.004 321C922.243 321 920.004 318.761 920.004 316L920.004 293.17C920.004 290.422 922.221 288.189 924.969 288.17L946.385 288.018ZM934.004 310C936.766 310 939.004 307.761 939.004 305C939.004 302.239 936.766 300 934.004 300C931.243 300 929.004 302.239 929.004 305C929.004 307.761 931.243 310 934.004 310Z" fill="#3F89E4"/>
<path d="M950.467 290.081L949.657 290.669V290.669L950.467 290.081ZM946.385 288.018L946.392 289.018L946.385 288.018ZM958.638 301.341L957.828 301.928L957.828 301.928L958.638 301.341ZM958.32 307.608L959.066 308.274L958.32 307.608ZM947.853 319.33L948.598 319.996L947.853 319.33ZM944.123 321V322V321ZM925.004 321V320V321ZM920.004 316H919.004H920.004ZM920.004 293.17H921.004H920.004ZM924.969 288.17L924.962 287.17L924.969 288.17ZM951.276 289.494C950.139 287.927 948.314 287.005 946.378 287.018L946.392 289.018C947.683 289.009 948.899 289.624 949.657 290.669L951.276 289.494ZM959.447 300.754L951.276 289.494L949.657 290.669L957.828 301.928L959.447 300.754ZM959.066 308.274C960.946 306.169 961.105 303.038 959.447 300.754L957.828 301.928C958.933 303.451 958.828 305.539 957.575 306.942L959.066 308.274ZM948.598 319.996L959.066 308.274L957.575 306.942L947.107 318.664L948.598 319.996ZM944.123 322C945.832 322 947.46 321.271 948.598 319.996L947.107 318.664C946.348 319.514 945.262 320 944.123 320V322ZM925.004 322L944.123 322V320L925.004 320V322ZM919.004 316C919.004 319.314 921.691 322 925.004 322V320C922.795 320 921.004 318.209 921.004 316H919.004ZM919.004 293.17L919.004 316H921.004L921.004 293.17L919.004 293.17ZM924.962 287.17C921.665 287.193 919.004 289.873 919.004 293.17L921.004 293.17C921.004 290.972 922.778 289.185 924.976 289.17L924.962 287.17ZM946.378 287.018L924.962 287.17L924.976 289.17L946.392 289.018L946.378 287.018ZM938.004 305C938.004 307.209 936.214 309 934.004 309V311C937.318 311 940.004 308.314 940.004 305H938.004ZM934.004 301C936.214 301 938.004 302.791 938.004 305H940.004C940.004 301.686 937.318 299 934.004 299V301ZM930.004 305C930.004 302.791 931.795 301 934.004 301V299C930.691 299 928.004 301.686 928.004 305H930.004ZM934.004 309C931.795 309 930.004 307.209 930.004 305H928.004C928.004 308.314 930.691 311 934.004 311V309Z" fill="white"/>
<path d="M933.303 319.722L881.542 336.169C880.982 336.347 880.39 336.006 880.263 335.433L878.72 328.49C878.599 327.946 878.947 327.407 879.493 327.294L932.797 316.249C933.418 316.121 934 316.595 934 317.228V318.768C934 319.204 933.718 319.59 933.303 319.722Z" fill="#3F89E4" stroke="white" stroke-width="2"/>
<path d="M933.184 294.653L881.45 304.322C880.92 304.421 880.407 304.083 880.29 303.556L878.74 296.581C878.612 296.003 879.012 295.44 879.6 295.371L932.884 289.131C933.478 289.061 934 289.526 934 290.124V293.67C934 294.151 933.657 294.564 933.184 294.653Z" fill="#3F89E4" stroke="white" stroke-width="2"/>
<path d="M881.232 290.615C881.03 288.011 878.858 286 876.246 286H872.754C870.142 286 867.97 288.011 867.768 290.615L866.03 313.115C866.01 313.371 866.01 313.629 866.03 313.885L867.768 336.385C867.97 338.989 870.142 341 872.754 341H876.246C878.858 341 881.03 338.989 881.232 336.385L882.97 313.885C882.99 313.629 882.99 313.371 882.97 313.115L881.232 290.615Z" fill="#3F89E4" stroke="white" stroke-width="2"/>
<path fill-rule="evenodd" clip-rule="evenodd" d="M946.38 288.018C947.994 288.007 949.514 288.775 950.462 290.081L958.633 301.341C960.015 303.245 959.883 305.854 958.316 307.608L947.848 319.33C946.899 320.393 945.543 321 944.119 321L925 321C922.239 321 920 318.761 920 316L920 293.17C920 290.422 922.217 288.189 924.965 288.17L946.38 288.018ZM934 310C936.761 310 939 307.761 939 305C939 302.239 936.761 300 934 300C931.239 300 929 302.239 929 305C929 307.761 931.239 310 934 310Z" fill="#3F89E4"/>
<path d="M950.462 290.081L949.653 290.669V290.669L950.462 290.081ZM946.38 288.018L946.387 289.018L946.38 288.018ZM958.633 301.341L957.824 301.928L957.824 301.928L958.633 301.341ZM958.316 307.608L959.062 308.274L958.316 307.608ZM947.848 319.33L948.594 319.996L947.848 319.33ZM944.119 321V322V321ZM925 321V320V321ZM920 316H919H920ZM920 293.17H921H920ZM924.965 288.17L924.958 287.17L924.965 288.17ZM951.272 289.494C950.134 287.927 948.31 287.005 946.373 287.018L946.387 289.018C947.679 289.009 948.895 289.624 949.653 290.669L951.272 289.494ZM959.443 300.754L951.272 289.494L949.653 290.669L957.824 301.928L959.443 300.754ZM959.062 308.274C960.942 306.169 961.1 303.038 959.443 300.754L957.824 301.928C958.929 303.451 958.823 305.539 957.57 306.942L959.062 308.274ZM948.594 319.996L959.062 308.274L957.57 306.942L947.102 318.664L948.594 319.996ZM944.119 322C945.828 322 947.456 321.271 948.594 319.996L947.102 318.664C946.343 319.514 945.258 320 944.119 320V322ZM925 322L944.119 322V320L925 320V322ZM919 316C919 319.314 921.686 322 925 322V320C922.791 320 921 318.209 921 316H919ZM919 293.17L919 316H921L921 293.17L919 293.17ZM924.958 287.17C921.66 287.193 919 289.873 919 293.17L921 293.17C921 290.972 922.774 289.185 924.972 289.17L924.958 287.17ZM946.373 287.018L924.958 287.17L924.972 289.17L946.387 289.018L946.373 287.018ZM938 305C938 307.209 936.209 309 934 309V311C937.314 311 940 308.314 940 305H938ZM934 301C936.209 301 938 302.791 938 305H940C940 301.686 937.314 299 934 299V301ZM930 305C930 302.791 931.791 301 934 301V299C930.686 299 928 301.686 928 305H930ZM934 309C931.791 309 930 307.209 930 305H928C928 308.314 930.686 311 934 311V309Z" fill="white"/>
</g>
<g data-importantElem="true" data-option="Отвал коммунальный (необходима навеска)" class="hide">
<path d="M949.01 305.798C948.987 305.277 949.368 304.826 949.886 304.762L958.722 303.664C959.332 303.589 959.866 304.077 959.844 304.692L958.116 353.965C958.113 354.071 958.126 354.177 958.155 354.278L971.887 401.631C972.059 402.222 971.661 402.826 971.05 402.902L962.214 403.999C961.696 404.064 961.217 403.72 961.111 403.209L951.18 355.066C951.17 355.014 951.163 354.961 951.161 354.908L949.01 305.798Z" fill="#3F89E4" stroke="white" stroke-width="2"/>
<path d="M966.578 419.219L962.373 403.756C962.252 403.311 962.451 402.841 962.855 402.618L965.589 401.11C966.208 400.768 966.977 401.16 967.064 401.862L969.163 418.755C969.231 419.303 968.842 419.803 968.294 419.871L967.666 419.949C967.172 420.01 966.708 419.699 966.578 419.219Z" fill="#3F89E4" stroke="white" stroke-width="2"/>
</g>
<g data-importantElem="true" data-option="Отвал «бабочка» (необходима навеска)" class="hide">
<path fill-rule="evenodd" clip-rule="evenodd" d="M944.191 320.042C942.585 320.038 941.075 320.805 940.132 322.105L931.953 333.376C930.571 335.28 930.703 337.889 932.27 339.643L942.738 351.366C943.686 352.428 945.043 353.035 946.467 353.035L1020.59 353.035C1023.35 353.035 1025.59 350.797 1025.59 348.035L1025.59 325.228C1025.59 322.471 1023.35 320.235 1020.6 320.228L944.191 320.042ZM946.586 342.035C943.825 342.035 941.586 339.797 941.586 337.035C941.586 334.274 943.825 332.035 946.586 332.035C949.347 332.035 951.586 334.274 951.586 337.035C951.586 339.797 949.347 342.035 946.586 342.035Z" fill="#3F89E4"/>
<path d="M940.132 322.105L940.941 322.692L940.132 322.105ZM944.191 320.042L944.189 321.042L944.191 320.042ZM931.953 333.376L931.143 332.789L931.953 333.376ZM932.27 339.643L933.016 338.977L932.27 339.643ZM942.738 351.366L943.484 350.7V350.7L942.738 351.366ZM946.467 353.035V354.035V353.035ZM1020.59 353.035V352.035V353.035ZM1025.59 348.035H1026.59H1025.59ZM1025.59 325.228H1024.59H1025.59ZM1020.6 320.228L1020.6 321.228L1020.6 320.228ZM939.323 321.518C940.455 319.958 942.267 319.037 944.194 319.042L944.189 321.042C942.904 321.038 941.696 321.652 940.941 322.692L939.323 321.518ZM931.143 332.789L939.323 321.518L940.941 322.692L932.762 333.964L931.143 332.789ZM931.524 340.309C929.644 338.204 929.486 335.073 931.143 332.789L932.762 333.964C931.657 335.487 931.763 337.574 933.016 338.977L931.524 340.309ZM941.992 352.032L931.524 340.309L933.016 338.977L943.484 350.7L941.992 352.032ZM946.467 354.035C944.758 354.035 943.13 353.306 941.992 352.032L943.484 350.7C944.243 351.549 945.328 352.035 946.467 352.035V354.035ZM1020.59 354.035L946.467 354.035V352.035L1020.59 352.035V354.035ZM1026.59 348.035C1026.59 351.349 1023.9 354.035 1020.59 354.035V352.035C1022.8 352.035 1024.59 350.244 1024.59 348.035H1026.59ZM1026.59 325.228L1026.59 348.035H1024.59L1024.59 325.228H1026.59ZM1020.6 319.228C1023.91 319.236 1026.59 321.92 1026.59 325.228H1024.59C1024.59 323.023 1022.8 321.233 1020.6 321.228L1020.6 319.228ZM944.194 319.042L1020.6 319.228L1020.6 321.228L944.189 321.042L944.194 319.042ZM942.586 337.035C942.586 339.244 944.377 341.035 946.586 341.035V343.035C943.272 343.035 940.586 340.349 940.586 337.035H942.586ZM946.586 333.035C944.377 333.035 942.586 334.826 942.586 337.035H940.586C940.586 333.722 943.272 331.035 946.586 331.035V333.035ZM950.586 337.035C950.586 334.826 948.795 333.035 946.586 333.035V331.035C949.9 331.035 952.586 333.722 952.586 337.035H950.586ZM946.586 341.035C948.795 341.035 950.586 339.244 950.586 337.035H952.586C952.586 340.349 949.9 343.035 946.586 343.035V341.035Z" fill="white"/>
<path d="M1044.16 378.391L1036.27 380.527L1049.91 399.625L1057.73 398.543L1044.16 378.391Z" fill="#3F89E4" stroke="white" stroke-width="2"/>
<path d="M1037 390.535L1050.5 394.535C1042.67 382.702 1029.46 354.063 1032 333.035C1035.5 304.035 1046 275.352 1091.5 255.035C1051 253.535 1020.5 300.535 1019.5 333.035C1018.7 359.035 1030.83 382.202 1037 390.535Z" fill="#3F89E4" stroke="white" stroke-width="2"/>
<path fill-rule="evenodd" clip-rule="evenodd" d="M926.906 313.036L940.139 323.462C941.02 324.157 942.11 324.535 943.233 324.535H971.15C975.04 324.535 977.444 320.293 975.437 316.959C966.856 302.704 954.336 281.874 950 274.535C945.052 266.161 938.201 268.593 934.965 271.146C934.648 271.396 934.319 271.63 933.962 271.818L927.671 275.129C926.029 275.994 925 277.697 925 279.554V309.109C925 310.641 925.702 312.088 926.906 313.036ZM937 306.535C937 308.468 935.433 310.035 933.5 310.035C931.567 310.035 930 308.468 930 306.535C930 304.602 931.567 303.035 933.5 303.035C935.433 303.035 937 304.602 937 306.535ZM963.5 319.035C965.433 319.035 967 317.468 967 315.535C967 313.602 965.433 312.035 963.5 312.035C961.567 312.035 960 313.602 960 315.535C960 317.468 961.567 319.035 963.5 319.035Z" fill="#3F89E4"/>
<path d="M940.139 323.462L939.52 324.248L939.52 324.248L940.139 323.462ZM926.906 313.036L927.525 312.251H927.525L926.906 313.036ZM975.437 316.959L974.581 317.475L975.437 316.959ZM950 274.535L950.861 274.026L950 274.535ZM934.965 271.146L935.584 271.931L935.584 271.931L934.965 271.146ZM933.962 271.818L933.496 270.933L933.496 270.933L933.962 271.818ZM927.671 275.129L928.137 276.014L928.137 276.014L927.671 275.129ZM940.758 322.677L927.525 312.251L926.287 313.822L939.52 324.248L940.758 322.677ZM943.233 323.535C942.335 323.535 941.463 323.233 940.758 322.677L939.52 324.248C940.578 325.082 941.886 325.535 943.233 325.535V323.535ZM971.15 323.535H943.233V325.535H971.15V323.535ZM974.581 317.475C976.185 320.14 974.264 323.535 971.15 323.535V325.535C975.816 325.535 978.703 320.445 976.294 316.444L974.581 317.475ZM949.139 275.044C953.478 282.387 966 303.221 974.581 317.475L976.294 316.444C967.712 302.186 955.195 281.36 950.861 274.026L949.139 275.044ZM935.584 271.931C937.085 270.748 939.377 269.636 941.797 269.742C944.137 269.844 946.805 271.094 949.139 275.044L950.861 274.026C948.246 269.602 945.015 267.881 941.884 267.744C938.833 267.61 936.082 268.991 934.346 270.361L935.584 271.931ZM934.427 272.703C934.861 272.475 935.244 272.2 935.584 271.931L934.346 270.361C934.051 270.593 933.777 270.785 933.496 270.933L934.427 272.703ZM928.137 276.014L934.427 272.703L933.496 270.933L927.206 274.244L928.137 276.014ZM926 279.554C926 278.069 926.823 276.706 928.137 276.014L927.206 274.244C925.234 275.282 924 277.326 924 279.554H926ZM926 309.109V279.554H924V309.109H926ZM927.525 312.251C926.562 311.492 926 310.335 926 309.109H924C924 310.947 924.843 312.684 926.287 313.822L927.525 312.251ZM933.5 311.035C935.985 311.035 938 309.02 938 306.535H936C936 307.916 934.881 309.035 933.5 309.035V311.035ZM929 306.535C929 309.02 931.015 311.035 933.5 311.035V309.035C932.119 309.035 931 307.916 931 306.535H929ZM933.5 302.035C931.015 302.035 929 304.05 929 306.535H931C931 305.154 932.119 304.035 933.5 304.035V302.035ZM938 306.535C938 304.05 935.985 302.035 933.5 302.035V304.035C934.881 304.035 936 305.154 936 306.535H938ZM966 315.535C966 316.916 964.881 318.035 963.5 318.035V320.035C965.985 320.035 968 318.02 968 315.535H966ZM963.5 313.035C964.881 313.035 966 314.154 966 315.535H968C968 313.05 965.985 311.035 963.5 311.035V313.035ZM961 315.535C961 314.154 962.119 313.035 963.5 313.035V311.035C961.015 311.035 959 313.05 959 315.535H961ZM963.5 318.035C962.119 318.035 961 316.916 961 315.535H959C959 318.02 961.015 320.035 963.5 320.035V318.035Z" fill="white"/>
</g>
<g data-importantElem="true" data-option="Агрегат фронтальной мойки (АФМ)" class="hide">
<path d="M975 320C987.667 318 1011.6 319.4 1006 341C1000.4 362.6 969.667 350 955 341" stroke="white" stroke-width="2"/>
<path d="M986 327C986.667 332.333 985 344 973 348C958 353 962 371 992 377" stroke="white" stroke-width="2"/>
<circle cx="1057.5" cy="395.5" r="4.5" fill="#3F89E4" stroke="white" stroke-width="2"/>
<rect x="1046" y="399" width="1" height="4" fill="white"/>
<rect x="1050" y="398.5" width="1" height="4" fill="white"/>
<rect x="1054" y="398" width="1" height="4" fill="white"/>
<path d="M1045.26 392H1053.57C1055.13 392 1056.54 392.953 1057.12 394.406C1058.06 396.764 1056.49 399.369 1053.97 399.635L1045.71 400.504C1043.19 400.769 1041 398.795 1041 396.264C1041 393.909 1042.91 392 1045.26 392Z" fill="#3F89E4" stroke="white" stroke-width="2"/>
<circle cx="1041.5" cy="396.5" r="5.5" fill="#3F89E4" stroke="white" stroke-width="2"/>
<path d="M952 326.734V375C952 377.761 954.239 380 957 380H965C965.418 380.314 965.937 380.5 966.5 380.5H1042C1044.76 380.5 1047 382.739 1047 385.5V390.25C1047 391.769 1048.23 393 1049.75 393C1051.27 393 1052.5 391.769 1052.5 390.25V380.5C1052.5 377.739 1050.26 375.5 1047.5 375.5H1038.28C1038.1 375.453 1037.91 375.429 1037.71 375.429H962.469C959.708 375.429 957.469 373.19 957.469 370.429V326.734C957.469 325.224 956.245 324 954.734 324C953.224 324 952 325.224 952 326.734Z" fill="#3F89E4" stroke="white" stroke-width="2"/>
<rect x="940" y="295" width="53" height="33" rx="5" fill="#3F89E4" stroke="white" stroke-width="2"/>
<path d="M942.232 292.615C942.03 290.011 939.858 288 937.246 288H933.754C931.142 288 928.97 290.011 928.768 292.615L927.03 315.115C927.01 315.371 927.01 315.629 927.03 315.885L928.768 338.385C928.97 340.989 931.142 343 933.754 343H937.246C939.858 343 942.03 340.989 942.232 338.385L943.97 315.885C943.99 315.629 943.99 315.371 943.97 315.115L942.232 292.615Z" fill="#3F89E4" stroke="white" stroke-width="2"/>
<path d="M979 275.5C979 287.926 968.926 298 956.5 298C944.074 298 934 287.926 934 275.5C934 263.074 944.074 253 956.5 253C968.926 253 979 263.074 979 275.5Z" fill="#3F89E4" stroke="white" stroke-width="2"/>
<path d="M976 275.5C976 286.27 967.27 295 956.5 295C945.73 295 937 286.27 937 275.5C937 264.73 945.73 256 956.5 256C967.27 256 976 264.73 976 275.5Z" fill="#3F89E4" stroke="white"/>
<path d="M974 275.5C974 285.165 966.165 293 956.5 293C946.835 293 939 285.165 939 275.5C939 265.835 946.835 258 956.5 258C966.165 258 974 265.835 974 275.5Z" fill="#3F89E4" stroke="white"/>
<path d="M972 275.5C972 284.06 965.06 291 956.5 291C947.94 291 941 284.06 941 275.5C941 266.94 947.94 260 956.5 260C965.06 260 972 266.94 972 275.5Z" fill="#3F89E4" stroke="white"/>
<path d="M970 275.5C970 282.956 963.956 289 956.5 289C949.044 289 943 282.956 943 275.5C943 268.044 949.044 262 956.5 262C963.956 262 970 268.044 970 275.5Z" fill="#3F89E4" stroke="white"/>
<path d="M968 275.5C968 281.851 962.851 287 956.5 287C950.149 287 945 281.851 945 275.5C945 269.149 950.149 264 956.5 264C962.851 264 968 269.149 968 275.5Z" fill="#3F89E4" stroke="white"/>
</g>
<g data-importantElem="true" data-option="Шнекороторное снегоуборочное оборудование" class="hide">
<path d="M905.906 174.903C905.959 173.285 907.286 172 908.905 172H945.095C946.714 172 948.041 173.285 948.094 174.903L951.9 292.903C951.955 294.597 950.596 296 948.902 296H905.098C903.404 296 902.045 294.597 902.1 292.903L905.906 174.903Z" fill="#3F89E4" stroke="white" stroke-width="2"/>
<path d="M913.202 198.308C913.36 199.838 914.649 201 916.186 201H936.814C938.351 201 939.64 199.838 939.798 198.308L941.658 180.308C941.841 178.539 940.453 177 938.674 177H914.326C912.547 177 911.159 178.539 911.342 180.308L913.202 198.308Z" fill="#3F89E4" stroke="white" stroke-width="2"/>
<path d="M895.537 342.291L871.327 326.863C870.703 326.465 869.878 326.86 869.796 327.596L869.083 334.035C869.034 334.477 869.282 334.898 869.693 335.068L894.616 345.425C895.275 345.699 896 345.215 896 344.502V343.134C896 342.792 895.826 342.474 895.537 342.291Z" fill="#3F89E4" stroke="white" stroke-width="2"/>
<path d="M895.349 293.565L871.173 302.554C870.563 302.78 869.903 302.374 869.831 301.727L869.099 295.174C869.042 294.67 869.372 294.204 869.866 294.089L894.773 288.286C895.4 288.14 896 288.616 896 289.26V292.628C896 293.045 895.74 293.419 895.349 293.565Z" fill="#3F89E4" stroke="white" stroke-width="2"/>
<path d="M881.232 290.615C881.03 288.011 878.858 286 876.246 286H872.754C870.142 286 867.97 288.011 867.768 290.615L866.03 313.115C866.01 313.371 866.01 313.629 866.03 313.885L867.768 336.385C867.97 338.989 870.142 341 872.754 341H876.246C878.858 341 881.03 338.989 881.232 336.385L882.97 313.885C882.99 313.629 882.99 313.371 882.97 313.115L881.232 290.615Z" fill="#3F89E4" stroke="white" stroke-width="2"/>
<path fill-rule="evenodd" clip-rule="evenodd" d="M921.042 286.027C924.795 285.993 927.246 289.952 925.542 293.296L914.993 314.002C914.298 315.366 914.267 316.974 914.908 318.365L924.376 338.907C925.903 342.22 923.483 346 919.835 346H893C890.239 346 888 343.761 888 341V291.28C888 288.536 890.211 286.305 892.955 286.28L921.042 286.027ZM900.283 303.072C898.075 303.03 896.123 304.496 895.548 306.628L893.391 314.631C893.136 315.577 893.164 316.576 893.473 317.506L896.267 325.93C896.875 327.763 898.589 329 900.52 329C902.994 329 905 326.994 905 324.52V307.879C905 305.259 902.902 303.122 900.283 303.072Z" fill="#3F89E4"/>
<path d="M925.542 293.296L926.433 293.75V293.75L925.542 293.296ZM921.042 286.027L921.051 287.027L921.042 286.027ZM914.993 314.002L914.102 313.548L914.993 314.002ZM914.908 318.365L915.816 317.946L914.908 318.365ZM924.376 338.907L923.468 339.325L924.376 338.907ZM892.955 286.28L892.964 287.28L892.955 286.28ZM895.548 306.628L894.583 306.368V306.368L895.548 306.628ZM900.283 303.072L900.264 304.071L900.283 303.072ZM893.391 314.631L894.356 314.891L893.391 314.631ZM893.473 317.506L894.422 317.191L893.473 317.506ZM896.267 325.93L895.318 326.245L896.267 325.93ZM926.433 293.75C928.478 289.737 925.537 284.986 921.033 285.027L921.051 287.027C924.054 286.999 926.014 290.167 924.651 292.842L926.433 293.75ZM915.884 314.456L926.433 293.75L924.651 292.842L914.102 313.548L915.884 314.456ZM915.816 317.946C915.303 316.833 915.328 315.547 915.884 314.456L914.102 313.548C913.268 315.185 913.23 317.114 913.999 318.783L915.816 317.946ZM925.284 338.488L915.816 317.946L913.999 318.783L923.468 339.325L925.284 338.488ZM919.835 347C924.213 347 927.117 342.464 925.284 338.488L923.468 339.325C924.689 341.976 922.753 345 919.835 345V347ZM893 347H919.835V345H893V347ZM887 341C887 344.313 889.686 347 893 347V345C890.791 345 889 343.209 889 341H887ZM887 291.28V341H889V291.28H887ZM892.946 285.28C889.653 285.31 887 287.988 887 291.28H889C889 289.085 890.769 287.3 892.964 287.28L892.946 285.28ZM921.033 285.027L892.946 285.28L892.964 287.28L921.051 287.027L921.033 285.027ZM896.514 306.888C896.969 305.2 898.515 304.038 900.264 304.071L900.302 302.072C897.635 302.021 895.277 303.792 894.583 306.368L896.514 306.888ZM894.356 314.891L896.514 306.888L894.583 306.368L892.425 314.37L894.356 314.891ZM894.422 317.191C894.175 316.448 894.152 315.648 894.356 314.891L892.425 314.37C892.119 315.505 892.154 316.705 892.524 317.821L894.422 317.191ZM897.217 325.616L894.422 317.191L892.524 317.821L895.318 326.245L897.217 325.616ZM900.52 328C899.02 328 897.689 327.039 897.217 325.616L895.318 326.245C896.062 328.487 898.158 330 900.52 330V328ZM904 324.52C904 326.442 902.442 328 900.52 328V330C903.546 330 906 327.546 906 324.52H904ZM904 307.879V324.52H906V307.879H904ZM900.264 304.071C902.339 304.111 904 305.804 904 307.879H906C906 304.715 903.466 302.132 900.302 302.072L900.264 304.071Z" fill="white"/>
<ellipse cx="967" cy="382.5" rx="27" ry="26.5" fill="#3F89E4" stroke="white" stroke-width="2"/>
<circle cx="970.5" cy="394.5" r="26.5" fill="#3F89E4" stroke="white" stroke-width="2"/>
<path d="M922 418V292C922 290.343 923.343 289 925 289H943.224C943.822 289 944.405 289.178 944.901 289.512L981.676 314.288C982.504 314.845 983 315.778 983 316.776V418C983 419.657 981.657 421 980 421H925C923.343 421 922 419.657 922 418Z" fill="#3F89E4" stroke="white" stroke-width="2"/>
</g>
</svg>
