<svg width="30" height="30" viewBox="0 0 30 30" fill="none" xmlns="http://www.w3.org/2000/svg">
<path d="M25.8814 20.5497C24.9829 18.8733 22.6685 16.859 21.713 15.9825C21.4515 15.7425 21.4235 15.3273 21.6615 15.0619C23.485 13.0305 24.9434 10.6964 25.4454 9.28602C25.6669 8.66296 25.2084 8.00467 24.5624 8.00467H22.686C22.0675 8.00467 21.7055 8.23481 21.533 8.60128C20.0175 11.8207 18.7175 13.214 17.8075 14.0284C17.298 14.4845 16.5035 14.1066 16.5035 13.4126C16.5035 12.0752 16.5035 10.3466 16.5035 9.12066C16.5035 8.52612 16.0345 8.0451 15.456 8.0451L12.0281 8.00467C11.5966 8.00467 11.3501 8.51109 11.6091 8.86616L12.1751 9.70847C12.3881 10.0003 12.5031 10.3554 12.5031 10.7198L12.5001 14.513C12.5001 15.1729 11.7286 15.4953 11.2706 15.0329C9.72112 13.4685 8.37663 10.274 7.89264 8.74642C7.75264 8.30427 7.35315 8.0057 6.90015 8.00467L5.05168 8C4.35818 8 3.85119 8.68162 4.03969 9.36791C5.72867 15.5139 9.19412 21.3609 15.37 21.9948C15.9785 22.057 16.5035 21.549 16.5035 20.9203V18.9267C16.5035 18.355 16.936 17.8636 17.492 17.8491C17.5115 17.8486 17.531 17.8486 17.5505 17.8486C19.184 17.8486 21.0135 20.3133 21.6535 21.4661C21.8375 21.7978 22.1815 22 22.5535 22H25.0399C25.7654 22 26.2309 21.2023 25.8814 20.5497Z" fill="white"/>
</svg>
