<svg width="30" height="30" viewBox="0 0 30 30" fill="none" xmlns="http://www.w3.org/2000/svg">
<path d="M23.4976 10.4062C23.3312 9.44409 22.5383 8.74341 21.6183 8.52466C20.2414 8.21875 17.6933 8 14.9364 8C12.1811 8 9.59217 8.21875 8.2137 8.52466C7.29527 8.74341 6.50082 9.39966 6.33442 10.4062C6.16639 11.5 6 13.0312 6 15C6 16.9687 6.16639 18.5 6.3752 19.5937C6.54323 20.5559 7.33605 21.2566 8.25449 21.4753C9.71615 21.7812 12.2219 22 14.9788 22C17.7357 22 20.2414 21.7812 21.7031 21.4753C22.6215 21.2566 23.4144 20.6003 23.5824 19.5937C23.7488 18.5 23.9576 16.9243 24 15C23.9152 13.0312 23.7064 11.5 23.4976 10.4062ZM12.6819 18.0625V11.9375L17.7765 15L12.6819 18.0625Z" fill="white"/>
</svg>
