<svg id="Layer_1" data-name="Layer 1" xmlns="http://www.w3.org/2000/svg" viewBox="0 0 15 15"><path d="M7.49,1.08A.68.68,0,0,0,7,1.29a.67.67,0,0,0-.19.47V9.21L5.29,7.67a.8.8,0,0,0-.21-.15.86.86,0,0,0-.27,0,.66.66,0,0,0-.62.42.68.68,0,0,0,.16.73L7,11.3a.68.68,0,0,0,.94,0l2.68-2.68a.54.54,0,0,0,.15-.22.58.58,0,0,0,.06-.26.8.8,0,0,0,0-.26.78.78,0,0,0-.15-.22.64.64,0,0,0-.22-.14.58.58,0,0,0-.26,0,.75.75,0,0,0-.26,0,.8.8,0,0,0-.21.15L8.17,9.21V1.76a.75.75,0,0,0-.05-.26A.54.54,0,0,0,8,1.28a.86.86,0,0,0-.22-.15A.75.75,0,0,0,7.49,1.08Zm-6,9.74A.65.65,0,0,0,1,11a.7.7,0,0,0-.19.47v1.34a1.35,1.35,0,0,0,1.34,1.34H12.86a1.35,1.35,0,0,0,1.34-1.34V11.49a.74.74,0,0,0,0-.25A.48.48,0,0,0,14,11a.51.51,0,0,0-.21-.15.6.6,0,0,0-.26,0,.58.58,0,0,0-.26,0,.54.54,0,0,0-.22.15.7.7,0,0,0-.19.47v1.34H2.14V11.49A.7.7,0,0,0,2,11a.91.91,0,0,0-.23-.15A.57.57,0,0,0,1.46,10.82Z"/></svg>