<svg width="60" height="60" viewBox="0 0 60 60" fill="none" xmlns="http://www.w3.org/2000/svg">
<path d="M26.668 52.5L30.0005 49.1675L26.668 45.835" stroke="#1B74E3" stroke-width="3" stroke-linecap="round" stroke-linejoin="round"/>
<path d="M52.2222 35.0151C53.7946 35.9714 54.8239 37.6132 54.9997 39.4451C54.9997 43.5351 48.4997 47.0276 39.3047 48.4651" stroke="#1B74E3" stroke-width="3" stroke-linecap="round" stroke-linejoin="round"/>
<path d="M7.7775 35.0151C6.20512 35.9714 5.17577 37.6132 5 39.4451C5 44.8151 16.1925 49.1676 30 49.1676" stroke="#1B74E3" stroke-width="3" stroke-linecap="round" stroke-linejoin="round"/>
<path d="M15.9478 20.3867H14.1483C13.6255 20.3867 13.2012 20.5457 13.2012 20.7417V21.0966C13.2012 21.2925 13.6255 21.4516 14.1483 21.4516H15.5689" stroke="#1B74E3" stroke-width="3" stroke-linecap="round" stroke-linejoin="round"/>
<path d="M44.06 20.3867H45.8595C46.3823 20.3867 46.8066 20.5457 46.8066 20.7417V21.0966C46.8066 21.2925 46.3823 21.4516 45.8595 21.4516H44.4389" stroke="#1B74E3" stroke-width="3" stroke-linecap="round" stroke-linejoin="round"/>
<path d="M22.3242 27.7866H24.0654" stroke="#1B74E3" stroke-width="3" stroke-linecap="round" stroke-linejoin="round"/>
<path d="M36.2559 27.7866H37.997" stroke="#1B74E3" stroke-width="3" stroke-linecap="round" stroke-linejoin="round"/>
<path d="M17.8145 16.9046V9.06928C17.8145 7.14527 19.3728 5.58691 21.2968 5.58691H38.7087C40.6327 5.58691 42.191 7.14527 42.191 9.06928V16.9046" stroke="#1B74E3" stroke-width="3" stroke-linecap="round" stroke-linejoin="round"/>
<path d="M42.9902 21.2573H17.0117" stroke="#1B74E3" stroke-width="3" stroke-linecap="round" stroke-linejoin="round"/>
<path fill-rule="evenodd" clip-rule="evenodd" d="M16.9453 22.6362V29.9631C16.9453 31.8871 18.5037 33.4455 20.4277 33.4455H39.5807C41.5047 33.4455 43.0631 31.8871 43.0631 29.9631V22.6362C43.0631 21.7186 42.9725 20.8045 42.7932 19.9043L41.8825 15.3511C41.5569 13.7231 40.1274 12.5513 38.4663 12.5513H21.542C19.8809 12.5513 18.4514 13.7231 18.1258 15.3511L17.2152 19.9043C17.0359 20.8045 16.9453 21.7186 16.9453 22.6362Z" stroke="#1B74E3" stroke-width="3" stroke-linecap="round" stroke-linejoin="round"/>
<path d="M23.4482 33.4458V36.0576C23.4482 37.0187 22.6681 37.7988 21.707 37.7988H19.9658C19.0047 37.7988 18.2246 37.0187 18.2246 36.0576V32.6519" stroke="#1B74E3" stroke-width="3" stroke-linecap="round" stroke-linejoin="round"/>
<path d="M41.7782 32.6519V36.0576C41.7782 37.0187 40.9982 37.7988 40.0371 37.7988H38.2959C37.3347 37.7988 36.5547 37.0187 36.5547 36.0576V33.4458" stroke="#1B74E3" stroke-width="3" stroke-linecap="round" stroke-linejoin="round"/>
</svg>
