<svg width="60" height="60" viewBox="0 0 60 60" fill="none" xmlns="http://www.w3.org/2000/svg">
<path d="M34.207 17.2598C35.3382 16.1287 36.8724 15.4932 38.4721 15.4932C40.0719 15.4932 41.6061 16.1287 42.7372 17.2598V17.2598C43.8684 18.391 44.5039 19.9252 44.5039 21.5249C44.5039 23.1247 43.8684 24.6589 42.7372 25.79" stroke="#1B74E3" stroke-width="3" stroke-linecap="round" stroke-linejoin="round"/>
<path fill-rule="evenodd" clip-rule="evenodd" d="M16.5277 42.0101C14.5751 40.0575 14.5751 36.8917 16.5277 34.9391L34.9364 16.5304C36.8891 14.5777 40.0549 14.5777 42.0075 16.5304L43.4667 17.9895C45.4193 19.9421 45.4193 23.108 43.4667 25.0606L25.0579 43.4693C23.1053 45.4219 19.9395 45.4219 17.9869 43.4693L16.5277 42.0101Z" stroke="#1B74E3" stroke-width="3" stroke-linecap="round" stroke-linejoin="round"/>
<path fill-rule="evenodd" clip-rule="evenodd" d="M43.4806 34.3505C44.2539 33.5771 45.5078 33.5771 46.2812 34.3505L53.1592 41.2285C53.9326 42.0019 53.9326 43.2558 53.1592 44.0291L44.0281 53.1603C43.2547 53.9336 42.0008 53.9336 41.2275 53.1603L34.3494 46.2822C33.5761 45.5089 33.5761 44.255 34.3494 43.4816L43.4806 34.3505Z" stroke="#1B74E3" stroke-width="3" stroke-linecap="round" stroke-linejoin="round"/>
<path d="M49.7208 37.7891L37.7891 49.7208" stroke="#1B74E3" stroke-width="3" stroke-linecap="round" stroke-linejoin="round"/>
<path fill-rule="evenodd" clip-rule="evenodd" d="M15.969 6.83877C16.7423 6.06541 17.9962 6.06541 18.7696 6.83877L25.6476 13.7168C26.421 14.4902 26.421 15.7441 25.6476 16.5174L16.5165 25.6486C15.7431 26.4219 14.4892 26.4219 13.7159 25.6486L6.83782 18.7705C6.06446 17.9971 6.06446 16.7433 6.83782 15.9699L15.969 6.83877Z" stroke="#1B74E3" stroke-width="3" stroke-linecap="round" stroke-linejoin="round"/>
<path d="M22.2091 10.2773L10.2773 22.2091" stroke="#1B74E3" stroke-width="3" stroke-linecap="round" stroke-linejoin="round"/>
<path d="M38.9151 38.916L34.2638 34.2646" stroke="#1B74E3" stroke-width="3" stroke-linecap="round" stroke-linejoin="round"/>
<path d="M25.7335 25.7343L21.0822 21.083" stroke="#1B74E3" stroke-width="3" stroke-linecap="round" stroke-linejoin="round"/>
<path d="M38.4727 7.49023C46.2237 7.49023 52.5072 13.7737 52.5072 21.5248" stroke="#1B74E3" stroke-width="3" stroke-linecap="round" stroke-linejoin="round"/>
<path d="M21.5229 52.5092C13.7718 52.5092 7.48828 46.2257 7.48828 38.4746" stroke="#1B74E3" stroke-width="3" stroke-linecap="round" stroke-linejoin="round"/>
</svg>
