<svg class="isuzuCar" width="1081" height="368" viewBox="0 0 1081 368" fill="none" xmlns="http://www.w3.org/2000/svg">
<g data-option="Емкость для воды 2,0 куб. м." class="hide">
    <rect x="119" y="41" width="488" height="197" fill="#3F89E4" stroke="white" stroke-width="2"/>
    <rect x="104" y="15" width="492" height="211" rx="33" fill="#3F89E4" stroke="white" stroke-width="2"/>
    <path d="M161.7 15L165.588 8H266.412L270.3 15H161.7Z" fill="#3F89E4" stroke="white" stroke-width="2"/>
</g>
<g data-option="Ледозаливочное оборудование «Умка»" class="hide" style="transform: translate(30px, 20px)">
    <path d="M70 210.5L13.5 255.5L82 267.5L123 249.5L99.6118 218.803C99.3611 218.474 99.5958 218 100.01 218H602.5V19.5V5.5H588.5L59 106.5L70 210.5Z" fill="#3F89E4" stroke="white" stroke-width="2"/>
    <path d="M64 215.5L59.5 113L84.5 151.929V160.5L87 222.5L64 215.5Z" fill="#3F89E4"/>
    <path d="M153 243.942L110.608 268.825L138.434 288.434C142.622 292.671 145.704 300.781 124.521 299.328C103.337 297.876 40.5953 292.671 11.8721 290.25C7.83293 288.918 0.0238182 284.73 1.10094 278.629C2.17806 272.529 2.74652 263.741 2.89611 260.109C2.74651 258.173 5.22987 254.517 16.3601 255.389C23.5035 255.948 41.8869 257.177 58.9961 258.585L105.978 237.5L153 243.942Z" fill="#3F89E4"/>
    <path d="M564 196H211.5C157.167 165.667 46 103.7 36 98.5C26 93.3 29.1667 87.6667 32 85.5L145 7.5L589 2V5.5V179L564 196Z" fill="#3F89E4"/>
    <path d="M104 174C104 178.142 100.642 181.5 96.5 181.5C92.3579 181.5 89 178.142 89 174C89 169.858 92.3579 166.5 96.5 166.5C100.642 166.5 104 169.858 104 174Z" fill="#3F89E4"/>
    <path d="M77 207.5H68.5V188.5L67.5 169.5H76L77 188.5V207.5Z" fill="#3F89E4"/>
    <path d="M87 222.5L64 215.5L59.5 113L84.5 151.929M87 222.5L84.5 160.5V151.929M87 222.5L99 235.5M84.5 151.929L94.5 167.5M110.608 268.825L153 243.942L105.978 237.5L58.9961 258.585M110.608 268.825L138.434 288.434C142.622 292.671 145.704 300.781 124.521 299.328C103.337 297.876 40.5953 292.671 11.8721 290.25C7.83293 288.918 0.0238182 284.73 1.10094 278.629C2.17806 272.529 2.74652 263.741 2.89611 260.109C2.74651 258.173 5.22987 254.517 16.3601 255.389C23.5035 255.948 41.8869 257.177 58.9961 258.585M110.608 268.825C107.167 267.614 98.9392 264.685 93.5536 262.651C90.2781 261.415 75.2092 259.92 58.9961 258.585M589 5.5V179L564 196H211.5C157.167 165.667 46 103.7 36 98.5C26 93.3 29.1667 87.6667 32 85.5L145 7.5L589 2V5.5ZM589 5.5H599M96 181L99.5 218.5M247 214L101.5 179L104 172.5L200 189.5M14 255L63.5 216M68.5 188.5L67.5 169.5H76L77 188.5M68.5 188.5V207.5H77V188.5M68.5 188.5H77M104 174C104 178.142 100.642 181.5 96.5 181.5C92.3579 181.5 89 178.142 89 174C89 169.858 92.3579 166.5 96.5 166.5C100.642 166.5 104 169.858 104 174Z" stroke="white" stroke-width="2"/>
    <path d="M94.5 167.5L84.5 151.929M84.5 151.929L59.5 113L64 215.5L87 222.5L84.5 160.5V151.929Z" stroke="white" stroke-width="2"/>
    <path d="M110.608 268.825L153 243.942L105.978 237.5L58.9961 258.585M110.608 268.825L138.434 288.434C142.622 292.671 145.704 300.781 124.521 299.328C103.337 297.876 40.5953 292.671 11.8721 290.25C7.83293 288.918 0.0238182 284.73 1.10094 278.629C2.17806 272.529 2.74652 263.741 2.89611 260.109C2.74651 258.173 5.22987 254.517 16.3601 255.389C23.5035 255.948 41.8869 257.177 58.9961 258.585M110.608 268.825C107.167 267.614 98.9392 264.685 93.5536 262.651C90.2781 261.415 75.2092 259.92 58.9961 258.585" stroke="white" stroke-width="2"/>
    <path d="M589 5.5V179L564 196H211.5C157.167 165.667 46 103.7 36 98.5C26 93.3 29.1667 87.6667 32 85.5L145 7.5L589 2V5.5ZM589 5.5H602" stroke="white" stroke-width="2"/>
    <circle cx="96.5" cy="174" r="6.5" stroke="white" stroke-width="2"/>
    <path d="M96 181L99.5 218.5" stroke="white" stroke-width="2"/>
    <path d="M247 214L101.5 179L104 172.5L200 189.5" stroke="white" stroke-width="2"/>
    <path d="M99 235.5L87 222.5" stroke="white" stroke-width="2"/>
    <path d="M14 255L63.5 216" stroke="white" stroke-width="2"/>
    <path d="M68.5 188.5L67.5 169.5H76L77 188.5M68.5 188.5V207.5H77V188.5M68.5 188.5H77" stroke="white" stroke-width="2"/>
</g>
<path d="M242 268.471L323 306L418 296.941H697V240H169V256.824L242 268.471Z" fill="#3F89E4" stroke="white" stroke-width="2"/>
<path d="M898 65.5L896 118C897.167 118 900.9 117.7 906.5 116.5C912.1 115.3 913.5 109.667 913.5 107C913.667 97.5 913.9 77.2 913.5 72C913.1 66.8 907.667 65.5 905 65.5H898Z" fill="#3F89E4" stroke="#3F89E4" stroke-width="2"/>
<path d="M882 95L884 69.5C886.667 68.6667 893 67 897 67M896 116.5L891 118M900.5 118V144.5M905 116.5L904 154.5" stroke="#3F89E4" stroke-width="2"/>
<path d="M905 292.5H871V279H779H673.5L673 236V41.5H682.5V22.5C682.5 16.9 693.5 7.5 699 3.5L741.5 1C752.5 1 779.4 1.5 799 3.5C823.5 6 833.5 16.5 840 25C846.5 33.5 869.5 72 877 85.5C884.5 99 907 159 907 170.5V247.5H915C919.4 247.5 921.5 252.5 922 255V281C922 289 916 292 913 292.5H905Z" fill="#3F89E4"/>
<path d="M871 278V279M673 236V41.5H682.5C682.5 37.5 682.5 28.1 682.5 22.5C682.5 16.9 693.5 7.5 699 3.5L741.5 1C752.5 1 779.4 1.5 799 3.5C823.5 6 833.5 16.5 840 25C846.5 33.5 869.5 72 877 85.5C884.5 99 907 159 907 170.5C907 179.7 907 225.667 907 247.5C907.833 247.5 910.6 247.5 915 247.5C919.4 247.5 921.5 252.5 922 255C922 260.333 922 273 922 281C922 289 916 292 913 292.5H905H871V279M673 236L683 226V41.5M673 236L673.5 279H779H871" stroke="#3F89E4" stroke-width="2"/>
<path d="M709.324 234.445L702.479 232.259L674.266 270.335L672.649 318.953L679.581 320.068L684.724 276.337L709.324 234.445Z" fill="#3F89E4" stroke="#3F89E4" stroke-width="2"/>
<circle cx="751" cy="305" r="59" fill="#3F89E4" stroke="#3F89E4" stroke-width="2"/>
<circle cx="352" cy="305" r="59" fill="#3F89E4" stroke="#3F89E4" stroke-width="2"/>
<circle cx="637.5" cy="280.5" r="25.5" fill="#3F89E4" stroke="#3F89E4" stroke-width="2"/>
<path d="M884 69.5L882 95L896.5 155.5L904 154.5L905 116.5L899 67H897C893 67 886.667 68.6667 884 69.5Z" fill="#3F89E4"/>
<path d="M896 116.5L891 118M900.5 118V144.5M882 95L884 69.5C886.667 68.6667 893 67 897 67H899L905 116.5L904 154.5L896.5 155.5L882 95Z" stroke="#3F89E4" stroke-width="2"/>
<path d="M906.967 287.6L903.9 285.3C902.406 284.179 903.127 281.804 904.992 281.703L913.33 281.252C915.087 281.157 916.102 283.215 914.956 284.551L912.599 287.302C912.219 287.745 911.664 288 911.08 288H908.167C907.734 288 907.313 287.86 906.967 287.6Z" stroke="white" stroke-width="2"/>
<path d="M898 65.5L896 118C897.167 118 900.9 117.7 906.5 116.5C912.1 115.3 913.5 109.667 913.5 107C913.667 97.5 913.9 77.2 913.5 72C913.1 66.8 907.667 65.5 905 65.5H898Z" stroke="white" stroke-width="2"/>
<path d="M898 65.5L896 118C897.167 118 900.9 117.7 906.5 116.5C912.1 115.3 913.5 109.667 913.5 107C913.667 97.5 913.9 77.2 913.5 72C913.1 66.8 907.667 65.5 905 65.5H898Z" stroke="white" stroke-width="2"/>
<path d="M882 95L884 69.5C886.667 68.6667 893 67 897 67M896 116.5L891 118M900.5 118V144.5M905 116.5L904 154.5" stroke="white" stroke-width="2"/>
<path d="M882 95L884 69.5C886.667 68.6667 893 67 897 67M896 116.5L891 118M900.5 118V144.5M905 116.5L904 154.5" stroke="white" stroke-width="2"/>
<path d="M865.5 260.5C860.7 260.5 859.5 262.833 859.5 264C858.7 266.8 861.167 268.833 862.5 269.5H871.5C876 269.5 875 266.5 875 263C875 259.5 871.5 260.5 865.5 260.5Z" stroke="white" stroke-width="2"/>
<path d="M700.5 19V207C708.667 207 729.3 207.2 746.5 208C768 209 775.5 215 788.5 225C798.9 233 810.5 264.667 815 279.5H879V123.5C875.333 115.333 866.7 96.3 861.5 85.5C855 72 839.5 48 829.5 33.5C821.5 21.9 806.833 19 800.5 19H700.5Z" stroke="white" stroke-width="2"/>
<path d="M815 279.5H804.5" stroke="white" stroke-width="2"/>
<path d="M714.5 35.9997L716 101.5C716.247 112.3 722.436 114.666 725.5 114.5H761.5C772.3 114.5 780 120.833 782.5 124C788.667 130 803.2 144 812 152C820.8 160 827.333 161.333 829.5 161H847C856.6 161 860.333 152.333 861 148V120.5C861 109 856 103.5 852.5 90.5C849 77.5 830 47.4997 823.5 35.9997C818.3 26.7997 804 25.8331 797.5 26.4997H731C716.6 26.4997 714 32.8331 714.5 35.9997Z" stroke="white" stroke-width="2"/>
<path d="M744.5 169.5C744.5 165.1 741.5 163 740 162.5C738 162.5 732.4 162.5 726 162.5C719.6 162.5 717.667 167.167 717.5 169.5C717.5 175.1 723.167 176.833 726 177C729.667 177 737.6 177 740 177C743 177 744.5 175 744.5 169.5ZM744.5 169.5H718" stroke="white" stroke-width="2"/>
<circle cx="715.5" cy="182.5" r="3.5" stroke="white" stroke-width="2"/>
<path d="M717.5 208.5V218C730.667 217.333 759.4 217.2 769 222C781 228 798 237.5 805.5 254" stroke="white" stroke-width="2"/>
<path d="M871 280V292.5H905H913C916 292 922 289 922 281C922 273 922 260.333 922 255C921.5 252.5 919.4 247.5 915 247.5C910.6 247.5 907.833 247.5 907 247.5C907 225.667 907 179.7 907 170.5C907 159 884.5 99 877 85.5C869.5 72 846.5 33.5 840 25C833.5 16.5 823.5 6 799 3.5C779.4 1.5 752.5 1 741.5 1L699 3.5C693.5 7.5 682.5 16.9 682.5 22.5C682.5 28.1 682.5 37.5 682.5 41.5H673V239L683 229V41.5" stroke="white" stroke-width="2"/>
<path d="M861.5 127.5H884.5L887 124.5L896 133.5" stroke="white" stroke-width="2"/>
<path d="M887 124.5C881.833 113 870.7 88.5 867.5 82.5C863.5 75 850 50.5 846 45C842 39.5 833 26 831.5 25" stroke="white" stroke-width="2"/>
<path d="M821 25H839" stroke="white" stroke-width="2"/>
<path d="M822 10H691.5M695.5 6H811.5" stroke="white" stroke-width="2"/>
<path d="M802 247.5H907" stroke="white" stroke-width="2"/>
<path d="M811 267H859" stroke="white" stroke-width="2"/>
<path d="M875 267H878.5" stroke="white" stroke-width="2"/>
<path d="M906 244H894.5L885.5 229.5V197C888.833 197.333 896.4 198.4 900 200C903.6 201.6 906.167 203 907 203.5V221.5C903.333 220.167 893.2 217.6 886 218" stroke="white" stroke-width="2"/>
<path d="M884.5 201.5H687.5V13.5" stroke="white" stroke-width="2"/>
<path d="M784.5 127H688.5" stroke="white" stroke-width="2"/>
<path d="M879.5 267H889.5C894.333 264.667 904 257.6 904 248" stroke="white" stroke-width="2"/>
<path d="M902.5 255.5L921 254.5" stroke="white" stroke-width="2"/>
<path d="M888 268V282.5L904 292.5" stroke="white" stroke-width="2"/>
<path d="M709.324 234.445L702.479 232.259L674.266 270.335L672.649 318.953L679.581 320.068L684.724 276.337L709.324 234.445Z" stroke="white" stroke-width="2"/>
<path d="M709.324 234.445L702.479 232.259L674.266 270.335L672.649 318.953L679.581 320.068L684.724 276.337L709.324 234.445Z" stroke="white" stroke-width="2"/>
<circle cx="751" cy="305" r="59" stroke="white" stroke-width="2"/>
<circle cx="751" cy="305" r="59" stroke="white" stroke-width="2"/>
<circle cx="751" cy="305" r="45" stroke="white" stroke-width="2"/>
<path d="M745.105 329.12C748.985 328.795 752.886 328.828 756.76 329.219C757.571 329.56 756.118 333.967 755.483 334.628C752.621 335.112 749.7 335.124 746.834 334.663C746.184 334.016 744.576 329.646 745.105 329.12" stroke="white" stroke-width="2"/>
<path d="M728.459 314.662C731.271 317.68 733.792 320.953 735.992 324.437C736.224 325.331 731.611 326.978 730.668 326.858C728.402 324.787 726.488 322.364 725 319.684C725.09 318.753 727.688 314.58 728.459 314.662" stroke="white" stroke-width="2"/>
<path d="M729 292.611C728.359 296.619 727.352 300.557 725.993 304.376C725.442 305.058 721.413 302.534 721 301.712C721.212 298.706 721.93 295.76 723.123 293C723.884 292.457 728.601 291.929 729 292.611" stroke="white" stroke-width="2"/>
<path d="M746.98 279.948C743.499 282.053 739.854 283.801 736.091 285.169C735.244 285.169 734.742 279.965 735.137 278.962C737.574 277.178 740.25 275.84 743.064 275C744.011 275.361 747.282 279.13 746.98 279.948" stroke="white" stroke-width="2"/>
<path d="M767.826 286.187C764.069 284.565 760.468 282.609 757.065 280.342C756.479 279.604 760.011 276.29 760.924 276.017C763.814 276.966 766.518 278.404 768.917 280.268C769.236 281.139 768.59 285.943 767.826 286.187" stroke="white" stroke-width="2"/>
<path d="M775.897 306.462C774.895 302.615 774.26 298.679 774 294.709C774.198 293.888 778.792 294.543 779.528 295.12C780.466 297.907 780.963 300.828 781 303.774C780.547 304.567 776.513 306.944 775.897 306.462" stroke="white" stroke-width="2"/>
<path d="M765 325.429C767.392 322.299 770.045 319.383 772.929 316.714C773.734 316.384 776 320.473 776 321.361C774.442 323.833 772.502 326.034 770.253 327.878C769.314 327.964 765.028 326.195 765 325.429" stroke="white" stroke-width="2"/>
<path d="M751.908 313.108C750.24 313.107 748.611 312.603 747.224 311.661C745.838 310.719 744.758 309.38 744.12 307.814C743.481 306.247 743.314 304.524 743.638 302.861C743.962 301.197 744.763 299.669 745.941 298.469C747.119 297.269 748.62 296.45 750.255 296.117C751.89 295.784 753.585 295.951 755.126 296.597C756.668 297.243 757.986 298.34 758.915 299.748C759.845 301.155 760.343 302.811 760.347 304.507C760.352 305.636 760.136 306.755 759.714 307.8C759.292 308.844 758.671 309.793 757.886 310.593C757.102 311.392 756.17 312.026 755.144 312.457C754.118 312.889 753.018 313.11 751.908 313.108" stroke="white" stroke-width="2"/>
<circle cx="352" cy="305" r="59" stroke="white" stroke-width="2"/>
<circle cx="352" cy="305" r="59" stroke="white" stroke-width="2"/>
<circle cx="352" cy="305" r="45" stroke="white" stroke-width="2"/>
<path d="M346.105 329.12C349.985 328.795 353.886 328.828 357.76 329.219C358.571 329.56 357.118 333.967 356.483 334.628C353.621 335.112 350.7 335.124 347.834 334.663C347.184 334.016 345.576 329.646 346.105 329.12" stroke="white" stroke-width="2"/>
<path d="M329.459 314.662C332.271 317.68 334.792 320.953 336.992 324.437C337.224 325.331 332.611 326.978 331.668 326.858C329.402 324.787 327.488 322.364 326 319.684C326.09 318.753 328.688 314.58 329.459 314.662" stroke="white" stroke-width="2"/>
<path d="M330 292.611C329.359 296.619 328.352 300.557 326.993 304.376C326.442 305.058 322.413 302.534 322 301.712C322.212 298.706 322.93 295.76 324.123 293C324.884 292.457 329.601 291.929 330 292.611" stroke="white" stroke-width="2"/>
<path d="M347.98 279.948C344.499 282.053 340.854 283.801 337.091 285.169C336.244 285.169 335.742 279.965 336.137 278.962C338.574 277.178 341.25 275.84 344.064 275C345.011 275.361 348.282 279.13 347.98 279.948" stroke="white" stroke-width="2"/>
<path d="M368.826 286.187C365.069 284.565 361.468 282.609 358.065 280.342C357.479 279.604 361.011 276.29 361.924 276.017C364.814 276.966 367.518 278.404 369.917 280.268C370.236 281.139 369.59 285.943 368.826 286.187" stroke="white" stroke-width="2"/>
<path d="M376.897 306.462C375.895 302.615 375.26 298.679 375 294.709C375.198 293.888 379.792 294.543 380.528 295.12C381.466 297.907 381.963 300.828 382 303.774C381.547 304.567 377.513 306.944 376.897 306.462" stroke="white" stroke-width="2"/>
<path d="M366 325.429C368.392 322.299 371.045 319.383 373.929 316.714C374.734 316.384 377 320.473 377 321.361C375.442 323.833 373.502 326.034 371.253 327.878C370.314 327.964 366.028 326.195 366 325.429" stroke="white" stroke-width="2"/>
<path d="M352.908 313.108C351.24 313.107 349.611 312.603 348.224 311.661C346.838 310.719 345.758 309.38 345.12 307.814C344.481 306.247 344.314 304.524 344.638 302.861C344.962 301.197 345.763 299.669 346.941 298.469C348.119 297.269 349.62 296.45 351.255 296.117C352.89 295.784 354.585 295.951 356.126 296.597C357.668 297.243 358.986 298.34 359.915 299.748C360.845 301.155 361.343 302.811 361.347 304.507C361.352 305.636 361.136 306.755 360.714 307.8C360.292 308.844 359.671 309.793 358.886 310.593C358.102 311.392 357.17 312.026 356.144 312.457C355.118 312.889 354.018 313.11 352.908 313.108" stroke="white" stroke-width="2"/>
<path d="M421 260.262L382.999 232.206C382.999 232.206 322.929 230.712 321.926 232.228C320.902 233.715 279.387 260.236 279.387 260.236L283.848 261.759L323.42 239.713H381.442L415.009 261.23L421 260.262Z" fill="#3F89E4" stroke="white" stroke-width="2"/>
<circle cx="637.5" cy="280.5" r="25.5" stroke="white" stroke-width="2"/>
<circle cx="637.5" cy="280.5" r="25.5" stroke="white" stroke-width="2"/>
<circle cx="637.5" cy="280.5" r="15.5" stroke="white" stroke-width="2"/>
<circle cx="637.5" cy="280.5" r="7.5" stroke="white" stroke-width="2"/>
<path d="M637.5 265V272.5M637.5 288.5V295M630 280.5H622M645 280.5H653" stroke="white" stroke-width="2"/>
<path d="M645 267.01L641.25 273.505M633.25 287.361L630 292.991M630.755 276.683L623.827 272.683M643.745 284.183L650.673 288.183" stroke="white" stroke-width="2"/>
<path d="M650.49 272.5L643.995 276.25M630.139 284.25L624.509 287.5M633.317 273.755L629.317 266.827M640.817 286.745L644.817 293.673" stroke="white" stroke-width="2"/>
<path d="M461.5 276V256.5C461.5 253.739 463.739 251.5 466.5 251.5H473C475.761 251.5 478 253.739 478 256.5V276C478 278.761 475.761 281 473 281H466.5C463.739 281 461.5 278.761 461.5 276Z" stroke="white" stroke-width="2"/>
<path d="M225 276V256.5C225 253.739 227.239 251.5 230 251.5H236.5C239.261 251.5 241.5 253.739 241.5 256.5V276C241.5 278.761 239.261 281 236.5 281H230C227.239 281 225 278.761 225 276Z" fill="#3F89E4" stroke="white" stroke-width="2"/>
<g data-option="Средняя щетка" class="hide">
    <path d="M486.637 303.554C487.013 302.877 487.987 302.877 488.363 303.554V303.554C488.712 304.183 489.596 304.239 490.021 303.658V303.658C490.479 303.034 491.445 303.156 491.733 303.874V303.874C492.001 304.542 492.871 304.708 493.366 304.186V304.186C493.898 303.624 494.841 303.866 495.037 304.615V304.615C495.219 305.311 496.061 305.585 496.617 305.128V305.128C497.216 304.637 498.121 304.996 498.222 305.764V305.764C498.315 306.477 499.116 306.854 499.725 306.471V306.471C500.381 306.059 501.234 306.528 501.237 307.302V307.302C501.24 308.022 501.988 308.497 502.641 308.193V308.193C503.343 307.866 504.13 308.438 504.037 309.207V309.207C503.949 309.922 504.632 310.486 505.317 310.266V310.266C506.055 310.03 506.764 310.697 506.575 311.448V311.448C506.399 312.145 507.005 312.791 507.713 312.659V312.659C508.474 312.517 509.094 313.267 508.812 313.989V313.989C508.55 314.659 509.071 315.375 509.789 315.333V315.333C510.562 315.288 511.084 316.11 510.714 316.79V316.79C510.37 317.422 510.796 318.198 511.514 318.246V318.246C512.287 318.298 512.702 319.179 512.249 319.807V319.807C511.828 320.392 512.154 321.215 512.861 321.353V321.353C513.621 321.501 513.922 322.427 513.394 322.994V322.994C512.904 323.52 513.124 324.378 513.807 324.603V324.603C514.543 324.846 514.725 325.802 514.131 326.298V326.298C513.578 326.759 513.689 327.638 514.339 327.947V327.947C515.038 328.28 515.099 329.251 514.447 329.669V329.669C513.841 330.057 513.841 330.943 514.447 331.331V331.331C515.099 331.749 515.038 332.72 514.339 333.053V333.053C513.689 333.362 513.578 334.241 514.131 334.702V334.702C514.725 335.198 514.543 336.154 513.807 336.397V336.397C513.124 336.622 512.904 337.48 513.394 338.006V338.006C513.922 338.573 513.621 339.499 512.861 339.647V339.647C512.154 339.785 511.828 340.608 512.249 341.193V341.193C512.702 341.821 512.287 342.702 511.514 342.754V342.754C510.796 342.802 510.37 343.578 510.714 344.21V344.21C511.084 344.89 510.562 345.712 509.789 345.667V345.667C509.071 345.625 508.55 346.341 508.812 347.011V347.011C509.094 347.733 508.474 348.483 507.713 348.341V348.341C507.005 348.209 506.399 348.855 506.575 349.552V349.552C506.764 350.303 506.055 350.97 505.317 350.734V350.734C504.632 350.514 503.949 351.078 504.037 351.793V351.793C504.13 352.562 503.343 353.134 502.641 352.807V352.807C501.988 352.503 501.24 352.978 501.237 353.698V353.698C501.234 354.472 500.381 354.941 499.725 354.529V354.529C499.116 354.146 498.315 354.523 498.222 355.236V355.236C498.121 356.004 497.216 356.363 496.617 355.872V355.872C496.061 355.415 495.219 355.689 495.037 356.385V356.385C494.841 357.134 493.898 357.376 493.366 356.814V356.814C492.871 356.292 492.001 356.458 491.733 357.126V357.126C491.445 357.844 490.479 357.966 490.021 357.342V357.342C489.596 356.761 488.712 356.817 488.363 357.446V357.446C487.987 358.123 487.013 358.123 486.637 357.446V357.446C486.288 356.817 485.404 356.761 484.979 357.342V357.342C484.521 357.966 483.555 357.844 483.267 357.126V357.126C482.999 356.458 482.129 356.292 481.634 356.814V356.814C481.102 357.376 480.159 357.134 479.963 356.385V356.385C479.781 355.689 478.939 355.415 478.383 355.872V355.872C477.784 356.363 476.879 356.004 476.778 355.236V355.236C476.685 354.523 475.884 354.146 475.275 354.529V354.529C474.619 354.941 473.766 354.472 473.763 353.698V353.698C473.76 352.978 473.012 352.503 472.359 352.807V352.807C471.657 353.134 470.87 352.562 470.963 351.793V351.793C471.051 351.078 470.368 350.514 469.683 350.734V350.734C468.945 350.97 468.236 350.303 468.425 349.552V349.552C468.601 348.855 467.995 348.209 467.287 348.341V348.341C466.526 348.483 465.906 347.733 466.188 347.011V347.011C466.45 346.341 465.929 345.625 465.211 345.667V345.667C464.438 345.712 463.916 344.89 464.286 344.21V344.21C464.63 343.578 464.204 342.802 463.486 342.754V342.754C462.713 342.702 462.298 341.821 462.751 341.193V341.193C463.172 340.608 462.846 339.785 462.139 339.647V339.647C461.379 339.499 461.078 338.573 461.606 338.006V338.006C462.096 337.48 461.876 336.622 461.193 336.397V336.397C460.457 336.154 460.275 335.198 460.869 334.702V334.702C461.422 334.241 461.311 333.362 460.661 333.053V333.053C459.962 332.72 459.901 331.749 460.553 331.331V331.331C461.159 330.943 461.159 330.057 460.553 329.669V329.669C459.901 329.251 459.962 328.28 460.661 327.947V327.947C461.311 327.638 461.422 326.759 460.869 326.298V326.298C460.275 325.802 460.457 324.846 461.193 324.603V324.603C461.876 324.378 462.096 323.52 461.606 322.994V322.994C461.078 322.427 461.379 321.501 462.139 321.353V321.353C462.846 321.215 463.172 320.392 462.751 319.807V319.807C462.298 319.179 462.713 318.298 463.486 318.246V318.246C464.204 318.198 464.63 317.422 464.286 316.79V316.79C463.916 316.11 464.438 315.288 465.211 315.333V315.333C465.929 315.375 466.45 314.659 466.188 313.989V313.989C465.906 313.267 466.526 312.517 467.287 312.659V312.659C467.995 312.791 468.601 312.145 468.425 311.448V311.448C468.236 310.697 468.945 310.03 469.683 310.266V310.266C470.368 310.486 471.051 309.922 470.963 309.207V309.207C470.87 308.438 471.657 307.866 472.359 308.193V308.193C473.012 308.497 473.76 308.022 473.763 307.302V307.302C473.766 306.528 474.619 306.059 475.275 306.471V306.471C475.884 306.854 476.685 306.477 476.778 305.764V305.764C476.879 304.996 477.784 304.637 478.383 305.128V305.128C478.939 305.585 479.781 305.311 479.963 304.615V304.615C480.159 303.866 481.102 303.624 481.634 304.186V304.186C482.129 304.708 482.999 304.542 483.267 303.874V303.874C483.555 303.156 484.521 303.034 484.979 303.658V303.658C485.404 304.239 486.288 304.183 486.637 303.554V303.554Z" fill="#3F89E4" stroke="white" stroke-width="2"/>
    <path d="M505.898 330.8C505.898 331.2 505.572 331.525 505.169 331.525C504.767 331.525 504.441 331.2 504.441 330.8C504.441 330.4 504.767 330.075 505.169 330.075C505.572 330.075 505.898 330.4 505.898 330.8Z" fill="white"/>
    <path d="M499.339 337.325C499.339 337.725 499.013 338.05 498.61 338.05C498.208 338.05 497.881 337.725 497.881 337.325C497.881 336.925 498.208 336.6 498.61 336.6C499.013 336.6 499.339 336.925 499.339 337.325Z" fill="white"/>
    <path d="M492.051 335.15C492.051 335.55 491.725 335.875 491.322 335.875C490.92 335.875 490.593 335.55 490.593 335.15C490.593 334.75 490.92 334.425 491.322 334.425C491.725 334.425 492.051 334.75 492.051 335.15Z" fill="white"/>
    <path d="M477.475 340.225C477.475 340.625 477.148 340.95 476.746 340.95C476.343 340.95 476.017 340.625 476.017 340.225C476.017 339.825 476.343 339.5 476.746 339.5C477.148 339.5 477.475 339.825 477.475 340.225Z" fill="white"/>
    <path d="M469.458 330.075C469.458 330.475 469.131 330.8 468.729 330.8C468.326 330.8 468 330.475 468 330.075C468 329.675 468.326 329.35 468.729 329.35C469.131 329.35 469.458 329.675 469.458 330.075Z" fill="white"/>
    <path d="M476.017 325.725C476.017 326.125 475.691 326.45 475.288 326.45C474.886 326.45 474.559 326.125 474.559 325.725C474.559 325.325 474.886 325 475.288 325C475.691 325 476.017 325.325 476.017 325.725Z" fill="white"/>
    <path d="M489.864 343.125C489.864 343.525 489.538 343.85 489.136 343.85C488.733 343.85 488.407 343.525 488.407 343.125C488.407 342.725 488.733 342.4 489.136 342.4C489.538 342.4 489.864 342.725 489.864 343.125Z" fill="white"/>
    <path d="M480.39 346.025C480.39 346.425 480.064 346.75 479.661 346.75C479.259 346.75 478.932 346.425 478.932 346.025C478.932 345.625 479.259 345.3 479.661 345.3C480.064 345.3 480.39 345.625 480.39 346.025Z" fill="white"/>
    <path d="M469.458 320.65C469.458 321.05 469.131 321.375 468.729 321.375C468.326 321.375 468 321.05 468 320.65C468 320.25 468.326 319.925 468.729 319.925C469.131 319.925 469.458 320.25 469.458 320.65Z" fill="white"/>
    <path d="M511 324.275C511 324.675 510.674 325 510.271 325C509.869 325 509.542 324.675 509.542 324.275C509.542 323.875 509.869 323.55 510.271 323.55C510.674 323.55 511 323.875 511 324.275Z" fill="white"/>
    <path d="M502.254 324.275C502.254 324.675 501.928 325 501.525 325C501.123 325 500.797 324.675 500.797 324.275C500.797 323.875 501.123 323.55 501.525 323.55C501.928 323.55 502.254 323.875 502.254 324.275Z" fill="white"/>
    <path d="M495.695 348.2C495.695 348.6 495.369 348.925 494.966 348.925C494.564 348.925 494.237 348.6 494.237 348.2C494.237 347.8 494.564 347.475 494.966 347.475C495.369 347.475 495.695 347.8 495.695 348.2Z" fill="white"/>
    <path d="M504.441 341.675C504.441 342.075 504.114 342.4 503.712 342.4C503.309 342.4 502.983 342.075 502.983 341.675C502.983 341.275 503.309 340.95 503.712 340.95C504.114 340.95 504.441 341.275 504.441 341.675Z" fill="white"/>
    <path d="M476.746 335.15C476.746 335.55 476.419 335.875 476.017 335.875C475.614 335.875 475.288 335.55 475.288 335.15C475.288 334.75 475.614 334.425 476.017 334.425C476.419 334.425 476.746 334.75 476.746 335.15Z" fill="white"/>
    <path d="M479.017 315.725C479.017 316.125 478.691 316.45 478.288 316.45C477.886 316.45 477.559 316.125 477.559 315.725C477.559 315.325 477.886 315 478.288 315C478.691 315 479.017 315.325 479.017 315.725Z" fill="white"/>
    <path d="M482.017 321.725C482.017 322.125 481.691 322.45 481.288 322.45C480.886 322.45 480.559 322.125 480.559 321.725C480.559 321.325 480.886 321 481.288 321C481.691 321 482.017 321.325 482.017 321.725Z" fill="white"/>
    <path d="M492.017 321.725C492.017 322.125 491.691 322.45 491.288 322.45C490.886 322.45 490.559 322.125 490.559 321.725C490.559 321.325 490.886 321 491.288 321C491.691 321 492.017 321.325 492.017 321.725Z" fill="white"/>
    <path d="M492.017 312.725C492.017 313.125 491.691 313.45 491.288 313.45C490.886 313.45 490.559 313.125 490.559 312.725C490.559 312.325 490.886 312 491.288 312C491.691 312 492.017 312.325 492.017 312.725Z" fill="white"/>
    <rect x="515" y="268" width="24" height="49" rx="5" fill="#3F89E4" stroke="white" stroke-width="2"/>
    <path d="M519.446 300.941C521.989 299.099 525.58 300.029 526.909 302.874L530.272 310.074C531.441 312.576 530.36 315.552 527.858 316.72L489.74 334.524C487.273 335.676 484.34 334.611 483.188 332.144V332.144C482.188 330.003 482.848 327.454 484.762 326.067L519.446 300.941Z" fill="#3F89E4" stroke="white" stroke-width="2"/>
</g>
<g data-option="Навеска (для отвала и передней щетки)" class="hide">
    <path d="M979.303 261.722L927.542 278.169C926.982 278.347 926.39 278.006 926.263 277.433L924.72 270.49C924.599 269.946 924.947 269.407 925.493 269.294L978.797 258.249C979.418 258.121 980 258.595 980 259.228V260.768C980 261.204 979.718 261.59 979.303 261.722Z" fill="#3F89E4" stroke="white" stroke-width="2"/>
    <path d="M979.184 236.653L927.45 246.322C926.92 246.421 926.407 246.083 926.29 245.556L924.74 238.581C924.612 238.003 925.012 237.44 925.6 237.371L978.884 231.131C979.478 231.061 980 231.526 980 232.124V235.67C980 236.151 979.657 236.564 979.184 236.653Z" fill="#3F89E4" stroke="white" stroke-width="2"/>
    <path d="M927.232 232.615C927.03 230.011 924.858 228 922.246 228H918.754C916.142 228 913.97 230.011 913.768 232.615L912.03 255.115C912.01 255.371 912.01 255.629 912.03 255.885L913.768 278.385C913.97 280.989 916.142 283 918.754 283H922.246C924.858 283 927.03 280.989 927.232 278.385L928.97 255.885C928.99 255.629 928.99 255.371 928.97 255.115L927.232 232.615Z" fill="#3F89E4" stroke="white" stroke-width="2"/>
    <path fill-rule="evenodd" clip-rule="evenodd" d="M992.38 230.018C993.994 230.007 995.514 230.775 996.462 232.081L1004.63 243.341C1006.01 245.245 1005.88 247.854 1004.32 249.608L993.848 261.33C992.899 262.393 991.543 263 990.119 263L971 263C968.239 263 966 260.761 966 258L966 235.17C966 232.422 968.217 230.189 970.965 230.17L992.38 230.018ZM980 252C982.761 252 985 249.761 985 247C985 244.239 982.761 242 980 242C977.239 242 975 244.239 975 247C975 249.761 977.239 252 980 252Z" fill="#3F89E4"/>
    <path d="M996.462 232.081L995.653 232.669V232.669L996.462 232.081ZM992.38 230.018L992.387 231.018L992.38 230.018ZM1004.63 243.341L1003.82 243.928L1003.82 243.928L1004.63 243.341ZM1004.32 249.608L1005.06 250.274L1004.32 249.608ZM993.848 261.33L994.594 261.996L993.848 261.33ZM990.119 263V264V263ZM971 263V262V263ZM966 258H965H966ZM966 235.17H967H966ZM970.965 230.17L970.958 229.17L970.965 230.17ZM997.272 231.494C996.134 229.927 994.31 229.005 992.373 229.018L992.387 231.018C993.679 231.009 994.895 231.624 995.653 232.669L997.272 231.494ZM1005.44 242.754L997.272 231.494L995.653 232.669L1003.82 243.928L1005.44 242.754ZM1005.06 250.274C1006.94 248.169 1007.1 245.038 1005.44 242.754L1003.82 243.928C1004.93 245.451 1004.82 247.539 1003.57 248.942L1005.06 250.274ZM994.594 261.996L1005.06 250.274L1003.57 248.942L993.102 260.664L994.594 261.996ZM990.119 264C991.828 264 993.456 263.271 994.594 261.996L993.102 260.664C992.343 261.514 991.258 262 990.119 262V264ZM971 264L990.119 264V262L971 262V264ZM965 258C965 261.314 967.686 264 971 264V262C968.791 262 967 260.209 967 258H965ZM965 235.17L965 258H967L967 235.17L965 235.17ZM970.958 229.17C967.66 229.193 965 231.873 965 235.17L967 235.17C967 232.972 968.774 231.185 970.972 231.17L970.958 229.17ZM992.373 229.018L970.958 229.17L970.972 231.17L992.387 231.018L992.373 229.018ZM984 247C984 249.209 982.209 251 980 251V253C983.314 253 986 250.314 986 247H984ZM980 243C982.209 243 984 244.791 984 247H986C986 243.686 983.314 241 980 241V243ZM976 247C976 244.791 977.791 243 980 243V241C976.686 241 974 243.686 974 247H976ZM980 251C977.791 251 976 249.209 976 247H974C974 250.314 976.686 253 980 253V251Z" fill="white"/>
</g>
<g data-importantElem="true" data-option="Передняя щетка со смачиванием (необходима навеска)" class="hide">
    <path d="M1003 286L1001.12 290.049L998.819 286.219L997.368 290.443L994.684 286.874L993.683 291.227L990.639 287.958L990.099 292.391L986.731 289.458L986.656 293.924L983 291.359L983.393 295.808L979.489 293.639L980.344 298.023L976.235 296.274L977.544 300.544L973.274 299.235L975.023 303.344L970.639 302.489L972.808 306.393L968.359 306L970.924 309.656L966.458 309.731L969.391 313.099L964.958 313.639L968.227 316.683L963.874 317.684L967.443 320.368L963.219 321.819L967.049 324.116L963 326L967.049 327.884L963.219 330.181L967.443 331.632L963.874 334.316L968.227 335.317L964.958 338.361L969.391 338.901L966.458 342.269L970.924 342.344L968.359 346L972.808 345.607L970.639 349.511L975.023 348.656L973.274 352.765L977.544 351.456L976.235 355.726L980.344 353.977L979.489 358.361L983.393 356.192L983 360.641L986.656 358.076L986.731 362.542L990.099 359.609L990.639 364.042L993.683 360.773L994.684 365.126L997.368 361.557L998.819 365.781L1001.12 361.951L1003 366L1004.88 361.951L1007.18 365.781L1008.63 361.557L1011.32 365.126L1012.32 360.773L1015.36 364.042L1015.9 359.609L1019.27 362.542L1019.34 358.076L1023 360.641L1022.61 356.192L1026.51 358.361L1025.66 353.977L1029.77 355.726L1028.46 351.456L1032.73 352.765L1030.98 348.656L1035.36 349.511L1033.19 345.607L1037.64 346L1035.08 342.344L1039.54 342.269L1036.61 338.901L1041.04 338.361L1037.77 335.317L1042.13 334.316L1038.56 331.632L1042.78 330.181L1038.95 327.884L1043 326L1038.95 324.116L1042.78 321.819L1038.56 320.368L1042.13 317.684L1037.77 316.683L1041.04 313.639L1036.61 313.099L1039.54 309.731L1035.08 309.656L1037.64 306L1033.19 306.393L1035.36 302.489L1030.98 303.344L1032.73 299.235L1028.46 300.544L1029.77 296.274L1025.66 298.023L1026.51 293.639L1022.61 295.808L1023 291.359L1019.34 293.924L1019.27 289.458L1015.9 292.391L1015.36 287.958L1012.32 291.227L1011.32 286.874L1008.63 290.443L1007.18 286.219L1004.88 290.049L1003 286Z" stroke="white"/>
    <path d="M1004.21 288.181C1003.68 287.231 1002.32 287.231 1001.79 288.181V288.181C1001.3 289.064 1000.06 289.142 999.461 288.327V288.327C998.819 287.451 997.463 287.622 997.059 288.631V288.631C996.683 289.568 995.462 289.801 994.768 289.068V289.068C994.02 288.279 992.697 288.618 992.422 289.67V289.67C992.167 290.647 990.985 291.031 990.204 290.391V290.391C989.363 289.702 988.093 290.205 987.952 291.282V291.282C987.821 292.284 986.697 292.813 985.841 292.275V292.275C984.921 291.697 983.724 292.355 983.719 293.442V293.442C983.715 294.452 982.666 295.118 981.75 294.692V294.692C980.765 294.233 979.659 295.036 979.791 296.115V296.115C979.913 297.118 978.956 297.91 977.994 297.602V297.602C976.959 297.271 975.962 298.206 976.228 299.26V299.26C976.475 300.239 975.625 301.145 974.632 300.96V300.96C973.563 300.761 972.692 301.814 973.088 302.826V302.826C973.456 303.767 972.725 304.772 971.717 304.713V304.713C970.632 304.649 969.9 305.803 970.419 306.758V306.758C970.902 307.645 970.303 308.734 969.296 308.802V308.802C968.211 308.875 967.629 310.111 968.265 310.993V310.993C968.855 311.813 968.397 312.968 967.406 313.162V313.162C966.339 313.37 965.917 314.669 966.658 315.465V315.465C967.346 316.204 967.037 317.408 966.077 317.724V317.724C965.045 318.064 964.789 319.406 965.624 320.103V320.103C966.399 320.75 966.244 321.983 965.331 322.417V322.417C964.35 322.884 964.264 324.248 965.179 324.834V324.834C966.03 325.379 966.03 326.621 965.179 327.166V327.166C964.264 327.752 964.35 329.116 965.331 329.583V329.583C966.244 330.017 966.399 331.25 965.624 331.897V331.897C964.789 332.594 965.045 333.936 966.077 334.276V334.276C967.037 334.592 967.346 335.796 966.658 336.535V336.535C965.917 337.331 966.339 338.63 967.406 338.838V338.838C968.397 339.032 968.855 340.187 968.265 341.007V341.007C967.629 341.889 968.211 343.125 969.296 343.198V343.198C970.303 343.266 970.902 344.355 970.419 345.242V345.242C969.9 346.197 970.632 347.351 971.717 347.287V347.287C972.725 347.228 973.456 348.233 973.088 349.174V349.174C972.692 350.186 973.563 351.239 974.632 351.04V351.04C975.625 350.855 976.475 351.761 976.228 352.74V352.74C975.962 353.794 976.959 354.729 977.994 354.398V354.398C978.956 354.09 979.913 354.882 979.791 355.885V355.885C979.659 356.964 980.765 357.767 981.75 357.308V357.308C982.666 356.882 983.715 357.548 983.719 358.558V358.558C983.724 359.645 984.921 360.303 985.841 359.725V359.725C986.697 359.187 987.821 359.716 987.952 360.718V360.718C988.093 361.795 989.363 362.298 990.204 361.609V361.609C990.985 360.969 992.167 361.353 992.422 362.33V362.33C992.697 363.382 994.02 363.721 994.768 362.932V362.932C995.462 362.199 996.683 362.432 997.059 363.369V363.369C997.463 364.378 998.819 364.549 999.461 363.673V363.673C1000.06 362.858 1001.3 362.936 1001.79 363.819V363.819C1002.32 364.769 1003.68 364.769 1004.21 363.819V363.819C1004.7 362.936 1005.94 362.858 1006.54 363.673V363.673C1007.18 364.549 1008.54 364.378 1008.94 363.369V363.369C1009.32 362.432 1010.54 362.199 1011.23 362.932V362.932C1011.98 363.721 1013.3 363.382 1013.58 362.33V362.33C1013.83 361.353 1015.02 360.969 1015.8 361.609V361.609C1016.64 362.298 1017.91 361.795 1018.05 360.718V360.718C1018.18 359.716 1019.3 359.187 1020.16 359.725V359.725C1021.08 360.303 1022.28 359.645 1022.28 358.558V358.558C1022.28 357.548 1023.33 356.882 1024.25 357.308V357.308C1025.24 357.767 1026.34 356.964 1026.21 355.885V355.885C1026.09 354.882 1027.04 354.09 1028.01 354.398V354.398C1029.04 354.729 1030.04 353.794 1029.77 352.74V352.74C1029.52 351.761 1030.38 350.855 1031.37 351.04V351.04C1032.44 351.239 1033.31 350.186 1032.91 349.174V349.174C1032.54 348.233 1033.27 347.228 1034.28 347.287V347.287C1035.37 347.351 1036.1 346.197 1035.58 345.242V345.242C1035.1 344.355 1035.7 343.266 1036.7 343.198V343.198C1037.79 343.125 1038.37 341.889 1037.74 341.007V341.007C1037.15 340.187 1037.6 339.032 1038.59 338.838V338.838C1039.66 338.63 1040.08 337.331 1039.34 336.535V336.535C1038.65 335.796 1038.96 334.592 1039.92 334.276V334.276C1040.95 333.936 1041.21 332.594 1040.38 331.897V331.897C1039.6 331.25 1039.76 330.017 1040.67 329.583V329.583C1041.65 329.116 1041.74 327.752 1040.82 327.166V327.166C1039.97 326.621 1039.97 325.379 1040.82 324.834V324.834C1041.74 324.248 1041.65 322.884 1040.67 322.417V322.417C1039.76 321.983 1039.6 320.75 1040.38 320.103V320.103C1041.21 319.406 1040.95 318.064 1039.92 317.724V317.724C1038.96 317.408 1038.65 316.204 1039.34 315.465V315.465C1040.08 314.669 1039.66 313.37 1038.59 313.162V313.162C1037.6 312.968 1037.15 311.813 1037.74 310.993V310.993C1038.37 310.111 1037.79 308.875 1036.7 308.802V308.802C1035.7 308.734 1035.1 307.645 1035.58 306.758V306.758C1036.1 305.803 1035.37 304.649 1034.28 304.713V304.713C1033.27 304.772 1032.54 303.767 1032.91 302.826V302.826C1033.31 301.814 1032.44 300.761 1031.37 300.96V300.96C1030.38 301.145 1029.52 300.239 1029.77 299.26V299.26C1030.04 298.206 1029.04 297.271 1028.01 297.602V297.602C1027.04 297.91 1026.09 297.118 1026.21 296.115V296.115C1026.34 295.036 1025.24 294.233 1024.25 294.692V294.692C1023.33 295.118 1022.28 294.452 1022.28 293.442V293.442C1022.28 292.355 1021.08 291.697 1020.16 292.275V292.275C1019.3 292.813 1018.18 292.284 1018.05 291.282V291.282C1017.91 290.205 1016.64 289.702 1015.8 290.391V290.391C1015.02 291.031 1013.83 290.647 1013.58 289.67V289.67C1013.3 288.618 1011.98 288.279 1011.23 289.068V289.068C1010.54 289.801 1009.32 289.568 1008.94 288.631V288.631C1008.54 287.622 1007.18 287.451 1006.54 288.327V288.327C1005.94 289.142 1004.7 289.064 1004.21 288.181V288.181Z" fill="#3F89E4" stroke="white" stroke-width="2"/>
    <path d="M958.544 295.006C956.094 295.502 954.387 297.731 954.546 300.225L955.202 310.516C955.374 313.212 957.657 315.285 960.358 315.195L1045.82 312.364C1048.58 312.272 1050.74 309.961 1050.65 307.201L1050.36 298.511C1050.28 296.142 1048.55 294.153 1046.22 293.75L1003.17 286.317C1002.56 286.211 1001.94 286.22 1001.33 286.343L958.544 295.006Z" fill="#3F89E4" stroke="white" stroke-width="2"/>
    <path d="M1011.42 247.691C1011.25 245.055 1009.07 243 1006.42 243H998.575C995.934 243 993.748 245.055 993.585 247.691L991 289.5L993.585 331.309C993.748 333.945 995.934 336 998.575 336H1006.42C1009.07 336 1011.25 333.945 1011.42 331.309L1014 289.5L1011.42 247.691Z" fill="#3F89E4" stroke="white" stroke-width="2"/>
    <path d="M1027 333C1027 333.552 1026.55 334 1026 334C1025.45 334 1025 333.552 1025 333C1025 332.448 1025.45 332 1026 332C1026.55 332 1027 332.448 1027 333Z" fill="white"/>
    <path d="M1018 342C1018 342.552 1017.55 343 1017 343C1016.45 343 1016 342.552 1016 342C1016 341.448 1016.45 341 1017 341C1017.55 341 1018 341.448 1018 342Z" fill="white"/>
    <path d="M1008 339C1008 339.552 1007.55 340 1007 340C1006.45 340 1006 339.552 1006 339C1006 338.448 1006.45 338 1007 338C1007.55 338 1008 338.448 1008 339Z" fill="white"/>
    <path d="M988 346C988 346.552 987.552 347 987 347C986.448 347 986 346.552 986 346C986 345.448 986.448 345 987 345C987.552 345 988 345.448 988 346Z" fill="white"/>
    <path d="M977 332C977 332.552 976.552 333 976 333C975.448 333 975 332.552 975 332C975 331.448 975.448 331 976 331C976.552 331 977 331.448 977 332Z" fill="white"/>
    <path d="M986 326C986 326.552 985.552 327 985 327C984.448 327 984 326.552 984 326C984 325.448 984.448 325 985 325C985.552 325 986 325.448 986 326Z" fill="white"/>
    <path d="M1005 350C1005 350.552 1004.55 351 1004 351C1003.45 351 1003 350.552 1003 350C1003 349.448 1003.45 349 1004 349C1004.55 349 1005 349.448 1005 350Z" fill="white"/>
    <path d="M992 354C992 354.552 991.552 355 991 355C990.448 355 990 354.552 990 354C990 353.448 990.448 353 991 353C991.552 353 992 353.448 992 354Z" fill="white"/>
    <path d="M977 319C977 319.552 976.552 320 976 320C975.448 320 975 319.552 975 319C975 318.448 975.448 318 976 318C976.552 318 977 318.448 977 319Z" fill="white"/>
    <path d="M1034 324C1034 324.552 1033.55 325 1033 325C1032.45 325 1032 324.552 1032 324C1032 323.448 1032.45 323 1033 323C1033.55 323 1034 323.448 1034 324Z" fill="white"/>
    <path d="M1022 324C1022 324.552 1021.55 325 1021 325C1020.45 325 1020 324.552 1020 324C1020 323.448 1020.45 323 1021 323C1021.55 323 1022 323.448 1022 324Z" fill="white"/>
    <path d="M1013 357C1013 357.552 1012.55 358 1012 358C1011.45 358 1011 357.552 1011 357C1011 356.448 1011.45 356 1012 356C1012.55 356 1013 356.448 1013 357Z" fill="white"/>
    <path d="M1025 348C1025 348.552 1024.55 349 1024 349C1023.45 349 1023 348.552 1023 348C1023 347.448 1023.45 347 1024 347C1024.55 347 1025 347.448 1025 348Z" fill="white"/>
    <path d="M987 339C987 339.552 986.552 340 986 340C985.448 340 985 339.552 985 339C985 338.448 985.448 338 986 338C986.552 338 987 338.448 987 339Z" fill="white"/>
    <path d="M979.303 261.722L927.542 278.169C926.982 278.347 926.39 278.006 926.263 277.433L924.72 270.49C924.599 269.946 924.947 269.407 925.493 269.294L978.797 258.249C979.418 258.121 980 258.595 980 259.228V260.768C980 261.204 979.718 261.59 979.303 261.722Z" fill="#3F89E4" stroke="white" stroke-width="2"/>
    <path d="M979.184 236.653L927.45 246.322C926.92 246.421 926.407 246.083 926.29 245.556L924.74 238.581C924.612 238.003 925.012 237.44 925.6 237.371L978.884 231.131C979.478 231.061 980 231.526 980 232.124V235.67C980 236.151 979.657 236.564 979.184 236.653Z" fill="#3F89E4" stroke="white" stroke-width="2"/>
    <path d="M927.232 232.615C927.03 230.011 924.858 228 922.246 228H918.754C916.142 228 913.97 230.011 913.768 232.615L912.03 255.115C912.01 255.371 912.01 255.629 912.03 255.885L913.768 278.385C913.97 280.989 916.142 283 918.754 283H922.246C924.858 283 927.03 280.989 927.232 278.385L928.97 255.885C928.99 255.629 928.99 255.371 928.97 255.115L927.232 232.615Z" fill="#3F89E4" stroke="white" stroke-width="2"/>
    <path fill-rule="evenodd" clip-rule="evenodd" d="M992.38 230.018C993.994 230.007 995.514 230.775 996.462 232.081L1004.63 243.341C1006.01 245.245 1005.88 247.854 1004.32 249.608L993.848 261.33C992.899 262.393 991.543 263 990.119 263L971 263C968.239 263 966 260.761 966 258L966 235.17C966 232.422 968.217 230.189 970.965 230.17L992.38 230.018ZM980 252C982.761 252 985 249.761 985 247C985 244.239 982.761 242 980 242C977.239 242 975 244.239 975 247C975 249.761 977.239 252 980 252Z" fill="#3F89E4"/>
    <path d="M996.462 232.081L995.653 232.669V232.669L996.462 232.081ZM992.38 230.018L992.387 231.018L992.38 230.018ZM1004.63 243.341L1003.82 243.928L1003.82 243.928L1004.63 243.341ZM1004.32 249.608L1005.06 250.274L1004.32 249.608ZM993.848 261.33L994.594 261.996L993.848 261.33ZM990.119 263V264V263ZM971 263V262V263ZM966 258H965H966ZM966 235.17H967H966ZM970.965 230.17L970.958 229.17L970.965 230.17ZM997.272 231.494C996.134 229.927 994.31 229.005 992.373 229.018L992.387 231.018C993.679 231.009 994.895 231.624 995.653 232.669L997.272 231.494ZM1005.44 242.754L997.272 231.494L995.653 232.669L1003.82 243.928L1005.44 242.754ZM1005.06 250.274C1006.94 248.169 1007.1 245.038 1005.44 242.754L1003.82 243.928C1004.93 245.451 1004.82 247.539 1003.57 248.942L1005.06 250.274ZM994.594 261.996L1005.06 250.274L1003.57 248.942L993.102 260.664L994.594 261.996ZM990.119 264C991.828 264 993.456 263.271 994.594 261.996L993.102 260.664C992.343 261.514 991.258 262 990.119 262V264ZM971 264L990.119 264V262L971 262V264ZM965 258C965 261.314 967.686 264 971 264V262C968.791 262 967 260.209 967 258H965ZM965 235.17L965 258H967L967 235.17L965 235.17ZM970.958 229.17C967.66 229.193 965 231.873 965 235.17L967 235.17C967 232.972 968.774 231.185 970.972 231.17L970.958 229.17ZM992.373 229.018L970.958 229.17L970.972 231.17L992.387 231.018L992.373 229.018ZM984 247C984 249.209 982.209 251 980 251V253C983.314 253 986 250.314 986 247H984ZM980 243C982.209 243 984 244.791 984 247H986C986 243.686 983.314 241 980 241V243ZM976 247C976 244.791 977.791 243 980 243V241C976.686 241 974 243.686 974 247H976ZM980 251C977.791 251 976 249.209 976 247H974C974 250.314 976.686 253 980 253V251Z" fill="white"/>
</g>
<g data-importantElem="true" data-option="Отвал коммунальный (необходима навеска)" class="hide">
    <path d="M979.303 261.722L927.542 278.169C926.982 278.347 926.39 278.006 926.263 277.433L924.72 270.49C924.599 269.946 924.947 269.407 925.493 269.294L978.797 258.249C979.418 258.121 980 258.595 980 259.228V260.768C980 261.204 979.718 261.59 979.303 261.722Z" fill="#3F89E4" stroke="white" stroke-width="2"/>
    <path d="M979.184 236.653L927.45 246.322C926.92 246.421 926.407 246.083 926.29 245.556L924.74 238.581C924.612 238.003 925.012 237.44 925.6 237.371L978.884 231.131C979.478 231.061 980 231.526 980 232.124V235.67C980 236.151 979.657 236.564 979.184 236.653Z" fill="#3F89E4" stroke="white" stroke-width="2"/>
    <path d="M927.232 232.615C927.03 230.011 924.858 228 922.246 228H918.754C916.142 228 913.97 230.011 913.768 232.615L912.03 255.115C912.01 255.371 912.01 255.629 912.03 255.885L913.768 278.385C913.97 280.989 916.142 283 918.754 283H922.246C924.858 283 927.03 280.989 927.232 278.385L928.97 255.885C928.99 255.629 928.99 255.371 928.97 255.115L927.232 232.615Z" fill="#3F89E4" stroke="white" stroke-width="2"/>
    <path fill-rule="evenodd" clip-rule="evenodd" d="M992.38 230.018C993.994 230.007 995.514 230.775 996.462 232.081L1004.63 243.341C1006.01 245.245 1005.88 247.854 1004.32 249.608L993.848 261.33C992.899 262.393 991.543 263 990.119 263L971 263C968.239 263 966 260.761 966 258L966 235.17C966 232.422 968.217 230.189 970.965 230.17L992.38 230.018ZM980 252C982.761 252 985 249.761 985 247C985 244.239 982.761 242 980 242C977.239 242 975 244.239 975 247C975 249.761 977.239 252 980 252Z" fill="#3F89E4"/>
    <path d="M996.462 232.081L995.653 232.669V232.669L996.462 232.081ZM992.38 230.018L992.387 231.018L992.38 230.018ZM1004.63 243.341L1003.82 243.928L1003.82 243.928L1004.63 243.341ZM1004.32 249.608L1005.06 250.274L1004.32 249.608ZM993.848 261.33L994.594 261.996L993.848 261.33ZM990.119 263V264V263ZM971 263V262V263ZM966 258H965H966ZM966 235.17H967H966ZM970.965 230.17L970.958 229.17L970.965 230.17ZM997.272 231.494C996.134 229.927 994.31 229.005 992.373 229.018L992.387 231.018C993.679 231.009 994.895 231.624 995.653 232.669L997.272 231.494ZM1005.44 242.754L997.272 231.494L995.653 232.669L1003.82 243.928L1005.44 242.754ZM1005.06 250.274C1006.94 248.169 1007.1 245.038 1005.44 242.754L1003.82 243.928C1004.93 245.451 1004.82 247.539 1003.57 248.942L1005.06 250.274ZM994.594 261.996L1005.06 250.274L1003.57 248.942L993.102 260.664L994.594 261.996ZM990.119 264C991.828 264 993.456 263.271 994.594 261.996L993.102 260.664C992.343 261.514 991.258 262 990.119 262V264ZM971 264L990.119 264V262L971 262V264ZM965 258C965 261.314 967.686 264 971 264V262C968.791 262 967 260.209 967 258H965ZM965 235.17L965 258H967L967 235.17L965 235.17ZM970.958 229.17C967.66 229.193 965 231.873 965 235.17L967 235.17C967 232.972 968.774 231.185 970.972 231.17L970.958 229.17ZM992.373 229.018L970.958 229.17L970.972 231.17L992.387 231.018L992.373 229.018ZM984 247C984 249.209 982.209 251 980 251V253C983.314 253 986 250.314 986 247H984ZM980 243C982.209 243 984 244.791 984 247H986C986 243.686 983.314 241 980 241V243ZM976 247C976 244.791 977.791 243 980 243V241C976.686 241 974 243.686 974 247H976ZM980 251C977.791 251 976 249.209 976 247H974C974 250.314 976.686 253 980 253V251Z" fill="white"/>
    <path d="M995.01 247.798C994.987 247.277 995.368 246.826 995.886 246.762L1004.72 245.664C1005.33 245.589 1005.87 246.077 1005.84 246.692L1004.12 295.965C1004.11 296.071 1004.13 296.177 1004.16 296.278L1017.89 343.631C1018.06 344.222 1017.66 344.826 1017.05 344.902L1008.21 345.999C1007.7 346.064 1007.22 345.72 1007.11 345.209L997.18 297.066C997.17 297.014 997.163 296.961 997.161 296.908L995.01 247.798Z" fill="#3F89E4" stroke="white" stroke-width="2"/>
    <path d="M1012.58 361.219L1008.37 345.756C1008.25 345.311 1008.45 344.841 1008.86 344.618L1011.59 343.11C1012.21 342.768 1012.98 343.16 1013.06 343.862L1015.16 360.755C1015.23 361.303 1014.84 361.803 1014.29 361.871L1013.67 361.949C1013.17 362.01 1012.71 361.699 1012.58 361.219Z" fill="#3F89E4" stroke="white" stroke-width="2"/>
</g>
<g data-importantElem="true" data-option="Отвал «бабочка» (необходима навеска)" class="hide">
    <path fill-rule="evenodd" clip-rule="evenodd" d="M933.192 272.042C931.586 272.038 930.076 272.805 929.133 274.105L920.953 285.376C919.572 287.28 919.704 289.889 921.27 291.643L931.738 303.366C932.687 304.428 934.044 305.035 935.468 305.035L1009.59 305.035C1012.35 305.035 1014.59 302.797 1014.59 300.035L1014.59 277.228C1014.59 274.471 1012.36 272.235 1009.6 272.228L933.192 272.042ZM935.586 294.035C932.825 294.035 930.586 291.797 930.586 289.035C930.586 286.274 932.825 284.035 935.586 284.035C938.348 284.035 940.586 286.274 940.586 289.035C940.586 291.797 938.348 294.035 935.586 294.035Z" fill="#3F89E4"/>
    <path d="M929.133 274.105L929.942 274.692L929.133 274.105ZM933.192 272.042L933.189 273.042L933.192 272.042ZM920.953 285.376L920.144 284.789L920.953 285.376ZM921.27 291.643L922.016 290.977L921.27 291.643ZM931.738 303.366L932.484 302.7V302.7L931.738 303.366ZM935.468 305.035V306.035V305.035ZM1009.59 305.035V304.035V305.035ZM1014.59 300.035H1015.59H1014.59ZM1014.59 277.228H1013.59H1014.59ZM1009.6 272.228L1009.6 273.228L1009.6 272.228ZM928.323 273.518C929.455 271.958 931.267 271.037 933.194 271.042L933.189 273.042C931.904 273.038 930.696 273.652 929.942 274.692L928.323 273.518ZM920.144 284.789L928.323 273.518L929.942 274.692L921.762 285.964L920.144 284.789ZM920.525 292.309C918.645 290.204 918.486 287.073 920.144 284.789L921.762 285.964C920.657 287.487 920.763 289.574 922.016 290.977L920.525 292.309ZM930.992 304.032L920.525 292.309L922.016 290.977L932.484 302.7L930.992 304.032ZM935.468 306.035C933.759 306.035 932.131 305.306 930.992 304.032L932.484 302.7C933.243 303.549 934.328 304.035 935.468 304.035V306.035ZM1009.59 306.035L935.468 306.035V304.035L1009.59 304.035V306.035ZM1015.59 300.035C1015.59 303.349 1012.9 306.035 1009.59 306.035V304.035C1011.8 304.035 1013.59 302.244 1013.59 300.035H1015.59ZM1015.59 277.228L1015.59 300.035H1013.59L1013.59 277.228H1015.59ZM1009.6 271.228C1012.91 271.236 1015.59 273.92 1015.59 277.228H1013.59C1013.59 275.023 1011.8 273.233 1009.6 273.228L1009.6 271.228ZM933.194 271.042L1009.6 271.228L1009.6 273.228L933.189 273.042L933.194 271.042ZM931.586 289.035C931.586 291.244 933.377 293.035 935.586 293.035V295.035C932.273 295.035 929.586 292.349 929.586 289.035H931.586ZM935.586 285.035C933.377 285.035 931.586 286.826 931.586 289.035H929.586C929.586 285.722 932.273 283.035 935.586 283.035V285.035ZM939.586 289.035C939.586 286.826 937.796 285.035 935.586 285.035V283.035C938.9 283.035 941.586 285.722 941.586 289.035H939.586ZM935.586 293.035C937.796 293.035 939.586 291.244 939.586 289.035H941.586C941.586 292.349 938.9 295.035 935.586 295.035V293.035Z" fill="white"/>
    <path d="M1033.16 330.391L1025.27 332.527L1038.91 351.625L1046.73 350.543L1033.16 330.391Z" fill="#3F89E4" stroke="white" stroke-width="2"/>
    <path d="M1026 342.535L1039.5 346.535C1031.67 334.702 1018.46 306.063 1021 285.035C1024.5 256.035 1035 227.352 1080.5 207.035C1040 205.535 1009.5 252.535 1008.5 285.035C1007.7 311.035 1019.83 334.202 1026 342.535Z" fill="#3F89E4" stroke="white" stroke-width="2"/>
    <path fill-rule="evenodd" clip-rule="evenodd" d="M915.906 265.036L929.139 275.462C930.02 276.157 931.11 276.535 932.233 276.535H960.15C964.04 276.535 966.444 272.293 964.437 268.959C955.856 254.704 943.336 233.874 939 226.535C934.052 218.161 927.201 220.593 923.965 223.146C923.648 223.396 923.319 223.63 922.962 223.818L916.671 227.129C915.029 227.994 914 229.697 914 231.554V261.109C914 262.641 914.702 264.088 915.906 265.036ZM926 258.535C926 260.468 924.433 262.035 922.5 262.035C920.567 262.035 919 260.468 919 258.535C919 256.602 920.567 255.035 922.5 255.035C924.433 255.035 926 256.602 926 258.535ZM952.5 271.035C954.433 271.035 956 269.468 956 267.535C956 265.602 954.433 264.035 952.5 264.035C950.567 264.035 949 265.602 949 267.535C949 269.468 950.567 271.035 952.5 271.035Z" fill="#3F89E4"/>
    <path d="M929.139 275.462L928.52 276.248L928.52 276.248L929.139 275.462ZM915.906 265.036L916.525 264.251H916.525L915.906 265.036ZM964.437 268.959L963.581 269.475L964.437 268.959ZM939 226.535L939.861 226.026L939 226.535ZM923.965 223.146L924.584 223.931L924.584 223.931L923.965 223.146ZM922.962 223.818L922.496 222.933L922.496 222.933L922.962 223.818ZM916.671 227.129L917.137 228.014L917.137 228.014L916.671 227.129ZM929.758 274.677L916.525 264.251L915.287 265.822L928.52 276.248L929.758 274.677ZM932.233 275.535C931.335 275.535 930.463 275.233 929.758 274.677L928.52 276.248C929.578 277.082 930.886 277.535 932.233 277.535V275.535ZM960.15 275.535H932.233V277.535H960.15V275.535ZM963.581 269.475C965.185 272.14 963.264 275.535 960.15 275.535V277.535C964.816 277.535 967.703 272.445 965.294 268.444L963.581 269.475ZM938.139 227.044C942.478 234.387 955 255.221 963.581 269.475L965.294 268.444C956.712 254.186 944.195 233.36 939.861 226.026L938.139 227.044ZM924.584 223.931C926.085 222.748 928.377 221.636 930.797 221.742C933.137 221.844 935.805 223.094 938.139 227.044L939.861 226.026C937.246 221.602 934.015 219.881 930.884 219.744C927.833 219.61 925.082 220.991 923.346 222.361L924.584 223.931ZM923.427 224.703C923.861 224.475 924.244 224.2 924.584 223.931L923.346 222.361C923.051 222.593 922.777 222.785 922.496 222.933L923.427 224.703ZM917.137 228.014L923.427 224.703L922.496 222.933L916.206 226.244L917.137 228.014ZM915 231.554C915 230.069 915.823 228.706 917.137 228.014L916.206 226.244C914.234 227.282 913 229.326 913 231.554H915ZM915 261.109V231.554H913V261.109H915ZM916.525 264.251C915.562 263.492 915 262.335 915 261.109H913C913 262.947 913.843 264.684 915.287 265.822L916.525 264.251ZM922.5 263.035C924.985 263.035 927 261.02 927 258.535H925C925 259.916 923.881 261.035 922.5 261.035V263.035ZM918 258.535C918 261.02 920.015 263.035 922.5 263.035V261.035C921.119 261.035 920 259.916 920 258.535H918ZM922.5 254.035C920.015 254.035 918 256.05 918 258.535H920C920 257.154 921.119 256.035 922.5 256.035V254.035ZM927 258.535C927 256.05 924.985 254.035 922.5 254.035V256.035C923.881 256.035 925 257.154 925 258.535H927ZM955 267.535C955 268.916 953.881 270.035 952.5 270.035V272.035C954.985 272.035 957 270.02 957 267.535H955ZM952.5 265.035C953.881 265.035 955 266.154 955 267.535H957C957 265.05 954.985 263.035 952.5 263.035V265.035ZM950 267.535C950 266.154 951.119 265.035 952.5 265.035V263.035C950.015 263.035 948 265.05 948 267.535H950ZM952.5 270.035C951.119 270.035 950 268.916 950 267.535H948C948 270.02 950.015 272.035 952.5 272.035V270.035Z" fill="white"/>
</g>
<g data-importantElem="true" data-option="Агрегат фронтальной мойки (АФМ)" class="hide">
    <path d="M967 260C979.667 258 1003.6 259.4 998 281C992.4 302.6 961.667 290 947 281" stroke="white" stroke-width="2"/>
    <path d="M978 267C978.667 272.333 977 284 965 288C950 293 954 311 984 317" stroke="white" stroke-width="2"/>
    <circle cx="1049.5" cy="335.5" r="4.5" fill="#3F89E4" stroke="white" stroke-width="2"/>
    <rect x="1038" y="339" width="1" height="4" fill="white"/>
    <rect x="1042" y="338.5" width="1" height="4" fill="white"/>
    <rect x="1046" y="338" width="1" height="4" fill="white"/>
    <path d="M1037.26 332H1045.57C1047.13 332 1048.54 332.953 1049.12 334.406C1050.06 336.764 1048.49 339.369 1045.97 339.635L1037.71 340.504C1035.19 340.769 1033 338.795 1033 336.264C1033 333.909 1034.91 332 1037.26 332Z" fill="#3F89E4" stroke="white" stroke-width="2"/>
    <circle cx="1033.5" cy="336.5" r="5.5" fill="#3F89E4" stroke="white" stroke-width="2"/>
    <path d="M944 266.734V315C944 317.761 946.239 320 949 320H957C957.418 320.314 957.937 320.5 958.5 320.5H1034C1036.76 320.5 1039 322.739 1039 325.5V330.25C1039 331.769 1040.23 333 1041.75 333C1043.27 333 1044.5 331.769 1044.5 330.25V320.5C1044.5 317.739 1042.26 315.5 1039.5 315.5H1030.28C1030.1 315.453 1029.91 315.429 1029.71 315.429H954.469C951.708 315.429 949.469 313.19 949.469 310.429V266.734C949.469 265.224 948.245 264 946.734 264C945.224 264 944 265.224 944 266.734Z" fill="#3F89E4" stroke="white" stroke-width="2"/>
    <rect x="932" y="235" width="53" height="33" rx="5" fill="#3F89E4" stroke="white" stroke-width="2"/>
    <path d="M934.232 232.615C934.03 230.011 931.858 228 929.246 228H925.754C923.142 228 920.97 230.011 920.768 232.615L919.03 255.115C919.01 255.371 919.01 255.629 919.03 255.885L920.768 278.385C920.97 280.989 923.142 283 925.754 283H929.246C931.858 283 934.03 280.989 934.232 278.385L935.97 255.885C935.99 255.629 935.99 255.371 935.97 255.115L934.232 232.615Z" fill="#3F89E4" stroke="white" stroke-width="2"/>
    <path d="M971 215.5C971 227.926 960.926 238 948.5 238C936.074 238 926 227.926 926 215.5C926 203.074 936.074 193 948.5 193C960.926 193 971 203.074 971 215.5Z" fill="#3F89E4" stroke="white" stroke-width="2"/>
    <path d="M968 215.5C968 226.27 959.27 235 948.5 235C937.73 235 929 226.27 929 215.5C929 204.73 937.73 196 948.5 196C959.27 196 968 204.73 968 215.5Z" fill="#3F89E4" stroke="white"/>
    <path d="M966 215.5C966 225.165 958.165 233 948.5 233C938.835 233 931 225.165 931 215.5C931 205.835 938.835 198 948.5 198C958.165 198 966 205.835 966 215.5Z" fill="#3F89E4" stroke="white"/>
    <path d="M964 215.5C964 224.06 957.06 231 948.5 231C939.94 231 933 224.06 933 215.5C933 206.94 939.94 200 948.5 200C957.06 200 964 206.94 964 215.5Z" fill="#3F89E4" stroke="white"/>
    <path d="M962 215.5C962 222.956 955.956 229 948.5 229C941.044 229 935 222.956 935 215.5C935 208.044 941.044 202 948.5 202C955.956 202 962 208.044 962 215.5Z" fill="#3F89E4" stroke="white"/>
    <path d="M960 215.5C960 221.851 954.851 227 948.5 227C942.149 227 937 221.851 937 215.5C937 209.149 942.149 204 948.5 204C954.851 204 960 209.149 960 215.5Z" fill="#3F89E4" stroke="white"/>
</g>
<g data-importantElem="true" data-option="Шнекороторное снегоуборочное оборудование" class="hide">
    <path d="M951.906 116.903C951.959 115.285 953.286 114 954.905 114H991.095C992.714 114 994.041 115.285 994.094 116.903L997.9 234.903C997.955 236.597 996.596 238 994.902 238H951.098C949.404 238 948.045 236.597 948.1 234.903L951.906 116.903Z" fill="#3F89E4" stroke="white" stroke-width="2"/>
    <path d="M959.202 140.308C959.36 141.838 960.649 143 962.186 143H982.814C984.351 143 985.64 141.838 985.798 140.308L987.658 122.308C987.841 120.539 986.453 119 984.674 119H960.326C958.547 119 957.159 120.539 957.342 122.308L959.202 140.308Z" fill="#3F89E4" stroke="white" stroke-width="2"/>
    <path d="M941.537 284.291L917.327 268.863C916.703 268.465 915.878 268.86 915.796 269.596L915.083 276.035C915.034 276.477 915.282 276.898 915.693 277.068L940.616 287.425C941.275 287.699 942 287.215 942 286.502V285.134C942 284.792 941.826 284.474 941.537 284.291Z" fill="#3F89E4" stroke="white" stroke-width="2"/>
    <path d="M941.349 235.565L917.173 244.554C916.563 244.78 915.903 244.374 915.831 243.727L915.099 237.174C915.042 236.67 915.372 236.204 915.866 236.089L940.773 230.286C941.4 230.14 942 230.616 942 231.26V234.628C942 235.045 941.74 235.419 941.349 235.565Z" fill="#3F89E4" stroke="white" stroke-width="2"/>
    <path d="M927.232 232.615C927.03 230.011 924.858 228 922.246 228H918.754C916.142 228 913.97 230.011 913.768 232.615L912.03 255.115C912.01 255.371 912.01 255.629 912.03 255.885L913.768 278.385C913.97 280.989 916.142 283 918.754 283H922.246C924.858 283 927.03 280.989 927.232 278.385L928.97 255.885C928.99 255.629 928.99 255.371 928.97 255.115L927.232 232.615Z" fill="#3F89E4" stroke="white" stroke-width="2"/>
    <path fill-rule="evenodd" clip-rule="evenodd" d="M967.042 228.027C970.795 227.993 973.246 231.952 971.542 235.296L960.993 256.002C960.298 257.366 960.267 258.974 960.908 260.365L970.376 280.907C971.903 284.22 969.483 288 965.835 288H939C936.239 288 934 285.761 934 283V233.28C934 230.536 936.211 228.305 938.955 228.28L967.042 228.027ZM946.283 245.072C944.075 245.03 942.123 246.496 941.548 248.628L939.391 256.631C939.136 257.577 939.164 258.576 939.473 259.506L942.267 267.93C942.875 269.763 944.589 271 946.52 271C948.994 271 951 268.994 951 266.52V249.879C951 247.259 948.902 245.122 946.283 245.072Z" fill="#3F89E4"/>
    <path d="M971.542 235.296L972.433 235.75V235.75L971.542 235.296ZM967.042 228.027L967.051 229.027L967.042 228.027ZM960.993 256.002L960.102 255.548L960.993 256.002ZM960.908 260.365L961.816 259.946L960.908 260.365ZM970.376 280.907L969.468 281.325L970.376 280.907ZM938.955 228.28L938.964 229.28L938.955 228.28ZM941.548 248.628L940.583 248.368V248.368L941.548 248.628ZM946.283 245.072L946.264 246.071L946.283 245.072ZM939.391 256.631L940.356 256.891L939.391 256.631ZM939.473 259.506L940.422 259.191L939.473 259.506ZM942.267 267.93L941.318 268.245L942.267 267.93ZM972.433 235.75C974.478 231.737 971.537 226.986 967.033 227.027L967.051 229.027C970.054 228.999 972.014 232.167 970.651 234.842L972.433 235.75ZM961.884 256.456L972.433 235.75L970.651 234.842L960.102 255.548L961.884 256.456ZM961.816 259.946C961.303 258.833 961.328 257.547 961.884 256.456L960.102 255.548C959.268 257.185 959.23 259.114 959.999 260.783L961.816 259.946ZM971.284 280.488L961.816 259.946L959.999 260.783L969.468 281.325L971.284 280.488ZM965.835 289C970.213 289 973.117 284.464 971.284 280.488L969.468 281.325C970.689 283.976 968.753 287 965.835 287V289ZM939 289H965.835V287H939V289ZM933 283C933 286.313 935.686 289 939 289V287C936.791 287 935 285.209 935 283H933ZM933 233.28V283H935V233.28H933ZM938.946 227.28C935.653 227.31 933 229.988 933 233.28H935C935 231.085 936.769 229.3 938.964 229.28L938.946 227.28ZM967.033 227.027L938.946 227.28L938.964 229.28L967.051 229.027L967.033 227.027ZM942.514 248.888C942.969 247.2 944.515 246.038 946.264 246.071L946.302 244.072C943.635 244.021 941.277 245.792 940.583 248.368L942.514 248.888ZM940.356 256.891L942.514 248.888L940.583 248.368L938.425 256.37L940.356 256.891ZM940.422 259.191C940.175 258.448 940.152 257.648 940.356 256.891L938.425 256.37C938.119 257.505 938.154 258.705 938.524 259.821L940.422 259.191ZM943.217 267.616L940.422 259.191L938.524 259.821L941.318 268.245L943.217 267.616ZM946.52 270C945.02 270 943.689 269.039 943.217 267.616L941.318 268.245C942.062 270.487 944.158 272 946.52 272V270ZM950 266.52C950 268.442 948.442 270 946.52 270V272C949.546 272 952 269.546 952 266.52H950ZM950 249.879V266.52H952V249.879H950ZM946.264 246.071C948.339 246.111 950 247.804 950 249.879H952C952 246.715 949.466 244.132 946.302 244.072L946.264 246.071Z" fill="white"/>
    <ellipse cx="1013" cy="324.5" rx="27" ry="26.5" fill="#3F89E4" stroke="white" stroke-width="2"/>
    <circle cx="1016.5" cy="336.5" r="26.5" fill="#3F89E4" stroke="white" stroke-width="2"/>
    <path d="M968 360V234C968 232.343 969.343 231 971 231H989.224C989.822 231 990.405 231.178 990.901 231.512L1027.68 256.288C1028.5 256.845 1029 257.778 1029 258.776V360C1029 361.657 1027.66 363 1026 363H971C969.343 363 968 361.657 968 360Z" fill="#3F89E4" stroke="white" stroke-width="2"/>
</g>
</svg>
