<svg width="30" height="30" viewBox="0 0 30 30" fill="none" xmlns="http://www.w3.org/2000/svg">
<path d="M3.92136 14.59L9.21435 16.5655L11.2631 23.1541C11.3942 23.5761 11.9102 23.7321 12.2527 23.4521L15.2031 21.0469C15.5123 20.7949 15.9528 20.7823 16.276 21.0169L21.5975 24.8804C21.9639 25.1467 22.483 24.946 22.5749 24.5032L26.4731 5.75188C26.5734 5.26826 26.0982 4.86481 25.6377 5.04291L3.91516 13.4228C3.37909 13.6296 3.38376 14.3885 3.92136 14.59ZM10.9329 15.5139L21.2774 9.14271C21.4633 9.02855 21.6546 9.27993 21.4949 9.42802L12.9577 17.3638C12.6576 17.6431 12.4641 18.0169 12.4092 18.4226L12.1184 20.5778C12.0799 20.8655 11.6757 20.8941 11.5963 20.6156L10.4778 16.6856C10.3497 16.2374 10.5364 15.7586 10.9329 15.5139Z" fill="white"/>
</svg>
