<svg width="340" height="40" viewBox="0 0 340 40" fill="none" xmlns="http://www.w3.org/2000/svg">
<mask id="mask0_556_4457" style="mask-type:alpha" maskUnits="userSpaceOnUse" x="0" y="0" width="340" height="40">
<rect width="340" height="40" fill="#1B74E3"/>
</mask>
<g mask="url(#mask0_556_4457)">
<path opacity="0.15" d="M4 0H14L-6 40H-16L4 0Z" fill="white"/>
<path opacity="0.14" d="M29 0H39L19 40H9L29 0Z" fill="white"/>
<path opacity="0.13" d="M54 0H64L44 40H34L54 0Z" fill="white"/>
<path opacity="0.12" d="M79 0H89L69 40H59L79 0Z" fill="white"/>
<path opacity="0.11" d="M104 0H114L94 40H84L104 0Z" fill="white"/>
<path opacity="0.1" d="M129 0H139L119 40H109L129 0Z" fill="white"/>
<path opacity="0.09" d="M154 0H164L144 40H134L154 0Z" fill="white"/>
<path opacity="0.08" d="M179 0H189L169 40H159L179 0Z" fill="white"/>
<path opacity="0.07" d="M204 0H214L194 40H184L204 0Z" fill="white"/>
<path opacity="0.06" d="M229 0H239L219 40H209L229 0Z" fill="white"/>
<path opacity="0.05" d="M254 0H264L244 40H234L254 0Z" fill="white"/>
<path opacity="0.04" d="M279 0H289L269 40H259L279 0Z" fill="white"/>
<path opacity="0.03" d="M304 0H314L294 40H284L304 0Z" fill="white"/>
<path opacity="0.02" d="M329 0H339L319 40H309L329 0Z" fill="white"/>
<path opacity="0.02" d="M347 0H357L337 40H327L347 0Z" fill="white"/>
</g>
</svg>
