<svg width="846" height="399" viewBox="0 0 846 399" fill="none" xmlns="http://www.w3.org/2000/svg">
<path d="M568.344 232.885L37.4354 223.543L23.7535 317.655C30.1191 322.478 37.5613 325.682 45.4395 326.99C55.1371 327.289 55.1371 319.27 55.1371 319.27L59.1071 317.968L79.1851 298.295L105.482 298.601C107.255 301.744 109.757 304.416 112.776 306.393C115.795 308.37 119.245 309.595 122.835 309.964C125.966 309.948 129.01 308.935 131.526 307.071C134.041 305.206 135.897 302.588 136.822 299.597C142.089 301.363 147.224 303.498 152.19 305.986L152.88 344.01L155.542 345.34V307.295L170.241 313.969L294.7 348.307L308.526 347.877L316.286 347.347V331.864L563.783 333.856H579.294V352.327H594.79L596.305 347.347L731.43 350.349L762.508 339.328L776.524 327.986L785.524 270.204L733.635 206.78L620.645 210.543L594.014 240.932L593.295 258.229L597.977 262.89L587.974 278.273L584.637 268.233H569.938L568.344 232.885Z" fill="#3F89E4"/>
<path d="M22.235 298.802L12.2037 335.303L19.2543 336.839L31.7478 303.298L22.235 298.802Z" fill="#3F89E4"/>
<path d="M22.235 298.802L12.2037 335.303L19.2543 336.839L31.7478 303.298L22.235 298.802Z" stroke="white" stroke-width="2"/>
<path d="M5.18688 267.262C3.73504 268.758 2.61502 270.542 1.90001 272.5C1.185 274.458 0.890976 276.544 1.03736 278.623C1.18375 280.703 1.76713 282.727 2.74941 284.565C3.7317 286.404 5.09078 288.014 6.73782 289.291C13.2479 295.282 35.7593 314.287 35.7593 314.287L34.2509 257.252L21.2309 244.729L5.18688 267.262Z" fill="#3F89E4"/>
<path d="M5.18688 267.262C3.73504 268.758 2.61503 270.542 1.90001 272.5C1.185 274.458 0.890978 276.544 1.03736 278.623C1.18375 280.703 1.76713 282.727 2.74941 284.565C3.7317 286.404 5.09078 288.014 6.73782 289.291C13.2479 295.282 35.7593 314.287 35.7593 314.287L34.2509 257.252L21.2309 244.729L5.18688 267.262Z" stroke="white" stroke-width="2"/>
<path d="M59.0335 19.0935C58.4841 18.9749 57.9168 18.9659 57.3638 19.067C56.8109 19.1681 56.2833 19.3774 55.8114 19.6828C55.3395 19.9882 54.9325 20.3837 54.6137 20.8467C54.2949 21.3096 54.0706 21.8309 53.9536 22.3807L35.7538 110.082C35.5232 111.191 35.7421 112.346 36.3624 113.293C36.9828 114.24 37.9538 114.902 39.0622 115.134L43.4592 116.066C44.5635 116.289 45.7113 116.068 46.6532 115.45C47.5951 114.832 48.255 113.867 48.4894 112.765L66.7318 25.0205C66.9493 23.9142 66.7259 22.7665 66.1091 21.8227C65.4923 20.8789 64.5311 20.2135 63.4306 19.9686L59.0335 19.0935Z" fill="#3F89E4"/>
<path d="M59.0335 19.0935C58.4841 18.9749 57.9168 18.9659 57.3638 19.067C56.8109 19.1681 56.2833 19.3774 55.8114 19.6828C55.3395 19.9882 54.9325 20.3837 54.6137 20.8467C54.2949 21.3096 54.0706 21.8309 53.9536 22.3807L35.7538 110.082C35.5232 111.191 35.7421 112.346 36.3624 113.293C36.9828 114.24 37.9538 114.902 39.0622 115.134L43.4592 116.066C44.5635 116.289 45.7113 116.068 46.6532 115.45C47.5951 114.832 48.255 113.867 48.4894 112.765L66.7318 25.0205C66.9493 23.9142 66.7259 22.7665 66.1091 21.8227C65.4923 20.8789 64.5311 20.2135 63.4306 19.9686L59.0335 19.0935Z" stroke="white" stroke-width="2"/>
<path d="M56.1806 7.75345C55.2019 7.56812 54.1895 7.77549 53.3627 8.33082C52.5358 8.88615 51.9609 9.74481 51.7622 10.7209L40.0584 70.6518C39.8707 71.6286 40.078 72.6399 40.6351 73.4638C41.1923 74.2877 42.0537 74.8568 43.03 75.0463C44.0064 75.2357 45.0179 75.0299 45.8427 74.4741C46.6675 73.9184 47.2381 73.058 47.4292 72.0819L59.1474 12.1652C59.3344 11.1873 59.1276 10.175 58.572 9.34876C58.0163 8.52257 57.1568 7.94944 56.1806 7.75389" fill="#3F89E4"/>
<path d="M56.1805 7.75345C55.2019 7.56812 54.1895 7.77549 53.3626 8.33082C52.5358 8.88615 51.9609 9.74481 51.7622 10.7209L40.0584 70.6518C39.8706 71.6286 40.0779 72.6399 40.6351 73.4638C41.1922 74.2877 42.0536 74.8568 43.03 75.0463C44.0063 75.2357 45.0178 75.0299 45.8426 74.4741C46.6675 73.9184 47.2381 73.058 47.4292 72.0819L59.1473 12.1652C59.3344 11.1872 59.1276 10.1748 58.5719 9.34854C58.0163 8.52227 57.1568 7.94901 56.1805 7.75345V7.75345Z" stroke="white" stroke-width="2"/>
<path d="M492.524 42.044L432.17 14.9709L69.7758 8.98705L55.7667 2L51.7611 11.9683L56.2422 37.8495L492.524 42.044Z" fill="#3F89E4"/>
<path d="M492.524 42.044L432.17 14.9709L69.7758 8.98705L55.7667 2L51.7611 11.9683L56.2422 38.8738L63.7778 45.0253L492.524 42.044Z" stroke="white" stroke-width="2"/>
<path d="M540.682 51.2505C539.248 49.8163 538.27 47.989 537.874 45.9994C537.478 44.0098 537.681 41.9474 538.457 40.0731C539.233 38.1988 540.547 36.5967 542.234 35.4696C543.921 34.3424 545.904 33.7407 547.932 33.7407C549.961 33.7407 551.944 34.3424 553.63 35.4696C555.317 36.5967 556.631 38.1988 557.408 40.0731C558.184 41.9474 558.386 44.0098 557.99 45.9994C557.594 47.989 556.617 49.8163 555.182 51.2505C554.235 52.2111 553.106 52.9739 551.862 53.4946C550.617 54.0152 549.281 54.2832 547.932 54.2832C546.583 54.2832 545.248 54.0152 544.003 53.4946C542.758 52.9739 541.63 52.2111 540.682 51.2505Z" fill="#3F89E4"/>
<path d="M606.65 35.3247C599.923 42.3838 594.807 50.8168 591.652 60.0432C584.302 76.3938 584.217 151.715 584.637 177.522C585.135 208.309 596.269 213.104 597.18 214.3C597.557 214.812 600.332 214.869 600.332 214.869L610.335 42.0419L606.65 35.3247Z" fill="#3F89E4"/>
<path d="M606.65 35.3247C599.923 42.3838 594.807 50.8168 591.652 60.0432C584.302 76.3938 584.217 151.715 584.637 177.522C585.135 208.309 596.269 213.104 597.18 214.3C597.557 214.812 600.332 214.869 600.332 214.869L610.335 42.0419L606.65 35.3247Z" stroke="white" stroke-width="2"/>
<path d="M111.295 294.666C109.132 294.709 107.41 293.613 107.41 291.493L107.054 278.145C106.997 276.053 108.69 275.263 110.853 275.249C112.952 275.221 114.71 275.939 114.724 278.045L115.065 291.365C115.101 293.514 113.422 294.666 111.295 294.666Z" fill="#3F89E4"/>
<path d="M111.295 294.666C109.132 294.709 107.41 293.613 107.41 291.493L107.054 278.145C106.997 276.053 108.69 275.263 110.853 275.249C112.952 275.221 114.71 275.939 114.724 278.045L115.065 291.365C115.101 293.514 113.422 294.666 111.295 294.666Z" stroke="white" stroke-width="2"/>
<path d="M120.426 281.882C120.085 281.888 119.745 281.827 119.427 281.702C119.11 281.577 118.819 281.39 118.574 281.153C118.328 280.916 118.132 280.633 117.996 280.319C117.86 280.006 117.787 279.669 117.781 279.328C117.776 278.986 117.837 278.647 117.963 278.329C118.089 278.012 118.276 277.722 118.513 277.477C118.751 277.232 119.035 277.036 119.349 276.9C119.662 276.765 119.999 276.693 120.341 276.688L122.297 276.652C122.986 276.643 123.651 276.908 124.146 277.388C124.64 277.868 124.925 278.525 124.937 279.214C124.931 279.908 124.656 280.572 124.171 281.068C123.685 281.565 123.026 281.853 122.333 281.875L120.426 281.882Z" fill="#3F89E4"/>
<path d="M120.426 281.882C120.085 281.888 119.745 281.827 119.427 281.702C119.11 281.577 118.819 281.39 118.574 281.153C118.328 280.916 118.132 280.633 117.996 280.319C117.86 280.006 117.787 279.669 117.781 279.328C117.776 278.986 117.837 278.647 117.963 278.329C118.089 278.012 118.276 277.722 118.513 277.477C118.751 277.232 119.035 277.036 119.349 276.9C119.662 276.765 119.999 276.693 120.341 276.688L122.297 276.652C122.986 276.643 123.651 276.908 124.146 277.388C124.64 277.868 124.925 278.525 124.937 279.214C124.931 279.908 124.656 280.572 124.171 281.068C123.685 281.565 123.026 281.853 122.333 281.875L120.426 281.882Z" stroke="white" stroke-width="2"/>
<path d="M120.41 306.979C120.232 306.139 120.88 299.793 120.88 299.793L112.982 299.714C112.982 299.714 111.68 301.707 112.242 302.938C114.762 304.661 117.512 306.021 120.41 306.979Z" fill="#3F89E4"/>
<path d="M120.41 306.979C120.232 306.139 120.88 299.793 120.88 299.793L112.982 299.714C112.982 299.714 111.68 301.707 112.242 302.938C114.762 304.661 117.512 306.021 120.41 306.979V306.979Z" stroke="white" stroke-width="2"/>
<path d="M126.919 297.847L126.891 294.269L132.085 294.19L132.135 297.783L126.919 297.847Z" fill="#3F89E4"/>
<path d="M126.919 297.847L126.891 294.269L132.085 294.19L132.135 297.783L126.919 297.847Z" stroke="white" stroke-width="2"/>
<path d="M311.034 267.786L264.481 237.696H202.938L153.859 266.783L16.3796 262.976L56.7545 38.0095L310.774 38.0095H582.286L578.878 271.251L311.034 267.786Z" fill="#3F89E4"/>
<path d="M311.034 38.0095L56.2423 38.0096L16.3797 262.976L153.859 266.783L202.938 237.696H264.481L311.034 267.786V267.906M311.034 38.0095L582.286 38.0095L578.878 271.251L311.034 267.906M311.034 38.0095V267.906" stroke="white" stroke-width="2"/>
<path d="M345.588 154.781C342.788 154.786 340.048 153.959 337.717 152.406C335.386 150.853 333.568 148.644 332.493 146.057C331.418 143.471 331.134 140.624 331.678 137.876C332.221 135.128 333.567 132.603 335.545 130.62C337.524 128.638 340.046 127.287 342.793 126.738C345.539 126.189 348.387 126.467 350.975 127.537C353.564 128.607 355.777 130.42 357.335 132.748C358.892 135.076 359.724 137.814 359.726 140.615C359.726 144.368 358.238 147.967 355.587 150.623C352.937 153.279 349.341 154.775 345.588 154.781Z" fill="#3F89E4"/>
<path d="M38.8281 138.557C37.7405 138.849 36.5816 138.702 35.6018 138.147C34.6219 137.592 33.8999 136.673 33.5916 135.59L29.9914 123.096C29.7008 122.01 29.8452 120.854 30.394 119.873C30.9428 118.893 31.8526 118.165 32.9298 117.845L44.4701 114.55C45.0055 114.393 45.5666 114.344 46.1212 114.405C46.6758 114.465 47.2129 114.635 47.7016 114.904C48.1903 115.174 48.621 115.537 48.9688 115.973C49.3166 116.409 49.5746 116.91 49.7281 117.446L53.3068 129.969C53.4643 130.503 53.5135 131.064 53.4516 131.618C53.3897 132.171 53.2178 132.707 52.9461 133.193C52.6744 133.68 52.3084 134.107 51.8694 134.45C51.4304 134.793 50.9273 135.045 50.3897 135.192L38.8281 138.557Z" fill="#3F89E4"/>
<path d="M38.8281 138.557C37.7405 138.849 36.5816 138.702 35.6018 138.147C34.6219 137.592 33.8999 136.673 33.5916 135.59L29.9914 123.096C29.7008 122.01 29.8452 120.854 30.394 119.873C30.9428 118.893 31.8526 118.165 32.9298 117.845L44.4701 114.55C45.0055 114.393 45.5666 114.344 46.1212 114.405C46.6758 114.465 47.2129 114.635 47.7016 114.904C48.1903 115.174 48.621 115.537 48.9688 115.973C49.3166 116.409 49.5746 116.91 49.7281 117.446L53.3068 129.969C53.4643 130.503 53.5135 131.064 53.4516 131.618C53.3897 132.171 53.2178 132.707 52.9461 133.193C52.6744 133.68 52.3084 134.107 51.8694 134.45C51.4304 134.793 50.9273 135.045 50.3897 135.192L38.8281 138.557Z" stroke="white" stroke-width="2"/>
<path d="M34.7368 282.729H20.7556" stroke="white" stroke-width="2"/>
<path d="M33.7626 302.546C35.1642 300.924 34.1964 297.722 31.5995 295.36C28.967 293.012 25.73 292.436 24.2643 294.022C22.8271 295.616 23.7946 298.825 26.4271 301.145C28.9956 303.55 32.304 304.126 33.7626 302.546Z" fill="#3F89E4"/>
<path d="M33.7626 302.546C35.1642 300.924 34.1964 297.722 31.5995 295.36C28.967 293.012 25.73 292.436 24.2643 294.022C22.8271 295.616 23.7946 298.825 26.4271 301.145C28.9957 303.55 32.3042 304.126 33.7626 302.546Z" stroke="white" stroke-width="2"/>
<path d="M30.0612 308.153C31.2352 306.894 30.4525 304.304 28.3678 302.432C26.2547 300.511 23.6151 300.006 22.4767 301.294C21.2957 302.582 22.0357 305.186 24.1701 307.1C26.2548 308.986 28.9157 309.491 30.0612 308.153Z" fill="#3F89E4"/>
<path d="M30.0612 308.153C31.2352 306.894 30.4525 304.304 28.3678 302.432C26.2547 300.511 23.6151 300.006 22.4767 301.294C21.2957 302.582 22.0357 305.186 24.1701 307.1C26.255 308.986 28.9159 309.491 30.0612 308.153Z" stroke="white" stroke-width="2"/>
<path d="M301.507 267.262L265.506 243.206C265.506 243.206 203.437 239.712 202.433 241.228C201.409 242.715 157.895 270.236 157.895 270.236L162.356 271.759L203.927 246.713H261.949L295.517 268.23L301.507 267.262Z" fill="#3F89E4"/>
<path d="M301.507 267.262L265.506 243.206C265.506 243.206 203.437 239.712 202.433 241.228C201.409 242.715 157.895 270.236 157.895 270.236L162.356 271.759L203.927 246.713H261.949L295.517 268.23L301.507 267.262Z" stroke="white" stroke-width="2"/>
<path d="M614.31 262.763L605.288 261.233L582.798 301.804L581.78 350.358L592.787 350.813L593.776 306.792L614.31 262.763Z" fill="#3F89E4"/>
<path d="M614.31 262.763L605.288 261.233L582.798 301.804L581.78 350.358L592.787 350.813L593.776 306.792L614.31 262.763Z" stroke="white" stroke-width="2"/>
<path d="M413.944 332.82C409.113 333.489 371.739 329.219 369.832 329.106C368.488 329.02 370.928 324.787 371.02 323.442C371.387 317.744 374 312.424 378.286 308.651C382.572 304.878 388.18 302.961 393.879 303.32C399.577 303.679 404.9 306.286 408.678 310.567C412.457 314.848 414.381 320.454 414.03 326.153C413.916 327.633 415.538 332.585 413.944 332.82Z" fill="#3F89E4"/>
<path d="M413.944 332.82C409.113 333.489 371.739 329.219 369.832 329.106C368.487 329.02 370.928 324.787 371.02 323.442C371.387 317.744 374 312.424 378.286 308.651C382.572 304.878 388.18 302.961 393.879 303.32C399.577 303.679 404.9 306.286 408.678 310.567C412.456 314.848 414.381 320.454 414.029 326.153C413.916 327.633 415.538 332.585 413.944 332.82Z" stroke="white" stroke-width="2"/>
<path d="M409.919 311.781L376.892 310.301" stroke="white" stroke-width="2"/>
<path d="M399.788 310.815L403.039 331.563" stroke="white" stroke-width="2"/>
<path d="M424.392 331.29L422.934 339.301L455.983 377.389L319.826 366.374L355.813 333.858L357.876 324.843L424.392 331.29Z" fill="#3F89E4"/>
<path d="M424.392 331.29L422.934 339.301L455.983 377.389L319.826 366.374L355.813 333.858L357.876 324.843L424.392 331.29Z" stroke="white" stroke-width="2"/>
<path d="M422.935 339.297L355.806 333.861" stroke="white" stroke-width="2"/>
<path d="M414.949 338.803L436.472 374.849" stroke="white" stroke-width="2"/>
<path d="M406.409 337.824L419.45 373.841" stroke="white" stroke-width="2"/>
<path d="M399.917 337.824L405.951 372.852" stroke="white" stroke-width="2"/>
<path d="M393.399 336.344V371.849" stroke="white" stroke-width="2"/>
<path d="M387.414 336.829L381.359 370.861" stroke="white" stroke-width="2"/>
<path d="M380.861 335.836L369.42 370.366" stroke="white" stroke-width="2"/>
<path d="M373.387 335.301L354.86 369.326" stroke="white" stroke-width="2"/>
<path d="M364.866 334.842L339.858 367.892" stroke="white" stroke-width="2"/>
<path d="M296.442 323.496C295.384 323.592 294.407 324.099 293.719 324.908C293.032 325.717 292.688 326.763 292.763 327.822C292.806 328.348 292.953 328.861 293.194 329.33C293.436 329.799 293.768 330.216 294.171 330.557C294.575 330.897 295.041 331.155 295.545 331.314C296.048 331.474 296.577 331.532 297.103 331.486L373.936 325.14C374.988 325.039 375.957 324.529 376.635 323.718C377.312 322.908 377.642 321.863 377.554 320.81C377.466 319.758 376.967 318.782 376.164 318.096C375.362 317.409 374.321 317.066 373.268 317.142L296.442 323.496Z" fill="#3F89E4"/>
<path d="M296.442 323.496C295.384 323.592 294.407 324.099 293.719 324.908C293.032 325.717 292.688 326.763 292.763 327.822C292.806 328.348 292.953 328.861 293.194 329.33C293.436 329.799 293.768 330.216 294.171 330.557C294.575 330.897 295.041 331.155 295.545 331.314C296.048 331.474 296.577 331.532 297.103 331.486L373.936 325.14C374.988 325.039 375.957 324.529 376.635 323.718C377.312 322.908 377.642 321.863 377.554 320.81C377.466 319.758 376.967 318.782 376.164 318.096C375.362 317.409 374.321 317.066 373.268 317.142L296.442 323.496Z" stroke="white" stroke-width="2"/>
<path d="M366.405 316.999L366.874 324.99" stroke="white" stroke-width="2"/>
<path d="M359.108 312.816C359.108 312.816 340.737 310.376 335.778 309.97C330.762 309.522 330.314 315.022 335.821 315.47C343.637 315.141 351.419 314.254 359.108 312.816V312.816Z" stroke="white" stroke-width="2"/>
<path d="M304.303 316.429C303.523 316.494 302.741 316.321 302.061 315.934C301.38 315.547 300.832 314.964 300.489 314.261C300.145 313.557 300.021 312.767 300.134 311.992C300.246 311.217 300.59 310.495 301.12 309.918C301.65 309.342 302.341 308.939 303.104 308.762C303.866 308.584 304.664 308.641 305.394 308.925C306.123 309.209 306.751 309.706 307.193 310.352C307.636 310.997 307.873 311.762 307.875 312.545C307.916 313.533 307.563 314.498 306.893 315.226C306.223 315.955 305.292 316.388 304.303 316.429V316.429Z" stroke="white" stroke-width="2"/>
<path d="M381.362 325.469C380.565 325.519 379.78 325.252 379.179 324.726C378.577 324.199 378.209 323.456 378.154 322.659V305.639C378.256 304.851 378.641 304.126 379.238 303.601C379.835 303.076 380.603 302.786 381.398 302.786C382.193 302.786 382.961 303.076 383.558 303.601C384.155 304.126 384.54 304.851 384.642 305.639V322.659C384.612 323.059 384.503 323.449 384.322 323.807C384.141 324.165 383.89 324.484 383.586 324.745C383.281 325.006 382.928 325.204 382.546 325.329C382.165 325.453 381.762 325.501 381.362 325.469Z" fill="#3F89E4"/>
<path d="M381.362 325.469C380.565 325.519 379.78 325.252 379.179 324.726C378.577 324.199 378.209 323.456 378.154 322.659V305.639C378.256 304.851 378.641 304.126 379.238 303.601C379.835 303.076 380.603 302.786 381.398 302.786C382.193 302.786 382.961 303.076 383.558 303.601C384.155 304.126 384.54 304.851 384.642 305.639V322.659C384.612 323.059 384.503 323.449 384.322 323.807C384.141 324.165 383.89 324.484 383.586 324.745C383.281 325.006 382.928 325.204 382.546 325.329C382.165 325.453 381.762 325.501 381.362 325.469Z" stroke="white" stroke-width="2"/>
<path d="M345.585 286.245C345.098 286.335 344.597 286.328 344.112 286.224C343.627 286.119 343.168 285.92 342.761 285.636C342.354 285.353 342.008 284.992 341.741 284.574C341.475 284.155 341.294 283.688 341.21 283.2C341.062 282.214 341.302 281.211 341.879 280.399C342.456 279.587 343.326 279.03 344.305 278.845L378.448 273.26C379.431 273.11 380.433 273.347 381.245 273.92C382.056 274.493 382.615 275.358 382.803 276.333C382.959 277.32 382.718 278.328 382.132 279.138C381.547 279.947 380.665 280.492 379.679 280.652L345.585 286.245Z" stroke="white" stroke-width="2"/>
<path d="M564.999 323.711C564.163 323.709 563.363 323.376 562.772 322.786C562.181 322.195 561.849 321.394 561.847 320.559C561.841 319.926 562.023 319.306 562.37 318.778C562.717 318.249 563.215 317.836 563.798 317.591C564.381 317.346 565.023 317.28 565.644 317.402C566.264 317.524 566.835 317.828 567.282 318.275C567.729 318.722 568.033 319.292 568.155 319.913C568.277 320.534 568.211 321.177 567.966 321.76C567.721 322.343 567.308 322.84 566.779 323.188C566.251 323.535 565.631 323.717 564.999 323.711Z" fill="#3F89E4"/>
<path d="M564.999 323.711C564.163 323.709 563.363 323.376 562.772 322.786C562.181 322.195 561.849 321.394 561.847 320.559C561.841 319.926 562.023 319.306 562.37 318.777C562.717 318.249 563.215 317.836 563.798 317.591C564.381 317.346 565.023 317.28 565.644 317.402C566.264 317.524 566.835 317.828 567.282 318.275C567.729 318.722 568.033 319.292 568.155 319.913C568.277 320.534 568.211 321.177 567.966 321.76C567.721 322.343 567.308 322.84 566.779 323.188C566.251 323.535 565.631 323.717 564.999 323.711V323.711Z" stroke="white" stroke-width="2"/>
<path d="M45.9435 109.881C45.3964 109.764 44.8314 109.756 44.2812 109.858C43.731 109.96 43.2065 110.17 42.7377 110.475C42.2688 110.781 41.8651 111.176 41.5495 111.638C41.234 112.1 41.0131 112.62 40.8992 113.168L4.74167 284.273C4.6153 284.819 4.59981 285.384 4.69629 285.935C4.79276 286.487 4.99915 287.013 5.30316 287.483C5.60717 287.953 6.00255 288.357 6.46588 288.671C6.9292 288.985 7.45095 289.203 8.0001 289.311L13.5783 290.463C14.1242 290.584 14.6887 290.596 15.2389 290.496C15.7892 290.397 16.3142 290.189 16.7836 289.886C17.2529 289.582 17.657 289.188 17.9728 288.726C18.2885 288.265 18.5094 287.745 18.6226 287.198L54.7659 116.092C54.8856 115.547 54.8954 114.983 54.7943 114.433C54.6932 113.884 54.4834 113.36 54.1772 112.893C53.8711 112.426 53.4746 112.024 53.0112 111.713C52.5479 111.401 52.027 111.184 51.479 111.076L45.9435 109.881Z" fill="#3F89E4"/>
<path d="M45.9435 109.881C45.3964 109.764 44.8314 109.756 44.2812 109.858C43.731 109.96 43.2065 110.17 42.7377 110.475C42.2688 110.781 41.8651 111.176 41.5495 111.638C41.234 112.1 41.0131 112.62 40.8992 113.168L4.74167 284.273C4.6153 284.819 4.59981 285.384 4.69629 285.935C4.79276 286.487 4.99914 287.013 5.30316 287.483C5.60717 287.953 6.00255 288.357 6.46588 288.671C6.9292 288.985 7.45095 289.203 8.0001 289.311L13.5783 290.463C14.1242 290.584 14.6887 290.596 15.2389 290.496C15.7892 290.397 16.3142 290.189 16.7835 289.886C17.2529 289.582 17.657 289.188 17.9728 288.726C18.2885 288.265 18.5094 287.745 18.6226 287.198L54.7659 116.092C54.8856 115.547 54.8954 114.983 54.7943 114.433C54.6932 113.884 54.4834 113.36 54.1772 112.893C53.8711 112.426 53.4746 112.024 53.0112 111.713C52.5479 111.401 52.027 111.184 51.479 111.076L45.9435 109.881Z" stroke="white" stroke-width="2"/>
<path d="M49.0278 111.048L13.24 280.268" stroke="white" stroke-width="2"/>
<path d="M4.00542 278.825C2.99577 278.328 2.22296 277.453 1.85521 276.39C1.48746 275.326 1.55451 274.161 2.04172 273.147L2.44732 272.286C2.68711 271.776 3.02648 271.319 3.44567 270.943C3.86485 270.567 4.35526 270.278 4.88783 270.094C5.42039 269.911 5.98438 269.835 6.54646 269.873C7.10855 269.911 7.65727 270.061 8.16037 270.315L23.4574 277.686C24.4733 278.186 25.2516 279.065 25.6244 280.135C25.9971 281.204 25.9345 282.377 25.4496 283.4L25.0227 284.275C24.5259 285.284 23.6502 286.056 22.5867 286.423C21.5232 286.789 20.3581 286.721 19.345 286.232L4.00542 278.825Z" fill="#3F89E4"/>
<path d="M4.00542 278.825C2.99577 278.328 2.22296 277.453 1.85521 276.39C1.48746 275.326 1.55451 274.161 2.04172 273.147L2.44732 272.286C2.68711 271.776 3.02648 271.319 3.44567 270.943C3.86485 270.567 4.35526 270.278 4.88783 270.094C5.42039 269.911 5.98438 269.835 6.54646 269.873C7.10855 269.911 7.65727 270.061 8.16037 270.315L23.4574 277.686C24.4733 278.186 25.2516 279.065 25.6244 280.135C25.9971 281.204 25.9345 282.377 25.4496 283.4L25.0227 284.275C24.5259 285.284 23.6502 286.056 22.5867 286.423C21.5232 286.789 20.3581 286.721 19.345 286.232L4.00542 278.825Z" stroke="white" stroke-width="2"/>
<path d="M236.306 369.466C228.893 369.465 221.647 367.266 215.485 363.146C209.322 359.026 204.52 353.171 201.686 346.321C198.852 339.471 198.113 331.934 199.563 324.664C201.013 317.395 204.587 310.718 209.832 305.48C215.077 300.241 221.758 296.676 229.029 295.236C236.301 293.796 243.836 294.545 250.682 297.388C257.528 300.231 263.376 305.042 267.488 311.21C271.599 317.378 273.789 324.627 273.78 332.04C273.772 341.972 269.819 351.495 262.792 358.513C255.765 365.531 246.238 369.471 236.306 369.466Z" fill="white"/>
<path d="M235.473 282.465C222.398 282.466 209.857 287.653 200.602 296.889C191.347 306.125 186.132 318.655 186.103 331.731H171.461C171.512 314.389 178.436 297.775 190.716 285.531C202.996 273.287 219.63 266.411 236.971 266.411C254.312 266.411 270.945 273.287 283.225 285.531C295.505 297.775 302.429 314.389 302.48 331.731H284.878C284.851 318.649 279.633 306.112 270.369 296.875C261.106 287.638 248.555 282.455 235.473 282.465Z" fill="#3F89E4"/>
<path d="M235.473 282.465C222.398 282.466 209.857 287.653 200.602 296.889C191.347 306.125 186.132 318.655 186.103 331.731H171.461C171.512 314.389 178.436 297.775 190.716 285.531C202.996 273.287 219.63 266.411 236.971 266.411C254.312 266.411 270.945 273.287 283.225 285.531C295.505 297.775 302.429 314.389 302.48 331.731H284.878C284.851 318.649 279.633 306.112 270.369 296.875C261.106 287.638 248.555 282.455 235.473 282.465Z" stroke="white" stroke-width="2"/>
<path d="M186.103 331.729V331.886C186.103 344.986 191.307 357.549 200.57 366.812C209.832 376.075 222.395 381.279 235.494 381.279C248.594 381.279 261.157 376.075 270.419 366.812C279.682 357.549 284.886 344.986 284.886 331.886V331.729H302.48V331.886C302.455 349.244 295.542 365.883 283.259 378.148C270.976 390.413 254.328 397.302 236.971 397.302C219.613 397.302 202.965 390.413 190.682 378.148C178.4 365.883 171.486 349.244 171.461 331.886V331.729H186.103Z" fill="#3F89E4"/>
<path d="M186.103 331.729V331.886C186.103 344.986 191.307 357.549 200.57 366.812C209.832 376.075 222.395 381.279 235.494 381.279C248.594 381.279 261.157 376.075 270.419 366.812C279.682 357.549 284.886 344.986 284.886 331.886V331.729H302.48V331.886C302.455 349.244 295.542 365.883 283.259 378.148C270.976 390.413 254.328 397.302 236.971 397.302C219.613 397.302 202.965 390.413 190.682 378.148C178.4 365.883 171.486 349.244 171.461 331.886V331.729H186.103Z" stroke="#3F89E4" stroke-width="2"/>
<path d="M235.477 282.465C248.559 282.455 261.11 287.637 270.373 296.874C279.637 306.112 284.855 318.648 284.883 331.73H273.236C273.236 321.938 269.346 312.547 262.422 305.623C255.499 298.699 246.108 294.81 236.317 294.81C226.525 294.81 217.135 298.699 210.211 305.623C203.288 312.547 199.398 321.938 199.398 331.73H186.107C186.137 318.655 191.351 306.124 200.606 296.889C209.861 287.653 222.402 282.466 235.477 282.465Z" fill="#3F89E4"/>
<path d="M235.477 282.465C248.559 282.455 261.11 287.637 270.373 296.874C279.637 306.112 284.855 318.648 284.883 331.73H273.236C273.236 321.938 269.346 312.547 262.422 305.623C255.499 298.699 246.108 294.81 236.317 294.81C226.525 294.81 217.135 298.699 210.211 305.623C203.288 312.547 199.398 321.938 199.398 331.73H186.107C186.137 318.655 191.351 306.124 200.606 296.889C209.861 287.653 222.402 282.466 235.477 282.465Z" stroke="white" stroke-width="2"/>
<path d="M199.397 331.882C199.397 341.674 203.287 351.065 210.21 357.989C217.134 364.913 226.524 368.803 236.316 368.803C246.107 368.803 255.498 364.913 262.421 357.989C269.345 351.065 273.235 341.674 273.235 331.882V331.733H284.889V331.882C284.866 344.969 279.653 357.512 270.392 366.757C261.131 376.003 248.58 381.195 235.494 381.195C222.408 381.195 209.857 376.003 200.596 366.757C191.335 357.512 186.122 344.969 186.099 331.882V331.733H199.397V331.882Z" fill="#3F89E4"/>
<path d="M199.397 331.882C199.397 341.674 203.287 351.065 210.21 357.989C217.134 364.913 226.524 368.803 236.316 368.803C246.107 368.803 255.498 364.913 262.421 357.989C269.345 351.065 273.235 341.674 273.235 331.882V331.733H284.889V331.882C284.866 344.969 279.653 357.512 270.392 366.757C261.131 376.003 248.58 381.195 235.494 381.195C222.408 381.195 209.857 376.003 200.596 366.757C191.335 357.512 186.122 344.969 186.099 331.882V331.733H199.397V331.882Z" stroke="white" stroke-width="2"/>
<path d="M236.308 367.833C229.224 367.826 222.302 365.719 216.417 361.778C210.531 357.837 205.946 352.24 203.241 345.693C200.536 339.146 199.834 331.944 201.221 324.998C202.609 318.052 206.025 311.673 211.037 306.668C216.05 301.664 222.434 298.258 229.382 296.881C236.33 295.504 243.53 296.219 250.072 298.934C256.614 301.649 262.204 306.243 266.136 312.136C270.067 318.028 272.163 324.953 272.159 332.037C272.156 336.742 271.226 341.4 269.423 345.745C267.619 350.09 264.977 354.037 261.648 357.362C258.319 360.686 254.367 363.321 250.019 365.118C245.671 366.915 241.012 367.837 236.308 367.833Z" fill="#3F89E4"/>
<path d="M236.308 366.68C229.456 366.666 222.762 364.621 217.071 360.803C211.381 356.985 206.95 351.566 204.338 345.231C201.727 338.896 201.052 331.928 202.399 325.209C203.746 318.49 207.054 312.322 211.906 307.483C216.758 302.644 222.935 299.352 229.657 298.022C236.379 296.693 243.345 297.387 249.673 300.015C256.001 302.644 261.408 307.089 265.21 312.79C269.012 318.491 271.04 325.191 271.036 332.043C271.033 336.599 270.133 341.11 268.386 345.317C266.639 349.524 264.079 353.346 260.854 356.563C257.628 359.78 253.8 362.329 249.588 364.065C245.376 365.801 240.864 366.69 236.308 366.68Z" fill="#3F89E4"/>
<path d="M230.448 355.18C234.332 354.844 238.238 354.87 242.117 355.259C242.892 355.621 241.483 359.99 240.772 360.588C237.943 361.068 235.056 361.09 232.22 360.652C231.523 359.99 229.936 355.693 230.448 355.18Z" fill="white"/>
<path d="M214.324 341.582C216.949 344.457 219.331 347.543 221.446 350.811C221.603 351.658 217.305 353.251 216.402 353.088C214.279 351.139 212.486 348.859 211.094 346.335C211.158 345.425 213.591 341.454 214.324 341.582Z" fill="white"/>
<path d="M215.088 320.501C214.457 324.341 213.481 328.115 212.171 331.779C211.63 332.426 207.731 330.007 207.304 329.21C207.549 326.329 208.241 323.504 209.353 320.836C210.121 320.33 214.739 319.861 215.088 320.501Z" fill="white"/>
<path d="M232.205 308.153C228.785 310.011 225.203 311.554 221.504 312.764C220.657 312.764 220.181 308.246 220.558 307.349C222.98 305.767 225.642 304.587 228.441 303.855C229.259 304.133 232.482 307.47 232.205 308.153Z" fill="white"/>
<path d="M252.457 314.046C248.884 312.506 245.464 310.633 242.24 308.453C241.757 307.792 245.015 304.576 245.912 304.384C248.642 305.268 251.203 306.605 253.489 308.34C253.816 309.243 253.19 313.84 252.457 314.046Z" fill="white"/>
<path d="M260.278 333.633C259.316 329.867 258.68 326.024 258.378 322.149C258.634 321.309 263.188 321.936 263.914 322.526C264.86 325.246 265.359 328.1 265.394 330.979C264.917 331.726 260.854 334.074 260.278 333.633Z" fill="white"/>
<path d="M249.626 351.845C252.001 348.765 254.649 345.905 257.538 343.3C258.349 342.973 260.59 346.936 260.59 347.861C259.037 350.289 257.098 352.448 254.849 354.25C253.974 354.343 249.698 352.564 249.626 351.845Z" fill="white"/>
<path d="M236.95 338.803C235.579 338.802 234.24 338.394 233.101 337.631C231.962 336.868 231.075 335.785 230.552 334.518C230.029 333.251 229.893 331.858 230.162 330.514C230.43 329.17 231.092 327.936 232.062 326.967C233.032 325.999 234.267 325.34 235.612 325.074C236.957 324.808 238.35 324.947 239.616 325.473C240.881 325.999 241.963 326.888 242.723 328.029C243.483 329.169 243.888 330.509 243.887 331.88C243.888 332.791 243.709 333.692 243.361 334.534C243.013 335.375 242.501 336.14 241.857 336.783C241.212 337.426 240.447 337.936 239.605 338.283C238.763 338.629 237.861 338.806 236.95 338.803Z" fill="white"/>
<path d="M841.015 275.169C844.25 281.214 845.563 288.102 844.779 294.914C844.502 303.461 843.326 311.956 841.271 320.258C840.449 323.759 838.275 326.792 835.224 328.696C833.373 331.802 830.632 334.279 827.357 335.808C824.081 337.337 820.422 337.846 816.853 337.27C815.618 337.366 814.377 337.211 813.203 336.814C812.03 336.418 810.949 335.787 810.025 334.962C809.102 334.136 808.355 333.132 807.83 332.01C807.305 330.888 807.013 329.671 806.971 328.433V310.254H765.925L759.422 309.208L755.787 310.254H736.043C734.948 310.32 733.853 310.117 732.854 309.662C731.855 309.206 730.984 308.513 730.316 307.643C730.316 307.643 722.788 291.797 717.331 282.441C698.541 250.223 676.933 250.494 664.838 248.928C652.892 247.363 625.08 247.107 625.08 247.107V241.65L618.591 240.867L595.468 240.084V203.961C595.468 199.805 592.864 201.115 592.864 194.355V178.503C590.841 171.092 587.777 164.006 583.764 157.456C582.518 154.365 581.649 151.136 581.174 147.837V106.782C581.464 87.6824 585.375 68.8114 592.7 51.1702C595.572 45.2875 599.373 39.9057 603.956 35.2321C607.828 31.4398 611.999 27.9659 616.428 24.844C622.465 20.738 629.806 19.0096 637.04 19.9914C637.04 19.9914 757.935 24.0045 785.847 27.6119C791.226 28.302 792.421 29.3407 793.808 32.2864C803.93 58.5738 812.551 85.4152 819.628 112.681C828.123 147.317 830.535 159.619 830.535 159.619L840.759 176.425C840.759 176.425 843.093 209.945 843.093 222.938C843.093 235.923 841.015 275.17 841.015 275.17" fill="#3F89E4"/>
<path d="M841.015 275.169C844.25 281.214 845.563 288.102 844.779 294.914C844.502 303.461 843.326 311.956 841.271 320.258C840.449 323.759 838.275 326.792 835.224 328.696C833.373 331.802 830.632 334.279 827.357 335.808C824.081 337.337 820.422 337.846 816.853 337.27C815.618 337.366 814.377 337.211 813.203 336.814C812.03 336.418 810.949 335.787 810.025 334.962C809.102 334.136 808.355 333.132 807.83 332.01C807.305 330.888 807.013 329.671 806.971 328.433V310.254H765.925L759.422 309.208L755.787 310.254H736.043C734.948 310.32 733.853 310.117 732.854 309.662C731.855 309.206 730.984 308.513 730.316 307.643C730.316 307.643 722.788 291.797 717.331 282.441C698.541 250.223 676.933 250.494 664.838 248.928C652.892 247.363 625.08 247.107 625.08 247.107V241.65L618.591 240.867L595.468 240.084V203.961C595.468 199.805 592.864 201.115 592.864 194.355V178.503C590.841 171.092 587.777 164.006 583.764 157.456C582.518 154.365 581.649 151.136 581.174 147.837V106.782C581.464 87.6824 585.375 68.8114 592.7 51.1702C595.572 45.2875 599.373 39.9057 603.956 35.2321C607.828 31.4398 611.999 27.9659 616.428 24.844C622.465 20.738 629.806 19.0096 637.04 19.9914C637.04 19.9914 757.935 24.0045 785.847 27.6119C791.226 28.302 792.421 29.3407 793.808 32.2864C803.93 58.5738 812.551 85.4152 819.628 112.681C828.123 147.317 830.535 159.619 830.535 159.619L840.759 176.425C840.759 176.425 843.093 209.945 843.093 222.938C843.093 235.922 841.015 275.169 841.015 275.169Z" stroke="white" stroke-width="2" stroke-linecap="round" stroke-linejoin="round"/>
<path d="M778.478 322.523C778.478 322.523 756.401 333.644 743.665 333.644H722.548V327.198H743.665C749.854 326.677 755.907 325.096 761.559 322.523H778.478Z" fill="#3F89E4"/>
<path d="M778.478 322.523C778.478 322.523 756.401 333.644 743.665 333.644H722.548V327.198H743.665C749.854 326.677 755.907 325.096 761.559 322.523H778.478Z" stroke="white" stroke-width="2" stroke-linecap="round" stroke-linejoin="round"/>
<path d="M628.464 216.309C628.43 217.516 628.876 218.686 629.705 219.564C630.533 220.441 631.676 220.955 632.882 220.991C638.065 221.504 643.287 221.504 648.47 220.991C649.678 220.956 650.822 220.444 651.652 219.566C652.481 218.688 652.929 217.517 652.896 216.309C653.892 206.157 653.892 195.931 652.896 185.778C652.927 184.572 652.479 183.402 651.65 182.526C650.82 181.649 649.677 181.138 648.47 181.103C643.287 180.584 638.065 180.584 632.882 181.103C631.677 181.139 630.535 181.651 629.707 182.528C628.879 183.404 628.432 184.573 628.464 185.778C627.838 195.946 627.838 206.142 628.464 216.309Z" stroke="white" stroke-width="2" stroke-linecap="round" stroke-linejoin="round"/>
<path d="M637.949 216.88C637.949 216.88 637.302 208.804 637.302 201.582C637.302 194.346 638.206 185.21 638.206 185.21H643.79C642.893 190.625 642.375 196.095 642.239 201.582C642.32 206.583 642.736 211.572 643.484 216.517C643.52 216.745 643.534 216.88 643.534 216.88H637.949Z" stroke="white" stroke-width="2" stroke-linecap="round" stroke-linejoin="round"/>
<path d="M843.608 295.695C842.286 297.373 840.656 298.784 838.806 299.851C836.465 300.889 836.337 301.935 836.074 302.967C835.81 304.013 834.124 314.928 834.124 314.928C834.124 314.928 833.733 318.955 836.337 317.781C837.801 317.259 839.196 316.562 840.492 315.703C841.622 314.548 842.31 313.031 842.434 311.42C843.126 306.205 843.518 300.955 843.608 295.695V295.695Z" stroke="white" stroke-width="2" stroke-linecap="round" stroke-linejoin="round"/>
<path d="M806.973 329.603C806.973 329.603 808.539 297.642 808.795 293.486C809.051 289.331 812.167 290.242 812.167 290.242C815.547 290.242 821.915 290.754 826.98 290.363C831.313 290.028 837.247 289.722 839.581 285.425C837.934 284.182 836.092 283.22 834.131 282.579V288.676" stroke="white" stroke-width="2" stroke-linecap="round" stroke-linejoin="round"/>
<path d="M821.397 290.761C821.307 304.35 820.091 317.908 817.761 331.296" stroke="white" stroke-width="2" stroke-linecap="round" stroke-linejoin="round"/>
<path d="M808.018 330.513C817.082 332.379 826.482 331.752 835.218 328.699" stroke="white" stroke-width="2" stroke-linecap="round" stroke-linejoin="round"/>
<path d="M819.19 324.538C819.19 324.538 838.294 324.538 842.193 316.363" stroke="white" stroke-width="2" stroke-linecap="round" stroke-linejoin="round"/>
<path d="M821.529 297.648C821.529 297.648 841.017 298.552 844.653 288.939" stroke="white" stroke-width="2" stroke-linecap="round" stroke-linejoin="round"/>
<path d="M843.225 225.793C843.594 221.641 842.602 217.481 840.398 213.942C838.194 210.403 834.898 207.677 831.009 206.177C823.481 202.278 823.083 210.852 823.083 213.456C823.083 216.053 821.397 284.529 821.397 284.529C821.397 284.529 840.756 284.785 841.403 271.785C842.051 258.801 843.275 227.892 843.225 225.793Z" stroke="white" stroke-width="2" stroke-linecap="round" stroke-linejoin="round"/>
<path d="M842.733 230.227C843.15 226.621 842.463 222.974 840.762 219.767C839.061 216.56 836.426 213.946 833.207 212.269C827.316 208.697 827.01 216.552 827.01 218.929C827.01 221.312 825.693 284.018 825.693 284.018C825.693 284.018 840.805 284.246 841.31 272.349C841.83 260.453 842.769 232.149 842.733 230.227Z" stroke="white" stroke-width="2" stroke-linecap="round" stroke-linejoin="round"/>
<path d="M842.443 245.152C842.18 248.269 822.301 251.648 822.436 245.017" stroke="white" stroke-width="2" stroke-linecap="round" stroke-linejoin="round"/>
<path d="M795.719 37.4785C791.905 38.1833 790.006 41.2997 792.432 49.4391C794.858 57.5859 804.378 87.0356 808.881 103.486C813.392 119.957 818.408 144.369 819.625 148.361C820.841 152.345 827.074 156.835 831.236 160.834" stroke="white" stroke-width="2" stroke-linecap="round" stroke-linejoin="round"/>
<path d="M837.25 167.066L835.684 167.464C835.545 168.294 835.636 169.145 835.948 169.926C836.097 170.345 836.337 170.725 836.651 171.04C836.965 171.355 837.344 171.596 837.762 171.748L840.366 170.574C840.366 170.574 842.052 169.798 841.54 168.496C841.54 168.496 843.226 167.849 842.443 165.38C841.668 162.911 839.462 152.515 839.462 152.515C839.222 151.562 838.775 150.673 838.153 149.911C837.385 149.264 831.145 141.992 831.145 141.992L829.58 142.376L826.727 141.992L828.029 147.962L830.754 145.756L835.82 151.74L836.602 154.074L836.467 164.597L837.25 167.066Z" stroke="white" stroke-width="2" stroke-linecap="round" stroke-linejoin="round"/>
<path d="M737.855 308.946C737.855 308.946 727.432 288.468 721.719 278.663C702.025 244.909 679.393 245.201 666.736 243.557C654.221 241.921 625.078 241.643 625.078 241.643" stroke="white" stroke-width="2" stroke-linecap="round" stroke-linejoin="round"/>
<path d="M760.379 309.467C755.783 297.527 750.429 285.894 744.349 274.638C719.149 231.769 689.117 231.669 672.375 230.211C654.446 228.653 595.72 226.831 595.72 226.831" stroke="white" stroke-width="2" stroke-linecap="round" stroke-linejoin="round"/>
<path d="M765.917 310.245C762.177 297.752 757.228 285.654 751.139 274.122C723.953 227.866 691.56 227.752 673.495 226.18C654.143 224.487 595.723 222.679 595.723 222.679" stroke="white" stroke-width="2" stroke-linecap="round" stroke-linejoin="round"/>
<path d="M755.789 310.245C755.789 310.245 744.526 285.577 737.71 274C715.035 235.415 688.02 235.329 672.958 234.013C656.822 232.619 595.471 230.726 595.471 230.726" stroke="white" stroke-width="2" stroke-linecap="round" stroke-linejoin="round"/>
<path d="M821.397 284.523L808.276 284.779" stroke="white" stroke-width="2" stroke-linecap="round" stroke-linejoin="round"/>
<path d="M806.978 310.245C806.978 310.245 811.133 237.229 811.659 200.586C812.134 162.531 807.411 124.589 797.622 87.8108" stroke="white" stroke-width="2" stroke-linecap="round" stroke-linejoin="round"/>
<path d="M800.48 83.9146L806.194 107.302" stroke="white" stroke-width="2" stroke-linecap="round" stroke-linejoin="round"/>
<path d="M618.593 240.865L618.336 230.726L619.112 227.617C619.112 227.617 621.453 72.4849 623.011 44.6788C623.137 40.6965 624.757 36.9075 627.549 34.0652C630.341 31.2229 634.101 29.5354 638.08 29.3385C646.141 28.5132 678.094 29.6089 694.992 30.3845C711.875 31.16 725.137 32.4621 752.415 34.803C779.694 37.1368 783.856 49.3534 783.856 49.3534C785.862 53.3937 787.597 57.5628 789.05 61.8333" stroke="white" stroke-width="2" stroke-linecap="round" stroke-linejoin="round"/>
<path d="M791.646 44.4199C789.501 39.7628 786.107 35.791 781.842 32.945C777.578 30.0991 772.608 28.4902 767.484 28.297C750.309 26.6676 675.753 21.0253 648.73 20.2568" stroke="white" stroke-width="2" stroke-linecap="round" stroke-linejoin="round"/>
<path d="M645.878 38.1802C637.824 38.9628 632.623 42.0794 632.879 53.2573C633.142 64.421 634.444 124.708 634.444 124.708C634.444 128.87 636.266 131.986 642.762 133.288C658.672 135.596 674.39 139.071 689.791 143.684C704.341 149.141 788.018 181.622 788.018 181.622C793.987 183.699 797.886 182.404 797.886 175.126C797.886 167.854 796.584 138.49 795.289 124.708C792.221 102.416 787.265 80.4243 780.476 58.9706C775.802 49.6142 773.796 46.9675 753.718 43.9009C728.247 40.0021 645.878 38.1802 645.878 38.1802Z" stroke="white" stroke-width="2" stroke-linecap="round" stroke-linejoin="round"/>
<path d="M752.962 48.8326C771.226 51.6288 772.051 53.2725 776.007 61.1987C782.488 82.1064 787.275 103.502 790.322 125.178C791.603 138.775 792.897 168.011 792.897 175.127C792.897 175.127 792.542 177.496 792.527 177.645C791.552 177.46 790.59 177.213 789.646 176.905C789.817 176.969 691.54 139.017 691.54 139.017C677.893 134.7 663.919 131.5 649.754 129.447L643.735 128.394C639.438 127.54 639.438 126.281 639.438 124.709C639.438 124.602 637.865 53.1373 637.865 53.1373C637.687 45.2608 640.22 43.738 646.368 43.1475C646.588 43.1759 728.096 45.0263 752.962 48.8326Z" stroke="white" stroke-width="2" stroke-linecap="round" stroke-linejoin="round"/>
<path d="M779.779 193.401C779.779 193.401 690.388 158.06 681.388 155.634C672.16 152.935 662.793 150.738 653.327 149.052C645.7 148.006 639.112 146.982 639.112 146.982C639.112 146.982 628.724 145.587 628.724 136.586C628.724 127.571 630.111 50.3151 630.111 50.3151C630.111 50.3151 630.282 38.1836 645.878 38.1836" stroke="white" stroke-width="2" stroke-linecap="round" stroke-linejoin="round"/>
<path d="M601.358 238.788L603.963 35.2375" stroke="white" stroke-width="2" stroke-linecap="round" stroke-linejoin="round"/>
<path d="M595.46 46.4978L593.041 195.824" stroke="white" stroke-width="2" stroke-linecap="round" stroke-linejoin="round"/>
<path d="M581.174 147.84H602.22" stroke="white" stroke-width="2" stroke-linecap="round" stroke-linejoin="round"/>
<path d="M794.821 276.904H781.978C781.097 276.904 780.252 277.254 779.629 277.877C779.006 278.5 778.656 279.346 778.656 280.227V285.599C778.656 286.484 779.007 287.333 779.633 287.958C780.259 288.584 781.108 288.936 781.993 288.936H794.814C795.697 288.936 796.544 288.585 797.168 287.961C797.793 287.336 798.143 286.489 798.143 285.606V280.227C798.143 279.346 797.793 278.5 797.17 277.877C796.547 277.254 795.702 276.904 794.821 276.904Z" stroke="white" stroke-width="2" stroke-linecap="round" stroke-linejoin="round"/>
<path d="M806.976 310.245L807.502 318.733C807.502 321.166 805.638 322.412 802.173 322.582C798.708 322.775 750.506 322.547 747.553 322.718C746.77 322.814 745.975 322.705 745.247 322.402C744.519 322.099 743.882 321.612 743.398 320.989L739.933 317.004V310.245H806.976Z" fill="#3F89E4"/>
<path d="M806.976 310.245L807.502 318.733C807.502 321.166 805.638 322.412 802.173 322.582C798.708 322.775 750.506 322.547 747.553 322.718C746.77 322.814 745.975 322.705 745.247 322.402C744.519 322.099 743.882 321.612 743.398 320.989L739.933 317.004V310.245H806.976Z" stroke="white" stroke-width="2" stroke-linecap="round" stroke-linejoin="round"/>
<path d="M806.845 310.551C806.845 312.977 804.981 314.23 801.509 314.407C798.058 314.578 747.166 314.365 744.228 314.536C743.443 314.63 742.647 314.52 741.918 314.215C741.189 313.911 740.551 313.423 740.066 312.8" stroke="white" stroke-width="2" stroke-linecap="round" stroke-linejoin="round"/>
<path d="M784.571 60.5409C784.571 60.5409 776.98 59.5875 775.877 59.5875C774.767 59.5875 770.455 59.0823 769.26 67.5849C768.134 77.3893 767.581 87.251 767.602 97.1199C767.46 106.768 768.435 118.359 768.712 121.262C768.983 124.15 770.904 129.259 774.497 129.131C778.083 128.974 787.88 127.601 787.88 127.601C791.466 127.196 796.716 126.214 796.716 119.326C796.716 112.432 798.282 75.2265 798.011 72.6081C798.244 70.3608 797.641 68.1066 796.319 66.2749C794.996 64.4431 793.046 63.1618 790.84 62.6754L784.571 60.5409Z" fill="#3F89E4"/>
<path d="M784.571 60.5409C784.571 60.5409 776.98 59.5875 775.877 59.5875C774.767 59.5875 770.455 59.0823 769.26 67.5849C768.134 77.3893 767.581 87.251 767.602 97.1199C767.46 106.768 768.435 118.359 768.712 121.262C768.983 124.15 770.904 129.259 774.497 129.131C778.083 128.974 787.88 127.601 787.88 127.601C791.466 127.196 796.716 126.214 796.716 119.326C796.716 112.432 798.282 75.2265 798.011 72.6081C798.244 70.3608 797.641 68.1066 796.319 66.2749C794.996 64.4431 793.046 63.1618 790.84 62.6754L784.571 60.5409Z" stroke="white" stroke-width="2" stroke-linecap="round" stroke-linejoin="round"/>
<path d="M783.716 60.5267C782.606 60.5267 779.006 60.0286 777.803 68.3111C776.685 77.847 776.133 87.4408 776.153 97.0421C776.01 106.434 776.971 117.719 777.255 120.544C777.526 123.368 779.454 128.327 783.047 128.199" stroke="white" stroke-width="2" stroke-linecap="round" stroke-linejoin="round"/>
<path d="M780.988 185.125C780.988 183.182 782.809 182.912 784.367 183.559C785.925 184.221 797.75 187.729 797.75 187.729C798.575 187.964 799.289 188.484 799.765 189.197C800.241 189.91 800.447 190.769 800.347 191.621C800.347 195.008 799.7 213.059 799.7 213.059C799.444 215.919 797.103 216.958 793.46 215.528C789.831 214.098 783.592 211.244 782.418 210.597C781.251 209.935 780.084 208.776 780.084 205.14C780.084 201.503 780.988 185.125 780.988 185.125Z" fill="#3F89E4"/>
<path d="M780.988 185.125C780.988 183.182 782.809 182.912 784.367 183.559C785.925 184.221 797.75 187.729 797.75 187.729C798.575 187.964 799.289 188.484 799.765 189.197C800.241 189.91 800.447 190.769 800.347 191.621C800.347 195.008 799.7 213.059 799.7 213.059C799.444 215.919 797.103 216.958 793.46 215.528C789.831 214.098 783.592 211.244 782.418 210.597C781.251 209.935 780.084 208.776 780.084 205.14C780.084 201.504 780.988 185.125 780.988 185.125Z" stroke="white" stroke-width="2" stroke-linecap="round" stroke-linejoin="round"/>
<path d="M799.44 193.053C796.517 194.398 793.263 194.851 790.084 194.355C786.847 194.525 783.647 193.608 780.991 191.751" stroke="white" stroke-width="2" stroke-linecap="round" stroke-linejoin="round"/>
<path d="M797.231 214.099C797.231 214.099 795.289 207.724 782.29 208.123" stroke="white" stroke-width="2" stroke-linecap="round" stroke-linejoin="round"/>
<path d="M791.649 181.491C791.649 181.491 792.944 127.829 793.079 126.534C793.207 125.232 791.784 124.975 790.084 125.36C788.398 125.751 788.398 126.918 788.398 126.918C788.398 126.918 786.712 180.061 786.712 181.626C786.853 182.789 787.353 183.878 788.142 184.743V191.488C788.142 191.488 788.533 192.662 790.354 192.662C791.284 192.733 792.206 192.456 792.944 191.887V184.999C792.944 183.313 791.649 183.057 791.649 181.492" fill="#3F89E4"/>
<path d="M791.649 181.491C791.649 181.491 792.944 127.829 793.079 126.534C793.207 125.232 791.784 124.975 790.084 125.36C788.398 125.751 788.398 126.918 788.398 126.918C788.398 126.918 786.712 180.061 786.712 181.626C786.853 182.789 787.353 183.878 788.142 184.743V191.488C788.142 191.488 788.533 192.662 790.354 192.662C791.284 192.733 792.206 192.456 792.944 191.887V184.999C792.944 183.313 791.649 183.057 791.649 181.491Z" stroke="white" stroke-width="2" stroke-linecap="round" stroke-linejoin="round"/>
<path d="M685.2 39.5608L668.217 38.6927L668.472 30.3821L685.548 31.0795L685.2 39.5608Z" fill="#3F89E4"/>
<path d="M685.2 39.5608L668.217 38.6927L668.472 30.3821L685.548 31.0795L685.2 39.5608Z" stroke="white" stroke-width="2" stroke-linecap="round" stroke-linejoin="round"/>
<path d="M685.497 31.9404C688.094 32.1183 716.61 35.3842 732.917 37.2768C760.245 40.4292 780.338 41.1692 785.539 41.2969C786.192 41.2577 786.846 41.3599 787.456 41.5965C788.066 41.8332 788.618 42.1987 789.073 42.6681C789.529 43.1375 789.879 43.6999 790.097 44.3166C790.316 44.9334 790.399 45.5902 790.341 46.242C792.424 48.002 793.994 50.2901 794.887 52.8662C795.161 56.8436 795.161 60.835 794.887 64.8124L790.839 62.6636C790.839 62.6636 790.69 58.4587 790.526 56.0253C790.6 54.2667 790.176 52.523 789.302 50.9949C788.032 49.5751 786.655 48.2547 785.183 47.0458C780.01 46.6687 761.199 45.2885 749.808 44.022C735.777 42.4708 707.069 38.5714 700.694 38.0452C695.575 37.9266 690.453 38.1454 685.362 38.6999L685.497 31.9404Z" fill="#3F89E4"/>
<path d="M685.497 31.9404C688.094 32.1183 716.61 35.3842 732.917 37.2768C760.245 40.4292 780.338 41.1692 785.539 41.2969C786.192 41.2577 786.846 41.3599 787.456 41.5965C788.066 41.8332 788.618 42.1987 789.073 42.6681C789.529 43.1375 789.879 43.6999 790.097 44.3166C790.316 44.9334 790.399 45.5902 790.341 46.242C792.424 48.002 793.994 50.2901 794.887 52.8662C795.161 56.8436 795.161 60.835 794.887 64.8124L790.839 62.6636C790.839 62.6636 790.69 58.4587 790.526 56.0253C790.6 54.2667 790.176 52.523 789.302 50.9949C788.032 49.5751 786.655 48.2548 785.183 47.0458C780.01 46.6687 761.199 45.2885 749.808 44.022C735.777 42.4708 707.069 38.5714 700.694 38.0452C695.575 37.9266 690.453 38.1454 685.362 38.6999L685.497 31.9404Z" stroke="white" stroke-width="2" stroke-linecap="round" stroke-linejoin="round"/>
<path d="M663.697 369.216C656.207 369.212 648.887 366.987 642.661 362.824C636.435 358.66 631.584 352.744 628.719 345.823C625.855 338.903 625.106 331.288 626.567 323.942C628.029 316.596 631.636 309.848 636.931 304.552C642.227 299.255 648.973 295.647 656.319 294.184C663.664 292.721 671.279 293.468 678.199 296.331C685.12 299.195 691.037 304.046 695.202 310.271C699.366 316.496 701.592 323.816 701.598 331.307C701.598 341.36 697.606 351.001 690.498 358.111C683.39 365.22 673.75 369.215 663.697 369.216Z" fill="white"/>
<path d="M662.93 281.229C649.705 281.224 637.018 286.463 627.648 295.796C618.278 305.129 612.989 317.795 612.941 331.021H598.171C598.222 313.494 605.22 296.703 617.631 284.328C630.041 271.953 646.852 265.004 664.378 265.004C681.903 265.004 698.714 271.953 711.125 284.328C723.535 296.703 730.533 313.494 730.585 331.021H712.819C712.781 317.809 707.509 305.152 698.159 295.819C688.808 286.487 676.14 281.24 662.93 281.229Z" fill="#3F89E4"/>
<path d="M662.93 281.229C649.705 281.224 637.018 286.463 627.648 295.796C618.278 305.129 612.989 317.795 612.941 331.021H598.171C598.222 313.494 605.22 296.703 617.631 284.328C630.041 271.953 646.852 265.004 664.378 265.004C681.903 265.004 698.714 271.953 711.125 284.328C723.535 296.703 730.533 313.494 730.585 331.021H712.819C712.781 317.809 707.509 305.152 698.159 295.819C688.808 286.487 676.14 281.24 662.93 281.229V281.229Z" stroke="white" stroke-width="2"/>
<path d="M612.933 331.013L612.919 331.163C612.919 344.411 618.181 357.116 627.549 366.484C636.916 375.852 649.621 381.115 662.868 381.115C676.116 381.115 688.821 375.852 698.188 366.484C707.555 357.116 712.818 344.411 712.818 331.163V331.013H730.577V331.163C730.577 348.722 723.602 365.561 711.186 377.978C698.771 390.394 681.931 397.369 664.373 397.369C646.815 397.369 629.976 390.394 617.56 377.978C605.145 365.561 598.17 348.722 598.17 331.163V331.013H612.933Z" fill="#3F89E4"/>
<path d="M612.933 331.013L612.919 331.163C612.919 344.411 618.181 357.116 627.549 366.484C636.916 375.852 649.621 381.115 662.868 381.115C676.116 381.115 688.821 375.852 698.188 366.484C707.555 357.116 712.818 344.411 712.818 331.163V331.013H730.577V331.163C730.577 348.722 723.602 365.561 711.186 377.978C698.771 390.394 681.931 397.369 664.373 397.369C646.815 397.369 629.976 390.394 617.56 377.978C605.145 365.561 598.17 348.722 598.17 331.163V331.013H612.933Z" stroke="#3F89E4" stroke-width="2"/>
<path d="M662.932 281.229C676.143 281.24 688.81 286.487 698.161 295.819C707.511 305.151 712.783 317.809 712.821 331.021H701.025C700.982 321.155 697.033 311.708 690.042 304.747C683.051 297.786 673.587 293.878 663.722 293.878C653.856 293.878 644.393 297.786 637.402 304.747C630.411 311.708 626.462 321.155 626.419 331.021H612.943C612.992 317.795 618.28 305.128 627.65 295.795C637.02 286.462 649.707 281.224 662.932 281.229Z" fill="#3F89E4"/>
<path d="M662.932 281.229C676.143 281.24 688.81 286.487 698.161 295.819C707.511 305.151 712.783 317.809 712.821 331.021H701.025C700.982 321.155 697.033 311.708 690.042 304.747C683.051 297.786 673.587 293.878 663.722 293.878C653.856 293.878 644.393 297.786 637.402 304.747C630.411 311.708 626.462 321.155 626.419 331.021H612.943C612.992 317.795 618.28 305.128 627.65 295.795C637.02 286.462 649.707 281.224 662.932 281.229V281.229Z" stroke="white" stroke-width="2"/>
<path d="M626.383 331.159C626.383 341.061 630.316 350.557 637.317 357.558C644.318 364.559 653.814 368.493 663.715 368.493C673.616 368.493 683.111 364.559 690.112 357.558C697.113 350.557 701.046 341.061 701.046 331.159V331.01H712.821V331.159C712.821 344.407 707.559 357.111 698.192 366.478C688.826 375.845 676.122 381.108 662.875 381.108C649.628 381.108 636.924 375.845 627.558 366.478C618.191 357.111 612.929 344.407 612.929 331.159L612.943 331.01H626.426C626.421 331.062 626.406 331.113 626.383 331.159Z" fill="#3F89E4"/>
<path d="M626.383 331.159C626.383 341.061 630.316 350.557 637.317 357.558C644.318 364.559 653.814 368.493 663.715 368.493C673.616 368.493 683.111 364.559 690.112 357.558C697.113 350.557 701.046 341.061 701.046 331.159V331.01H712.821V331.159C712.821 344.407 707.559 357.111 698.192 366.478C688.826 375.845 676.122 381.108 662.875 381.108C649.628 381.108 636.924 375.845 627.558 366.478C618.191 357.111 612.929 344.407 612.929 331.159L612.943 331.01H626.426C626.421 331.062 626.406 331.113 626.383 331.159V331.159Z" stroke="white" stroke-width="2"/>
<path d="M663.695 367.506C656.537 367.498 649.542 365.368 643.594 361.385C637.647 357.402 633.014 351.745 630.28 345.129C627.547 338.513 626.836 331.235 628.238 324.216C629.64 317.196 633.091 310.75 638.155 305.691C643.219 300.632 649.67 297.188 656.691 295.795C663.712 294.402 670.988 295.121 677.6 297.862C684.213 300.604 689.864 305.244 693.84 311.196C697.816 317.149 699.937 324.146 699.938 331.305C699.935 336.062 698.996 340.771 697.173 345.165C695.35 349.559 692.68 353.551 689.314 356.913C685.949 360.275 681.954 362.94 677.558 364.758C673.162 366.576 668.451 367.51 663.695 367.506Z" fill="#3F89E4"/>
<path d="M663.695 366.353C656.762 366.355 649.984 364.301 644.218 360.45C638.453 356.6 633.958 351.126 631.304 344.721C628.649 338.316 627.954 331.267 629.305 324.467C630.657 317.666 633.995 311.42 638.897 306.516C643.799 301.613 650.045 298.274 656.844 296.921C663.644 295.568 670.692 296.262 677.098 298.915C683.503 301.569 688.978 306.062 692.829 311.827C696.681 317.592 698.736 324.37 698.735 331.304C698.728 340.596 695.034 349.505 688.465 356.077C681.895 362.648 672.987 366.344 663.695 366.353Z" fill="#3F89E4"/>
<path d="M657.808 354.714C661.721 354.389 665.655 354.422 669.562 354.814C670.38 355.156 668.914 359.567 668.274 360.229C665.387 360.714 662.441 360.726 659.551 360.264C658.897 359.617 657.274 355.241 657.808 354.714Z" fill="white"/>
<path d="M641.489 340.985C644.16 343.866 646.556 346.992 648.646 350.32C648.867 351.174 644.484 352.746 643.588 352.632C641.434 350.654 639.616 348.34 638.202 345.78C638.287 344.891 640.756 340.906 641.489 340.985Z" fill="white"/>
<path d="M642.282 319.682C641.652 323.567 640.664 327.385 639.329 331.087C638.788 331.749 634.832 329.301 634.427 328.504C634.635 325.591 635.34 322.734 636.512 320.059C637.259 319.532 641.89 319.02 642.282 319.682Z" fill="white"/>
<path d="M659.558 307.244C656.105 309.111 652.49 310.661 648.758 311.876C647.918 311.876 647.42 307.258 647.811 306.369C650.228 304.786 652.882 303.599 655.673 302.854C656.613 303.174 659.857 306.518 659.558 307.244Z" fill="white"/>
<path d="M680.039 313.163C676.437 311.6 672.985 309.714 669.723 307.528C669.161 306.817 672.547 303.622 673.422 303.359C676.193 304.274 678.785 305.66 681.085 307.457C681.391 308.297 680.772 312.929 680.039 313.163Z" fill="white"/>
<path d="M687.949 332.945C686.943 329.147 686.304 325.26 686.042 321.34C686.242 320.529 690.859 321.176 691.599 321.746C692.542 324.498 693.042 327.382 693.079 330.291C692.624 331.074 688.568 333.422 687.949 332.945Z" fill="white"/>
<path d="M677.189 351.352C679.599 348.242 682.272 345.345 685.179 342.693C685.99 342.365 688.274 346.428 688.274 347.31C686.704 349.766 684.749 351.952 682.482 353.785C681.536 353.871 677.217 352.113 677.189 351.352Z" fill="white"/>
<path d="M664.388 338.191C663.002 338.191 661.647 337.779 660.495 337.009C659.343 336.239 658.445 335.145 657.914 333.864C657.384 332.584 657.244 331.175 657.514 329.816C657.783 328.456 658.449 327.207 659.428 326.226C660.407 325.245 661.655 324.576 663.014 324.304C664.373 324.032 665.782 324.168 667.063 324.696C668.344 325.225 669.44 326.121 670.213 327.271C670.985 328.422 671.399 329.776 671.403 331.162C671.407 332.085 671.228 332.999 670.877 333.853C670.526 334.707 670.009 335.482 669.357 336.136C668.705 336.789 667.931 337.307 667.078 337.66C666.225 338.013 665.311 338.193 664.388 338.191Z" fill="white"/>
<path d="M31.5172 359.934L27.6324 360.61L51.7587 293.379L75.4369 289.523L79.6135 314.603L88.8553 319.371L81.684 326.927L81.9333 328.428L75.231 329.51L76.7031 338.276L149.012 275.99H174.212L122.947 356.988L123.096 357.828L119.247 358.504L121.957 374.499H130.887V377.978H26.3522V374.499H33.9508L31.5172 359.934Z" fill="#3F89E4" stroke="white" stroke-width="2" stroke-linecap="round" stroke-linejoin="round"/>
</svg>
