<svg width="30" height="30" viewBox="0 0 30 30" fill="none" xmlns="http://www.w3.org/2000/svg">
<path d="M15.014 4C8.95677 4 4.02584 8.92621 4.02364 14.9828C4.02254 16.9188 4.52967 18.8088 5.49116 20.4742L4 26L9.75623 24.64C11.3613 25.5156 13.1681 25.9753 15.0075 25.9764H15.0118C21.0679 25.9764 25.9967 21.0491 26 14.9936C26.0022 12.0577 24.8604 9.29731 22.7856 7.22051C20.7108 5.14481 17.9535 4.0011 15.014 4ZM15.0118 6.2C17.3616 6.2011 19.5699 7.11718 21.23 8.77598C22.8901 10.437 23.802 12.644 23.7998 14.9914C23.7976 19.8358 19.8567 23.7764 15.0097 23.7764C13.5432 23.7753 12.0906 23.4071 10.8112 22.7086L10.0699 22.3047L9.25129 22.498L7.08546 23.0094L7.61402 21.0457L7.85252 20.1648L7.39701 19.3742C6.62914 18.0454 6.22275 16.5261 6.22385 14.9828C6.22605 10.1406 10.168 6.2 15.0118 6.2ZM11.1249 9.9125C10.9412 9.9125 10.6442 9.98125 10.3922 10.2562C10.1403 10.5301 9.42963 11.1935 9.42963 12.5443C9.42963 13.8951 10.4137 15.2009 10.5512 15.3846C10.6876 15.5672 12.4508 18.4268 15.2417 19.5268C17.5607 20.4409 18.0317 20.2605 18.5356 20.2143C19.0394 20.1692 20.1611 19.5515 20.3899 18.9102C20.6187 18.2689 20.6192 17.7172 20.551 17.6039C20.4828 17.4895 20.2996 17.4213 20.0246 17.2838C19.7507 17.1463 18.4008 16.4835 18.1488 16.3922C17.8969 16.3009 17.7127 16.2547 17.53 16.5297C17.3474 16.8047 16.8226 17.4213 16.662 17.6039C16.5014 17.7876 16.3418 17.8123 16.0668 17.6748C15.7918 17.5362 14.9075 17.2455 13.858 16.3105C13.0417 15.5834 12.4909 14.6863 12.3303 14.4113C12.1708 14.1374 12.3153 13.987 12.4528 13.8506C12.576 13.7274 12.7257 13.5299 12.8632 13.3693C12.9996 13.2087 13.0469 13.0943 13.1382 12.9117C13.2295 12.7291 13.1828 12.568 13.1146 12.4305C13.0464 12.293 12.5122 10.9372 12.268 10.3938C12.0623 9.93725 11.845 9.92665 11.6492 9.91895C11.4897 9.91235 11.3075 9.9125 11.1249 9.9125Z" fill="white"/>
</svg>
