<svg width="45" height="45" viewBox="0 0 45 45" fill="none" xmlns="http://www.w3.org/2000/svg">
<path fill-rule="evenodd" clip-rule="evenodd" d="M9.75 16.1617V33.6624C9.75 35.2445 11.0326 36.5271 12.6147 36.5271H33.1085C34.6906 36.5271 35.9732 35.2445 35.9732 33.6624V20.4588C35.9732 19.529 35.6716 18.6244 35.1138 17.8805L32.9652 15.0158C32.1537 13.9338 30.8801 13.297 29.5276 13.297H12.6147C11.0326 13.297 9.75 14.5796 9.75 16.1617Z" stroke="#1B74E3" stroke-width="2.5" stroke-linecap="round" stroke-linejoin="round"/>
<path fill-rule="evenodd" clip-rule="evenodd" d="M15.4792 9H19.7763C20.5674 9 21.2087 9.64129 21.2087 10.4324V13.2971H14.0469V10.4324C14.0469 9.64129 14.6882 9 15.4792 9Z" stroke="#1B74E3" stroke-width="2.5" stroke-linecap="round" stroke-linejoin="round"/>
<path d="M22.3671 20.6494V30.067" stroke="#1B74E3" stroke-width="1.25" stroke-linecap="round" stroke-linejoin="round"/>
<path d="M23.4991 21.3931L22.3648 22.5279L21.2305 21.3931" stroke="#1B74E3" stroke-width="1.25" stroke-linecap="round" stroke-linejoin="round"/>
<path d="M26.5509 22.9409L18.1797 27.7753" stroke="#1B74E3" stroke-width="1.25" stroke-linecap="round" stroke-linejoin="round"/>
<path d="M26.3656 24.3577L24.8164 23.9428L25.2313 22.3931" stroke="#1B74E3" stroke-width="1.25" stroke-linecap="round" stroke-linejoin="round"/>
<path d="M18.3633 26.3586L19.9125 26.7735L19.4976 28.3232" stroke="#1B74E3" stroke-width="1.25" stroke-linecap="round" stroke-linejoin="round"/>
<path d="M18.1797 22.9409L26.5509 27.7753" stroke="#1B74E3" stroke-width="1.25" stroke-linecap="round" stroke-linejoin="round"/>
<path d="M18.3633 24.3579L19.9125 23.943L19.4976 22.3933" stroke="#1B74E3" stroke-width="1.25" stroke-linecap="round" stroke-linejoin="round"/>
<path d="M26.3656 26.3584L24.8164 26.7733L25.2313 28.323" stroke="#1B74E3" stroke-width="1.25" stroke-linecap="round" stroke-linejoin="round"/>
<path d="M21.2305 29.3235L22.3648 28.1887L23.4991 29.3235" stroke="#1B74E3" stroke-width="1.25" stroke-linecap="round" stroke-linejoin="round"/>
</svg>
