<svg width="55" height="55" viewBox="0 0 55 55" fill="none" xmlns="http://www.w3.org/2000/svg">
    <path
        d="M27.5 0C22.0319 0.00636835 16.7895 2.1814 12.923 6.04796C9.0564 9.91452 6.88137 15.1569 6.875 20.625C6.875 34.5709 26.0752 53.9309 26.8924 54.7482C27.0536 54.9093 27.2721 54.9998 27.5 54.9998C27.7279 54.9998 27.9464 54.9093 28.1076 54.7482C28.9248 53.9309 48.125 34.5709 48.125 20.625C48.1186 15.1569 45.9436 9.91452 42.077 6.04796C38.2105 2.1814 32.9681 0.00636835 27.5 0V0Z"
        fill="#148EFF" />
    <path
        d="M26.7389 9.70743C27.0325 9.04869 27.9675 9.04869 28.2611 9.70743L30.7575 15.3079C30.8786 15.5796 31.1354 15.7661 31.4312 15.7974L37.529 16.4409C38.2463 16.5166 38.5352 17.4059 37.9994 17.8887L33.4445 21.9936C33.2235 22.1927 33.1255 22.4946 33.1872 22.7855L34.4594 28.7838C34.6091 29.4893 33.8526 30.0389 33.2279 29.6785L27.9163 26.615C27.6587 26.4664 27.3413 26.4664 27.0836 26.615L21.7721 29.6785C21.1474 30.0389 20.3909 29.4893 20.5406 28.7838L21.8128 22.7855C21.8745 22.4946 21.7765 22.1927 21.5555 21.9936L17.0006 17.8887C16.4648 17.4059 16.7537 16.5166 17.471 16.4409L23.5688 15.7974C23.8646 15.7661 24.1213 15.5796 24.2424 15.3079L26.7389 9.70743Z"
        fill="white" />
</svg>