<svg width="40" height="40" viewBox="0 0 40 40" fill="none" xmlns="http://www.w3.org/2000/svg">
<rect width="40" height="40" rx="20" fill="#4FCD3B"/>
<g clip-path="url(#clip0_1201_38433)">
<path d="M20.0159 7.5C13.1327 7.5 7.52936 13.098 7.52686 19.9805C7.52561 22.1805 8.10189 24.3282 9.1945 26.2207L7.5 32.5L14.0412 30.9546C15.8651 31.9496 17.9183 32.4719 20.0085 32.4731H20.0134C26.8953 32.4731 32.4962 26.8739 32.5 19.9927C32.5025 16.6564 31.205 13.5197 28.8473 11.1597C26.4896 8.80092 23.3562 7.50125 20.0159 7.5ZM20.0134 10C22.6837 10.0013 25.1931 11.0422 27.0795 12.9272C28.966 14.8147 30.0023 17.3227 29.9998 19.9902C29.9973 25.4952 25.519 29.9731 20.011 29.9731C18.3446 29.9719 16.6939 29.5535 15.24 28.7598L14.3976 28.3008L13.4674 28.5205L11.0062 29.1016L11.6068 26.8701L11.8779 25.8691L11.3602 24.9707C10.4877 23.4607 10.0259 21.7342 10.0271 19.9805C10.0296 14.478 14.5091 10 20.0134 10ZM15.5965 14.2188C15.3877 14.2188 15.0502 14.2969 14.7639 14.6094C14.4776 14.9206 13.67 15.6745 13.67 17.2095C13.67 18.7445 14.7883 20.2283 14.9446 20.437C15.0996 20.6445 17.1031 23.894 20.2747 25.144C22.9099 26.1828 23.4452 25.9778 24.0177 25.9253C24.5903 25.874 25.8648 25.1721 26.1249 24.4434C26.3849 23.7146 26.3855 23.0877 26.308 22.959C26.2305 22.829 26.0223 22.7515 25.7098 22.5952C25.3985 22.439 23.8645 21.6858 23.5782 21.582C23.2919 21.4783 23.0826 21.4258 22.875 21.7383C22.6675 22.0508 22.0711 22.7515 21.8886 22.959C21.7061 23.1677 21.5248 23.1958 21.2123 23.0396C20.8997 22.8821 19.8949 22.5518 18.7023 21.4893C17.7747 20.663 17.1488 19.6436 16.9663 19.3311C16.785 19.0198 16.9492 18.8488 17.1054 18.6938C17.2454 18.5538 17.4155 18.3295 17.5718 18.147C17.7268 17.9645 17.7806 17.8345 17.8843 17.627C17.9881 17.4195 17.935 17.2363 17.8575 17.0801C17.7799 16.9238 17.173 15.3831 16.8954 14.7656C16.6617 14.2469 16.4148 14.2348 16.1923 14.2261C16.011 14.2186 15.804 14.2188 15.5965 14.2188Z" fill="white"/>
</g>
<defs>
<clipPath id="clip0_1201_38433">
<rect width="25" height="25" fill="white" transform="translate(7.5 7.5)"/>
</clipPath>
</defs>
</svg>
